/* XPM */
static char * close_prelight_xpm[] = {
"36 32 298 2",
"  	c #4B4B4B",
". 	c #4C4C4C",
"+ 	c #4D4D4D",
"@ 	c #4E4E4E",
"# 	c #4F4F4F",
"$ 	c #505050",
"% 	c #484848",
"& 	c #454545",
"* 	c #414141",
"= 	c #404040",
"- 	c #3E3E3E",
"; 	c #3B3B3B",
"> 	c #3A3A3A",
", 	c #383838",
"' 	c #353535",
") 	c #333333",
"! 	c #313131",
"~ 	c #2F2F2F",
"{ 	c #2B2B2B",
"] 	c #292929",
"^ 	c #252525",
"/ 	c #212121",
"( 	c #1F1F1F",
"_ 	c #1B1B1B",
": 	c #181818",
"< 	c #161616",
"[ 	c #151515",
"} 	c #171717",
"| 	c #191919",
"1 	c #525252",
"2 	c #494949",
"3 	c #464646",
"4 	c #3F3F3F",
"5 	c #3D3D3D",
"6 	c #363636",
"7 	c #343434",
"8 	c #2A2A2A",
"9 	c #282828",
"0 	c #242424",
"a 	c #202020",
"b 	c #131313",
"c 	c #111111",
"d 	c #070707",
"e 	c #080808",
"f 	c #020202",
"g 	c #535353",
"h 	c #4A4A4A",
"i 	c #393939",
"j 	c #0E0E0E",
"k 	c #0D0D0D",
"l 	c #0B0B0B",
"m 	c #575757",
"n 	c #444444",
"o 	c #434343",
"p 	c #303030",
"q 	c #2E2E2E",
"r 	c #1E1E1E",
"s 	c #1D1D1D",
"t 	c #5A5A5A",
"u 	c #555555",
"v 	c #393A3B",
"w 	c #363637",
"x 	c #343535",
"y 	c #343435",
"z 	c #353536",
"A 	c #353534",
"B 	c #262626",
"C 	c #232323",
"D 	c #1A1A1A",
"E 	c #101010",
"F 	c #5C5C5C",
"G 	c #545454",
"H 	c #363634",
"I 	c #1D2324",
"J 	c #1C1D1C",
"K 	c #151B21",
"L 	c #0F1D27",
"M 	c #112029",
"N 	c #13242C",
"O 	c #182730",
"P 	c #192A34",
"Q 	c #1F2C34",
"R 	c #222D33",
"S 	c #242D31",
"T 	c #2A2B2C",
"U 	c #2B2C29",
"V 	c #2A2A2B",
"W 	c #595959",
"X 	c #434444",
"Y 	c #242629",
"Z 	c #1A2127",
"` 	c #13272E",
" .	c #144857",
"..	c #237D8C",
"+.	c #34A8B6",
"@.	c #40C5D1",
"#.	c #4DD5E0",
"$.	c #57DDE6",
"%.	c #57DFE8",
"&.	c #53DCE6",
"*.	c #4BD3DF",
"=.	c #41C2D2",
"-.	c #34ABBC",
";.	c #3393A3",
">.	c #30788A",
",.	c #2A5664",
"'.	c #22343C",
").	c #27292B",
"!.	c #272828",
"~.	c #121212",
"{.	c #363939",
"].	c #2B2F30",
"^.	c #1A262C",
"/.	c #1B4A59",
"(.	c #3595A5",
"_.	c #5CD3DD",
":.	c #81EDF2",
"<.	c #8CF2F7",
"[.	c #93F5FA",
"}.	c #97F7FB",
"|.	c #99F8FC",
"1.	c #9BF8FC",
"2.	c #9DF8FC",
"3.	c #96F7FB",
"4.	c #89F5FA",
"5.	c #7EF0F7",
"6.	c #62DCE9",
"7.	c #42ABBF",
"8.	c #337184",
"9.	c #223137",
"0.	c #2D3132",
"a.	c #2F3333",
"b.	c #141414",
"c.	c #494D4E",
"d.	c #383C3D",
"e.	c #162B36",
"f.	c #2D788A",
"g.	c #58D1DE",
"h.	c #8AF3F7",
"i.	c #93F6FA",
"j.	c #95F7FB",
"k.	c #97F7FC",
"l.	c #97F8FC",
"m.	c #9FF8FC",
"n.	c #A0F9FD",
"o.	c #A2F9FD",
"p.	c #A4F9FD",
"q.	c #98F8FD",
"r.	c #91F8FD",
"s.	c #8AF5FA",
"t.	c #337C90",
"u.	c #1F2B31",
"v.	c #414546",
"w.	c #47494A",
"x.	c #4E5252",
"y.	c #656A6B",
"z.	c #2C363A",
"A.	c #205366",
"B.	c #4AC5D6",
"C.	c #86F1F7",
"D.	c #8EF5FA",
"E.	c #8EF6FB",
"F.	c #91F6FB",
"G.	c #93F7FB",
"H.	c #9DF9FC",
"I.	c #9FF9FD",
"J.	c #A7F9FD",
"K.	c #94F8FD",
"L.	c #92F8FD",
"M.	c #8FF7FC",
"N.	c #59D2E2",
"O.	c #1D4655",
"P.	c #464D50",
"Q.	c #65696B",
"R.	c #383939",
"S.	c #3C3C3C",
"T.	c #535555",
"U.	c #6F7374",
"V.	c #263237",
"W.	c #235B71",
"X.	c #4EDDE9",
"Y.	c #81F1F8",
"Z.	c #88F5F9",
"`.	c #8BF5FA",
" +	c #91F7FC",
".+	c #95F8FC",
"++	c #9BF9FC",
"@+	c #9DF9FD",
"#+	c #A4F9FC",
"$+	c #A6F8FC",
"%+	c #92F7FC",
"&+	c #7BEDF5",
"*+	c #2A6277",
"=+	c #454D4E",
"-+	c #3E3F3E",
";+	c #0F0F0F",
">+	c #484A4B",
",+	c #5A5E5F",
"'+	c #343B3E",
")+	c #173E51",
"!+	c #3AB1C4",
"~+	c #7EF0F6",
"{+	c #91F7FB",
"]+	c #91F8FC",
"^+	c #93F8FC",
"/+	c #A2F8FC",
"(+	c #8DF5FB",
"_+	c #59D2E5",
":+	c #204D5F",
"<+	c #474D4F",
"[+	c #5A5D5E",
"}+	c #323434",
"|+	c #272727",
"1+	c #4D4E4D",
"2+	c #434545",
"3+	c #353939",
"4+	c #20272D",
"5+	c #1B4E5D",
"6+	c #4BC0CD",
"7+	c #85F0F6",
"8+	c #A0F8FC",
"9+	c #95F7FC",
"0+	c #8DF6FB",
"a+	c #84F2F8",
"b+	c #56D3E6",
"c+	c #307990",
"d+	c #2A3237",
"e+	c #383B3C",
"f+	c #3C3E3E",
"g+	c #474747",
"h+	c #515151",
"i+	c #4E4F4F",
"j+	c #3D3F3E",
"k+	c #2D2F30",
"l+	c #252829",
"m+	c #1C3843",
"n+	c #2B7F8F",
"o+	c #49C6D2",
"p+	c #70E6ED",
"q+	c #81EEF4",
"r+	c #8CF1F8",
"s+	c #93F5F9",
"t+	c #97F6FB",
"u+	c #99F7FB",
"v+	c #9BF7FC",
"w+	c #9BF7FB",
"x+	c #99F6FB",
"y+	c #92F4FA",
"z+	c #83F1F7",
"A+	c #77ECF4",
"B+	c #58D4E3",
"C+	c #3A9BB2",
"D+	c #295465",
"E+	c #292E31",
"F+	c #2E3131",
"G+	c #333434",
"H+	c #2E2F2F",
"I+	c #262B2F",
"J+	c #1F343D",
"K+	c #1E4A5C",
"L+	c #237687",
"M+	c #2C9EAF",
"N+	c #37BBCB",
"O+	c #40CEDA",
"P+	c #4CD7E3",
"Q+	c #53DAE6",
"R+	c #50D7E2",
"S+	c #4BCBD9",
"T+	c #40B7C6",
"U+	c #3298AA",
"V+	c #2E7B8D",
"W+	c #2A5F6E",
"X+	c #28434E",
"Y+	c #272C31",
"Z+	c #373737",
"`+	c #323232",
" @	c #222222",
".@	c #484746",
"+@	c #3D3C3C",
"@@	c #2D3031",
"#@	c #242625",
"$@	c #202326",
"%@	c #21262C",
"&@	c #272B30",
"*@	c #2B2F34",
"=@	c #2D3338",
"-@	c #2E3538",
";@	c #2E3030",
">@	c #333536",
",@	c #3C3A39",
"'@	c #3F3F3E",
")@	c #424242",
"!@	c #585858",
"~@	c #535354",
"{@	c #2C2C2C",
"]@	c #565656",
"^@	c #2D2D2D",
"/@	c #1C1C1C",
"                                      . . . . . . . . . . . . . . . . . ",
"                                  . . . . . . . . . . . . . . . . . . . ",
"+ + + + + + + + + + + + + + + + + + + + + + + + + + + + + + + + + + + + ",
"@ @ @ @ @ @ @ @ @ @ @ @ @ @ @ @ @ @ @ @ @ @ @ @ @ @ @ @ @ @ @ @ @ @ @ @ ",
"@ # # # # # # # # # # # # # # # # # # # # # # # # # # # # # # # # # # # ",
"+ @ @ @ # # # # # # # # # # # # # # # # # # # # # # # # # # # # # # # # ",
"# @ @ # $ % & * = - ; > , ' ) ! ~ { ] ^ / ( _ : < [ [ } : : | | | : | | ",
"1 1 $ $ 1 +   2 % 3 & * = 4 5 > , 6 7 ! ~ 8 9 0 a _ : b c c d e d d f e ",
"g 1 1 1 g @ +   h 2 % 3 & * = 4 5 ; i 6 7 ! ~ 8 9 0 a _ } b c j k l d e ",
"m g 1 $ # @ @ +   h h 2 3 3 n o = - 5 > , ' ) p q ] ^ / r | [ c c s ( d ",
"t u g 1 $ @ @ +     h 2 % 3 o - v w x y z ' A 7 ! q 8 B C r D < c E C ( ",
"F m G 1 $ # @ @ + % - H 8 I J K L M N O P Q R S T U V ] ^ / s | b c k q ",
"W u G 1 1 $ @ X ) Y Z `  ...+.@.#.$.%.&.*.=.-.;.>.,.'.).] !.a _ } ~.} < ",
"m G g 1 1 + {.].^./.(._.:.<.[.}.|.1.1.2.2.1.3.4.5.6.7.8.9.0.a.C | [ } b.",
"G g 1 1 @ c.d.e.f.g.h.i.j.k.l.|.2.m.n.o.o.p.p.o.q.r.s.6.t.u.v.w.a } c , ",
"1 1 1 1 x.y.z.A.B.C.D.E.F.G.l.1.1.H.I.I.n.o.p.J.o.K.L.M.N.O.P.Q.R.| ~.S.",
"# $ 1 # T.U.V.W.X.Y.Z.`.E. +.+l.|.1.++@+I.n.#+$+$+%+%+%+&+*+=+U.-+D b.;+",
"@ # $ 1 >+,+'+)+!+~+E.{+]+^+.+l.l.|.1.2.m.m./+/+m. + +(+_+:+<+[+}+_ [ |+",
"@ @ # $ 1+2+3+4+5+6+7+i.}.|.|.1.1.2.m.m.8+8+8+2.9+0+a+b+c+d+e+f+0 _ [ g+",
"+ @ @ # h+i+j+k+l+m+n+o+p+q+r+s+t+u+v+v+w+x+y+z+A+B+C+D+E+F+G+{ C _ < ) ",
". + @ @ # h+1 + - H+I+J+K+L+M+N+O+P+Q+R+S+T+U+V+W+X+Y+~ ' Z+`+{  @_ 4 l ",
"h + + @ @ # h+1 g g @ .@+@@@#@$@%@&@*@=@-@F+;@>@,@'@o )@5 , `+9 r  @' p ",
"h h . + @ @ h+1 1 g G m !@!@W W !@G g g ~@G g h+@ . % o 5 Z+q ^ {@_ E 7 ",
"% 2 h h + @ @ # h+1 g g G m !@!@!@!@!@!@!@m g 1 @ . g+)@i ~ s C ^ ^ ^ ^ ",
"n & g+% 2 2 h . + @ # h+1 1 g G G m m ]@g 1 h+@ h & - Z+^@C D D D D D D ",
"5 - = = )@)@o o o n & g+% % 2 h h h h h 2 2 g+g+& & % % % % g+g+g+% % % ",
"! p q ^@{@q q ^@^@{ { { { { { { { { { { { { { { { { { { { { { { { { { { ",
"|+|+|+^ ^ ^ ^ ^ ^ ^ ^ ^ ^ ^ ^ ^ ^ ^ ^ ^ ^ ^ ^ ^ ^ ^ ^ ^ ^ |+|+|+|+|+|+|+",
"C C C C C C C C C C C C C C C C C C C C C C C C C C C C C C C C C C C C ",
"( ( ( ( ( ( ( ( ( ( ( ( ( ( ( ( ( ( ( ( ( ( ( ( ( ( ( ( ( ( ( ( ( ( ( ( ",
"_ _ _ _ _ _ _ _ _ _ _ _ _ _ _ _ _ _ _ _ _ _ _ _ _ _ _ _ _ /@/@/@/@/@/@/@",
"| | | | | | | | | | | | | | | | | | | | | | | | | | | | | | | | | | | | "};
