/* XPM */
static char * close_inactive_xpm[] = {
"36 32 249 2",
"  	c #4B4B4B",
". 	c #4C4C4C",
"+ 	c #4D4D4D",
"@ 	c #4E4E4E",
"# 	c #4F4F4F",
"$ 	c #505050",
"% 	c #484848",
"& 	c #454545",
"* 	c #414141",
"= 	c #404040",
"- 	c #3E3E3E",
"; 	c #3B3B3B",
"> 	c #3A3A3A",
", 	c #383838",
"' 	c #353535",
") 	c #333333",
"! 	c #313131",
"~ 	c #2F2F2F",
"{ 	c #2B2B2B",
"] 	c #292929",
"^ 	c #252525",
"/ 	c #212121",
"( 	c #1F1F1F",
"_ 	c #1B1B1B",
": 	c #181818",
"< 	c #161616",
"[ 	c #151515",
"} 	c #171717",
"| 	c #191919",
"1 	c #525252",
"2 	c #494949",
"3 	c #464646",
"4 	c #3F3F3F",
"5 	c #3D3D3D",
"6 	c #363636",
"7 	c #343434",
"8 	c #2A2A2A",
"9 	c #282828",
"0 	c #242424",
"a 	c #202020",
"b 	c #131313",
"c 	c #111111",
"d 	c #070707",
"e 	c #080808",
"f 	c #020202",
"g 	c #535353",
"h 	c #4A4A4A",
"i 	c #393939",
"j 	c #0E0E0E",
"k 	c #0D0D0D",
"l 	c #0B0B0B",
"m 	c #575757",
"n 	c #444444",
"o 	c #434343",
"p 	c #303030",
"q 	c #2E2E2E",
"r 	c #1E1E1E",
"s 	c #1D1D1D",
"t 	c #5A5A5A",
"u 	c #555555",
"v 	c #393A3B",
"w 	c #363637",
"x 	c #343535",
"y 	c #343435",
"z 	c #353536",
"A 	c #353534",
"B 	c #262626",
"C 	c #232323",
"D 	c #1A1A1A",
"E 	c #101010",
"F 	c #5C5C5C",
"G 	c #545454",
"H 	c #363634",
"I 	c #1E2223",
"J 	c #191A1D",
"K 	c #1B1B1C",
"L 	c #222222",
"M 	c #232526",
"N 	c #25282C",
"O 	c #272B2E",
"P 	c #282D2F",
"Q 	c #262D30",
"R 	c #2A2B2C",
"S 	c #2B2C29",
"T 	c #2A2A2B",
"U 	c #595959",
"V 	c #434444",
"W 	c #242629",
"X 	c #1D2024",
"Y 	c #323232",
"Z 	c #424242",
"` 	c #5B5B5B",
" .	c #5D5D5D",
"..	c #616161",
"+.	c #656565",
"@.	c #666666",
"#.	c #465259",
"$.	c #26333B",
"%.	c #27292B",
"&.	c #272828",
"*.	c #121212",
"=.	c #363939",
"-.	c #2B2F30",
";.	c #1F2428",
">.	c #686868",
",.	c #7A7A7A",
"'.	c #929292",
").	c #8D8D8D",
"!.	c #858585",
"~.	c #8A8A8A",
"{.	c #878787",
"].	c #808080",
"^.	c #767676",
"/.	c #7E7E7E",
"(.	c #536E78",
"_.	c #233136",
":.	c #2D3132",
"<.	c #2F3333",
"[.	c #141414",
"}.	c #494D4E",
"|.	c #383C3D",
"1.	c #22282B",
"2.	c #636363",
"3.	c #757575",
"4.	c #818181",
"5.	c #9D9D9D",
"6.	c #B8B8B8",
"7.	c #A4A4A4",
"8.	c #8B8B8B",
"9.	c #8E8E8E",
"0.	c #8C8C8C",
"a.	c #7D7D7D",
"b.	c #617178",
"c.	c #202A30",
"d.	c #414546",
"e.	c #47494A",
"f.	c #4E5252",
"g.	c #656A6B",
"h.	c #303537",
"i.	c #787878",
"j.	c #898989",
"k.	c #A0A0A0",
"l.	c #909090",
"m.	c #31444D",
"n.	c #464D50",
"o.	c #65696B",
"p.	c #383939",
"q.	c #3C3C3C",
"r.	c #535555",
"s.	c #6F7374",
"t.	c #2F3031",
"u.	c #7F7F7F",
"v.	c #939393",
"w.	c #959595",
"x.	c #969696",
"y.	c #949494",
"z.	c #6A6A6A",
"A.	c #575C5F",
"B.	c #454D4E",
"C.	c #3E3F3E",
"D.	c #0F0F0F",
"E.	c #484A4B",
"F.	c #5A5E5F",
"G.	c #353B3D",
"H.	c #747474",
"I.	c #868686",
"J.	c #989898",
"K.	c #999999",
"L.	c #9A9A9A",
"M.	c #888888",
"N.	c #7C7C7C",
"O.	c #2E4C5A",
"P.	c #474D4F",
"Q.	c #5A5D5E",
"R.	c #323434",
"S.	c #272727",
"T.	c #4D4E4D",
"U.	c #434545",
"V.	c #353939",
"W.	c #21252A",
"X.	c #353839",
"Y.	c #6D6D6D",
"Z.	c #797979",
"`.	c #9B9B9B",
" +	c #9C9C9C",
".+	c #979797",
"++	c #8F8F8F",
"@+	c #848484",
"#+	c #727272",
"$+	c #73787A",
"%+	c #497181",
"&+	c #2A3237",
"*+	c #383B3C",
"=+	c #3C3E3E",
"-+	c #474747",
";+	c #515151",
">+	c #4E4F4F",
",+	c #3D3F3E",
"'+	c #2D2F30",
")+	c #252829",
"!+	c #253036",
"~+	c #43484B",
"{+	c #717171",
"]+	c #7B7B7B",
"^+	c #6E6E6E",
"/+	c #6B6B6B",
"(+	c #676F71",
"_+	c #597581",
":+	c #2D5362",
"<+	c #292E31",
"[+	c #2E3131",
"}+	c #333434",
"|+	c #2E2F2F",
"1+	c #262B2F",
"2+	c #223139",
"3+	c #283741",
"4+	c #323E45",
"5+	c #3D464A",
"6+	c #464A4C",
"7+	c #4A4B4C",
"8+	c #4B4D4E",
"9+	c #4E5254",
"0+	c #4B5458",
"a+	c #43525A",
"b+	c #3D545E",
"c+	c #335560",
"d+	c #28434E",
"e+	c #272C31",
"f+	c #373737",
"g+	c #484746",
"h+	c #3D3C3C",
"i+	c #2D3031",
"j+	c #242625",
"k+	c #202326",
"l+	c #21262C",
"m+	c #272B30",
"n+	c #2B2F34",
"o+	c #2D3338",
"p+	c #2E3538",
"q+	c #2E3030",
"r+	c #333536",
"s+	c #3C3A39",
"t+	c #3F3F3E",
"u+	c #585858",
"v+	c #535354",
"w+	c #2C2C2C",
"x+	c #565656",
"y+	c #2D2D2D",
"z+	c #1C1C1C",
"                                      . . . . . . . . . . . . . . . . . ",
"                                  . . . . . . . . . . . . . . . . . . . ",
"+ + + + + + + + + + + + + + + + + + + + + + + + + + + + + + + + + + + + ",
"@ @ @ @ @ @ @ @ @ @ @ @ @ @ @ @ @ @ @ @ @ @ @ @ @ @ @ @ @ @ @ @ @ @ @ @ ",
"@ # # # # # # # # # # # # # # # # # # # # # # # # # # # # # # # # # # # ",
"+ @ @ @ # # # # # # # # # # # # # # # # # # # # # # # # # # # # # # # # ",
"# @ @ # $ % & * = - ; > , ' ) ! ~ { ] ^ / ( _ : < [ [ } : : | | | : | | ",
"1 1 $ $ 1 +   2 % 3 & * = 4 5 > , 6 7 ! ~ 8 9 0 a _ : b c c d e d d f e ",
"g 1 1 1 g @ +   h 2 % 3 & * = 4 5 ; i 6 7 ! ~ 8 9 0 a _ } b c j k l d e ",
"m g 1 $ # @ @ +   h h 2 3 3 n o = - 5 > , ' ) p q ] ^ / r | [ c c s ( d ",
"t u g 1 $ @ @ +     h 2 % 3 o - v w x y z ' A 7 ! q 8 B C r D < c E C ( ",
"F m G 1 $ # @ @ + % - H 8 I s J K r L M N O P Q R S T ] ^ / s | b c k q ",
"U u G 1 1 $ @ V ) W X L Y Z . g u g G u `  ...+.@.#.$.%.] &.a _ } *.} < ",
"m G g 1 1 + =.-.;.5 U F >.,.'.).!.~.~.~.~.~.{.].^.^./.(._.:.<.C | [ } [.",
"G g 1 1 @ }.|.1.U 2.3.4.5.6.7.'.8.9.9.9.9.9.9.9.9.0.a.].b.c.d.e.a } c , ",
"1 1 1 1 f.g.h.4 ..i.j.].k.0.l.'.'.'.'.'.'.'.'.'.'.'.l.!.a.m.n.o.p.| *.q.",
"# $ 1 # r.s.t.q.m u.0.9.l.v.w.w.w.w.w.w.x.x.x.x.x.x.y.0.z.A.B.s.C.D [.D.",
"@ # $ 1 E.F.G.q 1 H.I.'.J.J.K.K.K.L.L.L.L.L.L.L.J.v.M.].N.O.P.Q.R._ [ S.",
"@ @ # $ T.U.V.W.X.u Y.Z.!.l.J.L.`. + + +`.`..+++@+,.#+$+%+&+*+=+0 _ [ -+",
"+ @ @ # ;+>+,+'+)+!+~+# U 2.z.{+i.]+N.]+Z.H.^+/+@.(+_+:+<+[+}+{ C _ < ) ",
". + @ @ # ;+1 + - |+1+2+3+4+5+6+7+h + 8+9+0+a+b+c+d+e+~ ' f+Y { L _ 4 l ",
"h + + @ @ # ;+1 g g @ g+h+i+j+k+l+m+n+o+p+[+q+r+s+t+o Z 5 , Y 9 r L ' p ",
"h h . + @ @ ;+1 1 g G m u+u+U U u+G g g v+G g ;+@ . % o 5 f+q ^ w+_ E 7 ",
"% 2 h h + @ @ # ;+1 g g G m u+u+u+u+u+u+u+m g 1 @ . -+Z i ~ s C ^ ^ ^ ^ ",
"n & -+% 2 2 h . + @ # ;+1 1 g G G m m x+g 1 ;+@ h & - f+y+C D D D D D D ",
"5 - = = Z Z o o o n & -+% % 2 h h h h h 2 2 -+-+& & % % % % -+-+-+% % % ",
"! p q y+w+q q y+y+{ { { { { { { { { { { { { { { { { { { { { { { { { { { ",
"S.S.S.^ ^ ^ ^ ^ ^ ^ ^ ^ ^ ^ ^ ^ ^ ^ ^ ^ ^ ^ ^ ^ ^ ^ ^ ^ ^ S.S.S.S.S.S.S.",
"C C C C C C C C C C C C C C C C C C C C C C C C C C C C C C C C C C C C ",
"( ( ( ( ( ( ( ( ( ( ( ( ( ( ( ( ( ( ( ( ( ( ( ( ( ( ( ( ( ( ( ( ( ( ( ( ",
"_ _ _ _ _ _ _ _ _ _ _ _ _ _ _ _ _ _ _ _ _ _ _ _ _ _ _ _ _ z+z+z+z+z+z+z+",
"| | | | | | | | | | | | | | | | | | | | | | | | | | | | | | | | | | | | "};
