/* XPM */
static char * close_active_xpm[] = {
"36 32 333 2",
"  	c #4B4B4B",
". 	c #4C4C4C",
"+ 	c #4D4D4D",
"@ 	c #4E4E4E",
"# 	c #4F4F4F",
"$ 	c #505050",
"% 	c #484848",
"& 	c #454545",
"* 	c #414141",
"= 	c #404040",
"- 	c #3E3E3E",
"; 	c #3B3B3B",
"> 	c #3A3A3A",
", 	c #383838",
"' 	c #353535",
") 	c #333333",
"! 	c #313131",
"~ 	c #2F2F2F",
"{ 	c #2B2B2B",
"] 	c #292929",
"^ 	c #252525",
"/ 	c #212121",
"( 	c #1F1F1F",
"_ 	c #1B1B1B",
": 	c #181818",
"< 	c #161616",
"[ 	c #151515",
"} 	c #171717",
"| 	c #191919",
"1 	c #525252",
"2 	c #494949",
"3 	c #464646",
"4 	c #3F3F3F",
"5 	c #3D3D3D",
"6 	c #363636",
"7 	c #343434",
"8 	c #2A2A2A",
"9 	c #282828",
"0 	c #242424",
"a 	c #202020",
"b 	c #131313",
"c 	c #111111",
"d 	c #070707",
"e 	c #080808",
"f 	c #020202",
"g 	c #535353",
"h 	c #4A4A4A",
"i 	c #393939",
"j 	c #0E0E0E",
"k 	c #0D0D0D",
"l 	c #0B0B0B",
"m 	c #575757",
"n 	c #444444",
"o 	c #434343",
"p 	c #303030",
"q 	c #2E2E2E",
"r 	c #1E1E1E",
"s 	c #1D1D1D",
"t 	c #5A5A5A",
"u 	c #555555",
"v 	c #393A3B",
"w 	c #363637",
"x 	c #343535",
"y 	c #343435",
"z 	c #353536",
"A 	c #353534",
"B 	c #262626",
"C 	c #232323",
"D 	c #1A1A1A",
"E 	c #101010",
"F 	c #5C5C5C",
"G 	c #545454",
"H 	c #363634",
"I 	c #1D2224",
"J 	c #1B1C1B",
"K 	c #161B20",
"L 	c #0F1C25",
"M 	c #0E1D27",
"N 	c #0D1F28",
"O 	c #0E1F2A",
"P 	c #0F1D28",
"Q 	c #191C22",
"R 	c #1C1F20",
"S 	c #1F2426",
"T 	c #282827",
"U 	c #2B2C29",
"V 	c #2A2A2B",
"W 	c #595959",
"X 	c #434444",
"Y 	c #242629",
"Z 	c #1A2127",
"` 	c #13272E",
" .	c #143D4C",
"..	c #1F5667",
"+.	c #286A7C",
"@.	c #2D768A",
"#.	c #307F93",
"$.	c #2E7C91",
"%.	c #2F7F94",
"&.	c #2E7C93",
"*.	c #307F96",
"=.	c #317E94",
"-.	c #30798F",
";.	c #2A6C82",
">.	c #235C70",
",.	c #1E4251",
"'.	c #1E2B34",
").	c #27292B",
"!.	c #272828",
"~.	c #121212",
"{.	c #363939",
"].	c #2B2F30",
"^.	c #1A262C",
"/.	c #2F7387",
"(.	c #3EA0B6",
"_.	c #3BA3B6",
":.	c #3FAEBC",
"<.	c #6DBBC1",
"[.	c #A7D3D5",
"}.	c #96CDCE",
"|.	c #4DC9CA",
"1.	c #4CD1D1",
"2.	c #4BD1D1",
"3.	c #4BD0D1",
"4.	c #4ACCD0",
"5.	c #47C5CE",
"6.	c #42B6C6",
"7.	c #3BA0AF",
"8.	c #358D9C",
"9.	c #317A8B",
"0.	c #1B4A59",
"a.	c #202F34",
"b.	c #2D3132",
"c.	c #2F3333",
"d.	c #141414",
"e.	c #494D4E",
"f.	c #383C3D",
"g.	c #162B36",
"h.	c #2F7688",
"i.	c #3FACC0",
"j.	c #45C0C1",
"k.	c #4DCACA",
"l.	c #C7DBDC",
"m.	c #F9FAFA",
"n.	c #D4E4E5",
"o.	c #95D4D4",
"p.	c #51D1D1",
"q.	c #50D6D6",
"r.	c #4FD6D6",
"s.	c #4DD6D6",
"t.	c #4CD6D6",
"u.	c #4CD3D6",
"v.	c #4BD2D6",
"w.	c #49CAD2",
"x.	c #40B1C1",
"y.	c #3999AC",
"z.	c #337F93",
"A.	c #1E292F",
"B.	c #414546",
"C.	c #47494A",
"D.	c #4E5252",
"E.	c #656A6B",
"F.	c #2C363A",
"G.	c #1F5366",
"H.	c #3895AB",
"I.	c #49C6C6",
"J.	c #52DADA",
"K.	c #61C5C5",
"L.	c #CADFE0",
"M.	c #7FD2D2",
"N.	c #53DADA",
"O.	c #52DCDC",
"P.	c #51DCDC",
"Q.	c #50DCDC",
"R.	c #4EDBDC",
"S.	c #4DD7DC",
"T.	c #4CD5DC",
"U.	c #4CD4DC",
"V.	c #4BCFD9",
"W.	c #42B7C9",
"X.	c #3DA1B7",
"Y.	c #184656",
"Z.	c #464D50",
"`.	c #65696B",
" +	c #383939",
".+	c #3C3C3C",
"++	c #535555",
"@+	c #6F7374",
"#+	c #263236",
"$+	c #225971",
"%+	c #30849C",
"&+	c #50D3D3",
"*+	c #55DFDF",
"=+	c #55E0E0",
"-+	c #55E1E1",
";+	c #56E1E1",
">+	c #54E1E1",
",+	c #53E1E1",
"'+	c #52E1E1",
")+	c #52E2E2",
"!+	c #51E2E2",
"~+	c #50E1E2",
"{+	c #4FDDE2",
"]+	c #4EDAE2",
"^+	c #4DD7E2",
"/+	c #4BD1DE",
"(+	c #44BFD4",
"_+	c #3BA0B3",
":+	c #266278",
"<+	c #454D4E",
"[+	c #3E3F3E",
"}+	c #0F0F0F",
"|+	c #484A4B",
"1+	c #5A5E5F",
"2+	c #343B3E",
"3+	c #163E50",
"4+	c #317F95",
"5+	c #49C2C6",
"6+	c #4ED1D1",
"7+	c #54DFDF",
"8+	c #57E6E6",
"9+	c #56E7E7",
"0+	c #55E7E7",
"a+	c #54E7E7",
"b+	c #53E7E7",
"c+	c #52E7E7",
"d+	c #51E6E7",
"e+	c #50E3E5",
"f+	c #4EDADD",
"g+	c #47C7CE",
"h+	c #3FACBF",
"i+	c #3C9EB5",
"j+	c #1E4D5F",
"k+	c #474D4F",
"l+	c #5A5D5E",
"m+	c #323434",
"n+	c #272727",
"o+	c #4D4E4D",
"p+	c #434545",
"q+	c #353939",
"r+	c #20272D",
"s+	c #1D495A",
"t+	c #3A9AB1",
"u+	c #42AEBA",
"v+	c #49BDBD",
"w+	c #4DCBCB",
"x+	c #51DADA",
"y+	c #55E4E4",
"z+	c #57E8E8",
"A+	c #57EAEA",
"B+	c #57EBEB",
"C+	c #55EAEA",
"D+	c #55E8E8",
"E+	c #52E3E3",
"F+	c #4ED7D8",
"G+	c #4AC4C7",
"H+	c #45B2BA",
"I+	c #3DA1B1",
"J+	c #348496",
"K+	c #31768D",
"L+	c #2A3237",
"M+	c #383B3C",
"N+	c #3C3E3E",
"O+	c #474747",
"P+	c #515151",
"Q+	c #4E4F4F",
"R+	c #3D3F3E",
"S+	c #2D2F30",
"T+	c #242627",
"U+	c #1B333E",
"V+	c #255E70",
"W+	c #307888",
"X+	c #3A8495",
"Y+	c #4694A3",
"Z+	c #4B9DAC",
"`+	c #4FA9B2",
" @	c #51B3B9",
".@	c #52B8BC",
"+@	c #52B9BC",
"@@	c #52B6BA",
"#@	c #50AEB4",
"$@	c #4CA5AE",
"%@	c #47A1AF",
"&@	c #409AAC",
"*@	c #3993A9",
"=@	c #36829B",
"-@	c #285264",
";@	c #292E31",
">@	c #2E3131",
",@	c #333434",
"'@	c #2E2F2F",
")@	c #242628",
"!@	c #1E2425",
"~@	c #142933",
"{@	c #153848",
"]@	c #1E4B5E",
"^@	c #285E72",
"/@	c #326A7F",
"(@	c #366F83",
"_@	c #3A7488",
":@	c #387489",
"<@	c #37788E",
"[@	c #32758E",
"}@	c #2F7087",
"|@	c #28627A",
"1@	c #265469",
"2@	c #243843",
"3@	c #26292D",
"4@	c #373737",
"5@	c #323232",
"6@	c #222222",
"7@	c #484746",
"8@	c #3F3E3E",
"9@	c #313434",
"0@	c #282925",
"a@	c #202022",
"b@	c #1A1F25",
"c@	c #171B21",
"d@	c #151C22",
"e@	c #191E25",
"f@	c #1B2129",
"g@	c #232423",
"h@	c #282A28",
"i@	c #323435",
"j@	c #3C3A39",
"k@	c #3F3F3E",
"l@	c #424242",
"m@	c #585858",
"n@	c #535354",
"o@	c #2C2C2C",
"p@	c #565656",
"q@	c #2D2D2D",
"r@	c #1C1C1C",
"                                      . . . . . . . . . . . . . . . . . ",
"                                  . . . . . . . . . . . . . . . . . . . ",
"+ + + + + + + + + + + + + + + + + + + + + + + + + + + + + + + + + + + + ",
"@ @ @ @ @ @ @ @ @ @ @ @ @ @ @ @ @ @ @ @ @ @ @ @ @ @ @ @ @ @ @ @ @ @ @ @ ",
"@ # # # # # # # # # # # # # # # # # # # # # # # # # # # # # # # # # # # ",
"+ @ @ @ # # # # # # # # # # # # # # # # # # # # # # # # # # # # # # # # ",
"# @ @ # $ % & * = - ; > , ' ) ! ~ { ] ^ / ( _ : < [ [ } : : | | | : | | ",
"1 1 $ $ 1 +   2 % 3 & * = 4 5 > , 6 7 ! ~ 8 9 0 a _ : b c c d e d d f e ",
"g 1 1 1 g @ +   h 2 % 3 & * = 4 5 ; i 6 7 ! ~ 8 9 0 a _ } b c j k l d e ",
"m g 1 $ # @ @ +   h h 2 3 3 n o = - 5 > , ' ) p q ] ^ / r | [ c c s ( d ",
"t u g 1 $ @ @ +     h 2 % 3 o - v w x y z ' A 7 ! q 8 B C r D < c E C ( ",
"F m G 1 $ # @ @ + % - H 8 I J K L M N O P Q R S T U V ] ^ / s | b c k q ",
"W u G 1 1 $ @ X ) Y Z `  ...+.@.#.$.%.&.*.=.-.;.>.,.'.).] !.a _ } ~.} < ",
"m G g 1 1 + {.].^./.(._.:.<.[.}.|.1.2.2.3.4.5.6.7.8.9.0.a.b.c.C | [ } d.",
"G g 1 1 @ e.f.g.h.i.j.k.l.m.n.o.p.q.r.r.r.s.t.u.v.w.x.y.z.A.B.C.a } c , ",
"1 1 1 1 D.E.F.G.H.I.J.K.L.M.N.O.O.P.P.P.Q.Q.R.S.T.U.V.W.X.Y.Z.`. +| ~..+",
"# $ 1 # ++@+#+$+%+&+*+=+-+;+-+>+,+,+,+'+)+!+~+{+]+^+/+(+_+:+<+@+[+D d.}+",
"@ # $ 1 |+1+2+3+4+5+6+7+8+9+9+9+0+0+a+a+b+b+c+d+e+f+g+h+i+j+k+l+m+_ [ n+",
"@ @ # $ o+p+q+r+s+t+u+v+w+x+y+z+A+B+B+B+C+D+E+F+G+H+I+J+K+L+M+N+0 _ [ O+",
"+ @ @ # P+Q+R+S+T+U+V+W+X+Y+Z+`+ @.@+@+@@@#@$@%@&@*@=@-@;@>@,@{ C _ < ) ",
". + @ @ # P+1 + - '@)@!@~@{@]@^@/@(@_@:@<@[@}@|@1@2@3@~ ' 4@5@{ 6@_ 4 l ",
"h + + @ @ # P+1 g g @ 7@8@9@0@a@b@c@d@e@f@g@h@i@j@k@o l@5 , 5@9 r 6@' p ",
"h h . + @ @ P+1 1 g G m m@m@W W m@G g g n@G g P+@ . % o 5 4@q ^ o@_ E 7 ",
"% 2 h h + @ @ # P+1 g g G m m@m@m@m@m@m@m@m g 1 @ . O+l@i ~ s C ^ ^ ^ ^ ",
"n & O+% 2 2 h . + @ # P+1 1 g G G m m p@g 1 P+@ h & - 4@q@C D D D D D D ",
"5 - = = l@l@o o o n & O+% % 2 h h h h h 2 2 O+O+& & % % % % O+O+O+% % % ",
"! p q q@o@q q q@q@{ { { { { { { { { { { { { { { { { { { { { { { { { { { ",
"n+n+n+^ ^ ^ ^ ^ ^ ^ ^ ^ ^ ^ ^ ^ ^ ^ ^ ^ ^ ^ ^ ^ ^ ^ ^ ^ ^ n+n+n+n+n+n+n+",
"C C C C C C C C C C C C C C C C C C C C C C C C C C C C C C C C C C C C ",
"( ( ( ( ( ( ( ( ( ( ( ( ( ( ( ( ( ( ( ( ( ( ( ( ( ( ( ( ( ( ( ( ( ( ( ( ",
"_ _ _ _ _ _ _ _ _ _ _ _ _ _ _ _ _ _ _ _ _ _ _ _ _ _ _ _ _ r@r@r@r@r@r@r@",
"| | | | | | | | | | | | | | | | | | | | | | | | | | | | | | | | | | | | "};
