/* XPM */
static char * hide_active_xpm[] = {
"36 32 332 2",
"  	c #4C4C4C",
". 	c #4B4B4B",
"+ 	c #4D4D4D",
"@ 	c #4E4E4E",
"# 	c #4F4F4F",
"$ 	c #4A4A4A",
"% 	c #494949",
"& 	c #484848",
"* 	c #464646",
"= 	c #181818",
"- 	c #191919",
"; 	c #171717",
"> 	c #151515",
", 	c #161616",
"' 	c #1B1B1B",
") 	c #1F1F1F",
"! 	c #212121",
"~ 	c #252525",
"{ 	c #292929",
"] 	c #2B2B2B",
"^ 	c #2F2F2F",
"/ 	c #313131",
"( 	c #333333",
"_ 	c #353535",
": 	c #383838",
"< 	c #3A3A3A",
"[ 	c #3B3B3B",
"} 	c #3E3E3E",
"| 	c #404040",
"1 	c #414141",
"2 	c #454545",
"3 	c #505050",
"4 	c #111111",
"5 	c #131313",
"6 	c #202020",
"7 	c #242424",
"8 	c #282828",
"9 	c #2A2A2A",
"0 	c #343434",
"a 	c #363636",
"b 	c #3D3D3D",
"c 	c #3F3F3F",
"d 	c #525252",
"e 	c #020202",
"f 	c #060606",
"g 	c #070707",
"h 	c #0C0C0C",
"i 	c #0F0F0F",
"j 	c #393939",
"k 	c #535353",
"l 	c #0B0B0B",
"m 	c #0A0A0A",
"n 	c #1E1E1E",
"o 	c #2E2E2E",
"p 	c #303030",
"q 	c #434343",
"r 	c #444444",
"s 	c #575757",
"t 	c #1A1A1A",
"u 	c #232323",
"v 	c #262626",
"w 	c #353534",
"x 	c #353536",
"y 	c #343435",
"z 	c #343535",
"A 	c #363637",
"B 	c #393A3B",
"C 	c #555555",
"D 	c #5A5A5A",
"E 	c #0E0E0E",
"F 	c #1D1D1D",
"G 	c #2A2A2B",
"H 	c #2B2C29",
"I 	c #282827",
"J 	c #1F2426",
"K 	c #1C1F20",
"L 	c #191C22",
"M 	c #0F1D28",
"N 	c #0E1F2A",
"O 	c #0D1F28",
"P 	c #0E1D27",
"Q 	c #0F1C25",
"R 	c #161B20",
"S 	c #1B1C1B",
"T 	c #1D2224",
"U 	c #363634",
"V 	c #545454",
"W 	c #5C5C5C",
"X 	c #121212",
"Y 	c #272828",
"Z 	c #27292B",
"` 	c #1E2B34",
" .	c #1E4251",
"..	c #235C70",
"+.	c #2A6C82",
"@.	c #30798F",
"#.	c #317E94",
"$.	c #307F96",
"%.	c #2E7C93",
"&.	c #2F7F94",
"*.	c #2E7C91",
"=.	c #307F93",
"-.	c #2D768A",
";.	c #286A7C",
">.	c #1F5667",
",.	c #143D4C",
"'.	c #13272E",
").	c #1A2127",
"!.	c #242629",
"~.	c #434444",
"{.	c #595959",
"].	c #2F3333",
"^.	c #2D3132",
"/.	c #202F34",
"(.	c #2F7387",
"_.	c #3EA0B6",
":.	c #3BA3B6",
"<.	c #3FAEBC",
"[.	c #6DBBC1",
"}.	c #A7D3D5",
"|.	c #96CDCE",
"1.	c #4DC9CA",
"2.	c #4CD1D1",
"3.	c #4BD1D1",
"4.	c #4BD0D1",
"5.	c #4ACCD0",
"6.	c #47C5CE",
"7.	c #42B6C6",
"8.	c #3BA0AF",
"9.	c #358D9C",
"0.	c #317A8B",
"a.	c #1B4A59",
"b.	c #1A262C",
"c.	c #2B2F30",
"d.	c #363939",
"e.	c #373737",
"f.	c #47494A",
"g.	c #414546",
"h.	c #1E292F",
"i.	c #337F93",
"j.	c #3FACC0",
"k.	c #45C0C1",
"l.	c #4DCACA",
"m.	c #C7DBDC",
"n.	c #F9FAFA",
"o.	c #D4E4E5",
"p.	c #95D4D4",
"q.	c #51D1D1",
"r.	c #50D6D6",
"s.	c #4FD6D6",
"t.	c #4DD6D6",
"u.	c #4CD6D6",
"v.	c #4CD3D6",
"w.	c #4BD2D6",
"x.	c #49CAD2",
"y.	c #40B1C1",
"z.	c #3999AC",
"A.	c #2F7688",
"B.	c #162B36",
"C.	c #383C3D",
"D.	c #494D4E",
"E.	c #383939",
"F.	c #65696B",
"G.	c #464D50",
"H.	c #184656",
"I.	c #3DA1B7",
"J.	c #49C6C6",
"K.	c #52DADA",
"L.	c #61C5C5",
"M.	c #CADFE0",
"N.	c #7FD2D2",
"O.	c #53DADA",
"P.	c #52DCDC",
"Q.	c #51DCDC",
"R.	c #50DCDC",
"S.	c #4EDBDC",
"T.	c #4DD7DC",
"U.	c #4CD5DC",
"V.	c #4CD4DC",
"W.	c #4BCFD9",
"X.	c #42B7C9",
"Y.	c #3895AB",
"Z.	c #1F5366",
"`.	c #2C363A",
" +	c #656A6B",
".+	c #4E5252",
"++	c #141414",
"@+	c #3E3F3E",
"#+	c #6F7374",
"$+	c #454D4E",
"%+	c #266278",
"&+	c #3BA0B3",
"*+	c #50D3D3",
"=+	c #55DFDF",
"-+	c #55E0E0",
";+	c #55E1E1",
">+	c #56E1E1",
",+	c #54E1E1",
"'+	c #53E1E1",
")+	c #52E1E1",
"!+	c #52E2E2",
"~+	c #51E2E2",
"{+	c #50E1E2",
"]+	c #4FDDE2",
"^+	c #4EDAE2",
"/+	c #4DD7E2",
"(+	c #4BD1DE",
"_+	c #44BFD4",
":+	c #30849C",
"<+	c #225971",
"[+	c #263236",
"}+	c #535555",
"|+	c #323434",
"1+	c #5A5D5E",
"2+	c #474D4F",
"3+	c #1E4D5F",
"4+	c #3C9EB5",
"5+	c #49C2C6",
"6+	c #4ED1D1",
"7+	c #54DFDF",
"8+	c #57E6E6",
"9+	c #56E7E7",
"0+	c #55E7E7",
"a+	c #54E7E7",
"b+	c #53E7E7",
"c+	c #52E7E7",
"d+	c #51E6E7",
"e+	c #50E3E5",
"f+	c #4EDADD",
"g+	c #47C7CE",
"h+	c #3FACBF",
"i+	c #317F95",
"j+	c #163E50",
"k+	c #343B3E",
"l+	c #5A5E5F",
"m+	c #484A4B",
"n+	c #474747",
"o+	c #3C3E3E",
"p+	c #383B3C",
"q+	c #2A3237",
"r+	c #31768D",
"s+	c #3A9AB1",
"t+	c #42AEBA",
"u+	c #49BDBD",
"v+	c #4DCBCB",
"w+	c #51DADA",
"x+	c #55E4E4",
"y+	c #57E8E8",
"z+	c #57EAEA",
"A+	c #57EBEB",
"B+	c #55EAEA",
"C+	c #55E8E8",
"D+	c #52E3E3",
"E+	c #4ED7D8",
"F+	c #4AC4C7",
"G+	c #45B2BA",
"H+	c #3DA1B1",
"I+	c #348496",
"J+	c #1D495A",
"K+	c #20272D",
"L+	c #353939",
"M+	c #434545",
"N+	c #4D4E4D",
"O+	c #222222",
"P+	c #333434",
"Q+	c #2E3131",
"R+	c #292E31",
"S+	c #285264",
"T+	c #36829B",
"U+	c #3993A9",
"V+	c #409AAC",
"W+	c #47A1AF",
"X+	c #4CA5AE",
"Y+	c #50AEB4",
"Z+	c #52B6BA",
"`+	c #52B9BC",
" @	c #52B8BC",
".@	c #51B3B9",
"+@	c #4FA9B2",
"@@	c #4B9DAC",
"#@	c #4694A3",
"$@	c #3A8495",
"%@	c #307888",
"&@	c #255E70",
"*@	c #1B333E",
"=@	c #242627",
"-@	c #2D2F30",
";@	c #3D3F3E",
">@	c #4E4F4F",
",@	c #515151",
"'@	c #1C1C1C",
")@	c #323232",
"!@	c #26292D",
"~@	c #243843",
"{@	c #265469",
"]@	c #28627A",
"^@	c #2F7087",
"/@	c #32758E",
"(@	c #37788E",
"_@	c #387489",
":@	c #3A7488",
"<@	c #366F83",
"[@	c #326A7F",
"}@	c #285E72",
"|@	c #1E4B5E",
"1@	c #153848",
"2@	c #142933",
"3@	c #1E2425",
"4@	c #242628",
"5@	c #2E2F2F",
"6@	c #424242",
"7@	c #3F3F3E",
"8@	c #3C3A39",
"9@	c #323435",
"0@	c #282A28",
"a@	c #232423",
"b@	c #1B2129",
"c@	c #191E25",
"d@	c #151C22",
"e@	c #171B21",
"f@	c #1A1F25",
"g@	c #202022",
"h@	c #282925",
"i@	c #313434",
"j@	c #3F3E3E",
"k@	c #484746",
"l@	c #535354",
"m@	c #585858",
"n@	c #101010",
"o@	c #2D2D2D",
"p@	c #565656",
"q@	c #272727",
"            . . . . . . . . . . . . . . . . . . . . . . . . . . . . . . ",
"            . . . . . . . . . . . . . . . . . . . . . . . . . . . . . . ",
"+ + + + + + + + + + + + + + + + + + + + + + + + + + +                   ",
"@ @ @ @ @ @ @ @ @ @ @ @ @ @ @ @ @ @ @ @ @ @ @ @ @ @ @ @ @ @ @ @ @ @ @ @ ",
"# # # # # # # # # # # # # # # # # # # # # # # # # # # # # # # # # # # # ",
"# # # # # # # # # # # # # # @ + . . $ $ % % % % % % % & & & * * * * * & ",
"= - - - - - = = ; > > , = ' ) ! ~ { ] ^ / ( _ : < [ } | 1 2 & % . + @ 3 ",
"= = - = = > 4 4 5 = ' 6 7 8 9 ^ / 0 a : < b c | 1 2 * & % . + @ # 3 d d ",
"e f g h i 4 5 ; ' 6 7 8 9 ^ / 0 a j [ b c | 1 2 * & % $ . + @ @ 3 d d k ",
"g l m 4 4 > - n ! ~ { o p ( _ : < b } | q r * * % $ $ . + @ @ # 3 d k s ",
") ) = 4 , t n u v 9 o / 0 w _ x y z A B } q * & % $ . . + @ @ 3 d k C D ",
"u E 4 5 - F ! ~ { G H I J K L M N O P Q R S T 9 U } & + @ @ # 3 d V s W ",
"l ; X ; ' 6 Y { Z `  ...+.@.#.$.%.&.*.=.-.;.>.,.'.).!.( ~.@ 3 d d V C {.",
"F = > - u ].^./.(._.:.<.[.}.|.1.2.3.3.4.5.6.7.8.9.0.a.b.c.d.+ d d k V s ",
"e.4 ; 6 f.g.h.i.j.k.l.m.n.o.p.q.r.s.s.s.t.u.v.w.x.y.z.A.B.C.D.@ d d k V ",
"o X - E.F.G.H.I.J.K.L.M.N.O.P.P.Q.Q.Q.R.R.S.T.U.V.W.X.Y.Z.`. +.+d d d d ",
"++++t @+#+$+%+&+*+=+-+;+>+;+,+'+'+'+)+!+~+{+]+^+/+(+_+:+<+[+#+}+# d 3 # ",
"j ; ' |+1+2+3+4+5+6+7+8+9+9+9+0+0+a+a+b+b+c+d+e+f+g+h+i+j+k+l+m+d 3 # @ ",
"n+; ' 7 o+p+q+r+s+t+u+v+w+x+y+z+A+A+A+B+C+D+E+F+G+H+I+J+K+L+M+N+3 # @ @ ",
"O+; ' u ] P+Q+R+S+T+U+V+W+X+Y+Z+`+`+ @.@+@@@#@$@%@&@*@=@-@;@>@,@# @ @ + ",
"4 ( '@O+] )@e._ ^ !@~@{@]@^@/@(@_@:@<@[@}@|@1@2@3@4@5@} + d ,@# @ @ +   ",
"} j ~ '@8 )@: b 6@q 7@8@9@0@a@b@c@d@e@f@g@h@i@j@k@@ k k d ,@# @ @ + + $ ",
"_ , > p { o e.b q &   @ ,@k V l@k k V m@{.{.m@m@s V k d d ,@@ @ +   $ $ ",
"n@' { 0 4 F ^ j 6@n+  @ d k s m@m@m@m@m@m@m@s V k k d ,@# @ @ + $ $ % & ",
"n ! u ! n ! u o@e.} 2 $ @ ,@d k p@s s V V k d d ,@# @ +   $ % % & n+2 r ",
"n+n+n+n+n+n+& & & & 2 2 n+n+% % $ $ $ $ $ % & & n+2 r q q q 6@6@| | } b ",
"] ] ] ] ] ] ] ] ] ] ] ] ] ] ] ] ] ] ] ] ] ] ] ] ] ] ] o@o@o o ^ p p )@)@",
"q@q@q@q@q@q@v v v v v v v v v v v v v v v v v v v v v v v v v v v v v v ",
"u u u u u u u u u u u u u u u u u u u u u u u u u u u u u u u u u u u u ",
") ) ) ) ) ) ) ) ) ) ) ) ) ) ) ) ) ) ) ) ) ) ) ) ) ) ) ) ) ) ) ) ) ) ) ) ",
"'@'@'@'@'@'@' ' ' ' ' ' ' ' ' ' ' ' ' ' ' ' ' ' ' ' ' ' ' ' ' ' ' ' ' ' ",
"- - - - - - - - - - - - - - - - - - - - - - - - - - - - - - - - - - - - "};
