/* XPM */
static char * hide_prelight_xpm[] = {
"36 32 299 2",
"  	c #4C4C4C",
". 	c #4B4B4B",
"+ 	c #4D4D4D",
"@ 	c #4E4E4E",
"# 	c #4F4F4F",
"$ 	c #4A4A4A",
"% 	c #494949",
"& 	c #484848",
"* 	c #464646",
"= 	c #181818",
"- 	c #191919",
"; 	c #171717",
"> 	c #151515",
", 	c #161616",
"' 	c #1B1B1B",
") 	c #1F1F1F",
"! 	c #212121",
"~ 	c #252525",
"{ 	c #292929",
"] 	c #2B2B2B",
"^ 	c #2F2F2F",
"/ 	c #313131",
"( 	c #333333",
"_ 	c #353535",
": 	c #383838",
"< 	c #3A3A3A",
"[ 	c #3B3B3B",
"} 	c #3E3E3E",
"| 	c #404040",
"1 	c #414141",
"2 	c #454545",
"3 	c #505050",
"4 	c #070707",
"5 	c #0B0B0B",
"6 	c #111111",
"7 	c #131313",
"8 	c #202020",
"9 	c #242424",
"0 	c #282828",
"a 	c #2A2A2A",
"b 	c #343434",
"c 	c #363636",
"d 	c #3D3D3D",
"e 	c #3F3F3F",
"f 	c #525252",
"g 	c #020202",
"h 	c #060606",
"i 	c #0C0C0C",
"j 	c #0F0F0F",
"k 	c #393939",
"l 	c #535353",
"m 	c #0A0A0A",
"n 	c #1E1E1E",
"o 	c #2E2E2E",
"p 	c #303030",
"q 	c #434343",
"r 	c #444444",
"s 	c #575757",
"t 	c #1A1A1A",
"u 	c #232323",
"v 	c #262626",
"w 	c #353534",
"x 	c #353536",
"y 	c #343435",
"z 	c #343535",
"A 	c #363637",
"B 	c #393A3B",
"C 	c #555555",
"D 	c #5A5A5A",
"E 	c #0E0E0E",
"F 	c #1D1D1D",
"G 	c #2A2A2B",
"H 	c #2B2C29",
"I 	c #282827",
"J 	c #1F2426",
"K 	c #1C1F20",
"L 	c #191C22",
"M 	c #0F1D28",
"N 	c #0E1F2A",
"O 	c #0D1F28",
"P 	c #0E1D27",
"Q 	c #0F1C25",
"R 	c #161B20",
"S 	c #1B1C1B",
"T 	c #1D2224",
"U 	c #363634",
"V 	c #545454",
"W 	c #5C5C5C",
"X 	c #121212",
"Y 	c #272828",
"Z 	c #27292B",
"` 	c #1E2B34",
" .	c #1E4251",
"..	c #225B6F",
"+.	c #2B7C90",
"@.	c #37A1B3",
"#.	c #40BFCD",
"$.	c #4CD2DE",
"%.	c #57DCE5",
"&.	c #57DFE8",
"*.	c #53DBE5",
"=.	c #4AD0DC",
"-.	c #40BBCC",
";.	c #339EAF",
">.	c #2C7B8B",
",.	c #1D505E",
"'.	c #13272E",
").	c #1A2127",
"!.	c #242629",
"~.	c #434444",
"{.	c #595959",
"].	c #2F3333",
"^.	c #2D3132",
"/.	c #202F34",
"(.	c #2F7387",
"_.	c #40A8BC",
":.	c #5AD4E1",
"<.	c #81EDF2",
"[.	c #8CF2F7",
"}.	c #93F5FA",
"|.	c #97F7FB",
"1.	c #99F8FC",
"2.	c #9BF8FC",
"3.	c #9DF8FC",
"4.	c #96F7FB",
"5.	c #89F5FA",
"6.	c #7EF0F7",
"7.	c #5ED6E3",
"8.	c #3D98AB",
"9.	c #1B4B5A",
"0.	c #1A262C",
"a.	c #2B2F30",
"b.	c #363939",
"c.	c #373737",
"d.	c #47494A",
"e.	c #414546",
"f.	c #1E292F",
"g.	c #338094",
"h.	c #57D6E7",
"i.	c #8AF3F7",
"j.	c #93F6FA",
"k.	c #95F7FB",
"l.	c #97F7FC",
"m.	c #97F8FC",
"n.	c #9FF8FC",
"o.	c #A0F9FD",
"p.	c #A2F9FD",
"q.	c #A4F9FD",
"r.	c #98F8FD",
"s.	c #91F8FD",
"t.	c #8AF5FA",
"u.	c #5CD5E5",
"v.	c #31798B",
"w.	c #162B36",
"x.	c #383C3D",
"y.	c #494D4E",
"z.	c #383939",
"A.	c #65696B",
"B.	c #464D50",
"C.	c #184656",
"D.	c #4CC8DB",
"E.	c #86F1F7",
"F.	c #8EF5FA",
"G.	c #8EF6FB",
"H.	c #91F6FB",
"I.	c #93F7FB",
"J.	c #9DF9FC",
"K.	c #9FF9FD",
"L.	c #A7F9FD",
"M.	c #94F8FD",
"N.	c #92F8FD",
"O.	c #8FF7FC",
"P.	c #54CADD",
"Q.	c #1F5366",
"R.	c #2C363A",
"S.	c #656A6B",
"T.	c #4E5252",
"U.	c #141414",
"V.	c #3E3F3E",
"W.	c #6F7374",
"X.	c #454D4E",
"Y.	c #266278",
"Z.	c #4EDDE9",
"`.	c #81F1F8",
" +	c #88F5F9",
".+	c #8BF5FA",
"++	c #91F7FC",
"@+	c #95F8FC",
"#+	c #9BF9FC",
"$+	c #9DF9FD",
"%+	c #A4F9FC",
"&+	c #A6F8FC",
"*+	c #92F7FC",
"=+	c #7BEDF5",
"-+	c #225971",
";+	c #263236",
">+	c #535555",
",+	c #323434",
"'+	c #5A5D5E",
")+	c #474D4F",
"!+	c #1E4D5F",
"~+	c #42BAD0",
"{+	c #7EF0F6",
"]+	c #91F7FB",
"^+	c #91F8FC",
"/+	c #93F8FC",
"(+	c #A2F8FC",
"_+	c #8DF5FB",
":+	c #52C3D7",
"<+	c #163E50",
"[+	c #343B3E",
"}+	c #5A5E5F",
"|+	c #484A4B",
"1+	c #474747",
"2+	c #3C3E3E",
"3+	c #383B3C",
"4+	c #2A3237",
"5+	c #2E7288",
"6+	c #4CC3D5",
"7+	c #85F0F6",
"8+	c #A0F8FC",
"9+	c #95F7FC",
"0+	c #8DF6FB",
"a+	c #84F2F8",
"b+	c #51C8DB",
"c+	c #225768",
"d+	c #20272D",
"e+	c #353939",
"f+	c #434545",
"g+	c #4D4E4D",
"h+	c #222222",
"i+	c #333434",
"j+	c #2E3131",
"k+	c #292E31",
"l+	c #285264",
"m+	c #378BA2",
"n+	c #4AC6D5",
"o+	c #70E6ED",
"p+	c #81EEF4",
"q+	c #8CF1F8",
"r+	c #93F5F9",
"s+	c #97F6FB",
"t+	c #99F7FB",
"u+	c #9BF7FC",
"v+	c #9BF7FB",
"w+	c #99F6FB",
"x+	c #92F4FA",
"y+	c #83F1F7",
"z+	c #77ECF4",
"A+	c #54CBDB",
"B+	c #328195",
"C+	c #1B343F",
"D+	c #242627",
"E+	c #2D2F30",
"F+	c #3D3F3E",
"G+	c #4E4F4F",
"H+	c #515151",
"I+	c #1C1C1C",
"J+	c #323232",
"K+	c #26292D",
"L+	c #243843",
"M+	c #265469",
"N+	c #297288",
"O+	c #3197AB",
"P+	c #39B5C7",
"Q+	c #40CBD8",
"R+	c #4CD6E2",
"S+	c #53DAE6",
"T+	c #50D6E1",
"U+	c #4AC7D6",
"V+	c #3DADBD",
"W+	c #2D8699",
"X+	c #235F6F",
"Y+	c #1B3944",
"Z+	c #1E2425",
"`+	c #242628",
" @	c #2E2F2F",
".@	c #424242",
"+@	c #3F3F3E",
"@@	c #3C3A39",
"#@	c #323435",
"$@	c #282A28",
"%@	c #232423",
"&@	c #1B2129",
"*@	c #191E25",
"=@	c #151C22",
"-@	c #171B21",
";@	c #1A1F25",
">@	c #202022",
",@	c #282925",
"'@	c #313434",
")@	c #3F3E3E",
"!@	c #484746",
"~@	c #535354",
"{@	c #585858",
"]@	c #101010",
"^@	c #2D2D2D",
"/@	c #565656",
"(@	c #272727",
"            . . . . . . . . . . . . . . . . . . . . . . . . . . . . . . ",
"            . . . . . . . . . . . . . . . . . . . . . . . . . . . . . . ",
"+ + + + + + + + + + + + + + + + + + + + + + + + + + +                   ",
"@ @ @ @ @ @ @ @ @ @ @ @ @ @ @ @ @ @ @ @ @ @ @ @ @ @ @ @ @ @ @ @ @ @ @ @ ",
"# # # # # # # # # # # # # # # # # # # # # # # # # # # # # # # # # # # # ",
"# # # # # # # # # # # # # # @ + . . $ $ % % % % % % % & & & * * * * * & ",
"= - - - - - = = ; > > , = ' ) ! ~ { ] ^ / ( _ : < [ } | 1 2 & % . + @ 3 ",
"= = - = 4 5 6 6 7 = ' 8 9 0 a ^ / b c : < d e | 1 2 * & % . + @ # 3 f f ",
"g h 4 i j 6 7 ; ' 8 9 0 a ^ / b c k [ d e | 1 2 * & % $ . + @ @ 3 f f l ",
"4 5 m 6 6 > - n ! ~ { o p ( _ : < d } | q r * * % $ $ . + @ @ # 3 f l s ",
") ) = 6 , t n u v a o / b w _ x y z A B } q * & % $ . . + @ @ 3 f l C D ",
"u E 6 7 - F ! ~ { G H I J K L M N O P Q R S T a U } & + @ @ # 3 f V s W ",
"5 ; X ; ' 8 Y { Z `  ...+.@.#.$.%.&.*.=.-.;.>.,.'.).!.( ~.@ 3 f f V C {.",
"F = > - u ].^./.(._.:.<.[.}.|.1.2.2.3.3.2.4.5.6.7.8.9.0.a.b.+ f f l V s ",
"c.6 ; 8 d.e.f.g.h.i.j.k.l.m.1.3.n.o.p.p.q.q.p.r.s.t.u.v.w.x.y.@ f f l V ",
"o X - z.A.B.C.D.E.F.G.H.I.m.2.2.J.K.K.o.p.q.L.p.M.N.O.P.Q.R.S.T.f f f f ",
"U.U.t V.W.X.Y.Z.`. +.+G.++@+m.1.2.#+$+K.o.%+&+&+*+*+*+=+-+;+W.>+# f 3 # ",
"k ; ' ,+'+)+!+~+{+G.]+^+/+@+m.m.1.2.3.n.n.(+(+n.++++_+:+<+[+}+|+f 3 # @ ",
"1+; ' 9 2+3+4+5+6+7+j.|.1.1.2.2.3.n.n.8+8+8+3.9+0+a+b+c+d+e+f+g+3 # @ @ ",
"h+; ' u ] i+j+k+l+m+n+o+p+q+r+s+t+u+u+v+w+x+y+z+A+B+C+D+E+F+G+H+# @ @ + ",
"6 ( I+h+] J+c._ ^ K+L+M+N+O+P+Q+R+S+T+U+V+W+X+Y+Z+`+ @} + f H+# @ @ +   ",
"} k ~ I+0 J+: d .@q +@@@#@$@%@&@*@=@-@;@>@,@'@)@!@@ l l f H+# @ @ + + $ ",
"_ , > p ~ o c.d q &   @ H+l V ~@l l V {@{.{.{@{@s V l f f H+@ @ +   $ $ ",
"]@' { b ) F ^ k .@1+  @ f l s {@{@{@{@{@{@{@s V l l f H+# @ @ + $ $ % & ",
"n ! u ! n v u ^@c.} 2 $ @ H+f l /@s s V V l f f H+# @ +   $ % % & 1+2 r ",
"1+1+1+1+1+1+& & & & 2 2 1+1+% % $ $ $ $ $ % & & 1+2 r q q q .@.@| | } d ",
"] ] ] ] ] ] ] ] ] ] ] ] ] ] ] ] ] ] ] ] ] ] ] ] ] ] ] ^@^@o o ^ p p J+J+",
"(@(@(@(@(@(@v v v v v v v v v v v v v v v v v v v v v v v v v v v v v v ",
"u u u u u u u u u u u u u u u u u u u u u u u u u u u u u u u u u u u u ",
") ) ) ) ) ) ) ) ) ) ) ) ) ) ) ) ) ) ) ) ) ) ) ) ) ) ) ) ) ) ) ) ) ) ) ) ",
"I+I+I+I+I+I+' ' ' ' ' ' ' ' ' ' ' ' ' ' ' ' ' ' ' ' ' ' ' ' ' ' ' ' ' ' ",
"- - - - - - - - - - - - - - - - - - - - - - - - - - - - - - - - - - - - "};
