/* XPM */
static char * hide_inactive_xpm[] = {
"36 32 266 2",
"  	c #4C4C4C",
". 	c #4B4B4B",
"+ 	c #4D4D4D",
"@ 	c #4E4E4E",
"# 	c #4F4F4F",
"$ 	c #4A4A4A",
"% 	c #494949",
"& 	c #484848",
"* 	c #464646",
"= 	c #181818",
"- 	c #191919",
"; 	c #171717",
"> 	c #151515",
", 	c #161616",
"' 	c #1B1B1B",
") 	c #1F1F1F",
"! 	c #212121",
"~ 	c #252525",
"{ 	c #292929",
"] 	c #2B2B2B",
"^ 	c #2F2F2F",
"/ 	c #313131",
"( 	c #333333",
"_ 	c #353535",
": 	c #383838",
"< 	c #3A3A3A",
"[ 	c #3B3B3B",
"} 	c #3E3E3E",
"| 	c #404040",
"1 	c #414141",
"2 	c #454545",
"3 	c #505050",
"4 	c #070707",
"5 	c #0B0B0B",
"6 	c #111111",
"7 	c #131313",
"8 	c #202020",
"9 	c #242424",
"0 	c #282828",
"a 	c #2A2A2A",
"b 	c #343434",
"c 	c #363636",
"d 	c #3D3D3D",
"e 	c #3F3F3F",
"f 	c #525252",
"g 	c #020202",
"h 	c #060606",
"i 	c #0C0C0C",
"j 	c #0F0F0F",
"k 	c #393939",
"l 	c #535353",
"m 	c #0A0A0A",
"n 	c #1E1E1E",
"o 	c #2E2E2E",
"p 	c #303030",
"q 	c #434343",
"r 	c #444444",
"s 	c #575757",
"t 	c #1A1A1A",
"u 	c #232323",
"v 	c #262626",
"w 	c #353534",
"x 	c #353536",
"y 	c #343435",
"z 	c #343535",
"A 	c #363637",
"B 	c #393A3B",
"C 	c #555555",
"D 	c #5A5A5A",
"E 	c #0E0E0E",
"F 	c #1D1D1D",
"G 	c #2A2A2B",
"H 	c #2B2C29",
"I 	c #282827",
"J 	c #1F2426",
"K 	c #1C1F20",
"L 	c #191C22",
"M 	c #0F1D28",
"N 	c #0E1F2A",
"O 	c #0D1F28",
"P 	c #0E1D27",
"Q 	c #0F1C25",
"R 	c #161B20",
"S 	c #1B1C1B",
"T 	c #1D2224",
"U 	c #363634",
"V 	c #545454",
"W 	c #5C5C5C",
"X 	c #121212",
"Y 	c #272828",
"Z 	c #27292B",
"` 	c #1E2B34",
" .	c #22424F",
"..	c #385764",
"+.	c #485D67",
"@.	c #526066",
"#.	c #575E61",
"$.	c #575A5B",
"%.	c #535455",
"&.	c #515253",
"*.	c #545758",
"=.	c #4C5357",
"-.	c #434F54",
";.	c #34454C",
">.	c #20343E",
",.	c #14252B",
"'.	c #1A2127",
").	c #242629",
"!.	c #434444",
"~.	c #595959",
"{.	c #2F3333",
"].	c #2D3132",
"^.	c #202F34",
"/.	c #49707E",
"(.	c #75898F",
"_.	c #787878",
":.	c #747474",
"<.	c #7F7F7F",
"[.	c #949494",
"}.	c #8F8F8F",
"|.	c #868686",
"1.	c #8A8A8A",
"2.	c #878787",
"3.	c #838383",
"4.	c #797979",
"5.	c #6A6A6A",
"6.	c #5D5D5D",
"7.	c #4E5C61",
"8.	c #28414B",
"9.	c #1A262C",
"0.	c #2B2F30",
"a.	c #363939",
"b.	c #373737",
"c.	c #47494A",
"d.	c #414546",
"e.	c #20292E",
"f.	c #5F747B",
"g.	c #828282",
"h.	c #9E9E9E",
"i.	c #B8B8B8",
"j.	c #A5A5A5",
"k.	c #929292",
"l.	c #8B8B8B",
"m.	c #8E8E8E",
"n.	c #8C8C8C",
"o.	c #767676",
"p.	c #656565",
"q.	c #4B5C62",
"r.	c #182831",
"s.	c #383C3D",
"t.	c #494D4E",
"u.	c #383939",
"v.	c #65696B",
"w.	c #464D50",
"x.	c #364249",
"y.	c #7B7B7B",
"z.	c #919191",
"A.	c #848484",
"B.	c #A1A1A1",
"C.	c #8D8D8D",
"D.	c #898989",
"E.	c #7A7A7A",
"F.	c #636363",
"G.	c #344147",
"H.	c #2C363A",
"I.	c #656A6B",
"J.	c #4E5252",
"K.	c #141414",
"L.	c #3E3F3E",
"M.	c #6F7374",
"N.	c #454D4E",
"O.	c #959595",
"P.	c #969696",
"Q.	c #939393",
"R.	c #808080",
"S.	c #263236",
"T.	c #535555",
"U.	c #323434",
"V.	c #5A5D5E",
"W.	c #474D4F",
"X.	c #3C4950",
"Y.	c #999999",
"Z.	c #9A9A9A",
"`.	c #989898",
" +	c #979797",
".+	c #727272",
"++	c #263036",
"@+	c #343B3E",
"#+	c #5A5E5F",
"$+	c #484A4B",
"%+	c #474747",
"&+	c #3C3E3E",
"*+	c #383B3C",
"=+	c #2B3236",
"-+	c #596B75",
";+	c #757575",
">+	c #7D7D7D",
",+	c #9B9B9B",
"'+	c #9C9C9C",
")+	c #6B6B6B",
"!+	c #2E383E",
"~+	c #1F252A",
"{+	c #353939",
"]+	c #434545",
"^+	c #4D4E4D",
"/+	c #222222",
"(+	c #333434",
"_+	c #2E3131",
":+	c #292E31",
"<+	c #37505D",
"[+	c #606F78",
"}+	c #6C6C6C",
"|+	c #666666",
"1+	c #6E6E6E",
"2+	c #777777",
"3+	c #717171",
"4+	c #696969",
"5+	c #626262",
"6+	c #585858",
"7+	c #3C474C",
"8+	c #202D34",
"9+	c #242627",
"0+	c #2D2F30",
"a+	c #3D3F3E",
"b+	c #4E4F4F",
"c+	c #515151",
"d+	c #1C1C1C",
"e+	c #323232",
"f+	c #26292D",
"g+	c #263842",
"h+	c #364F5D",
"i+	c #41545F",
"j+	c #4D5960",
"k+	c #50585B",
"l+	c #525557",
"m+	c #4E4F50",
"n+	c #494A4B",
"o+	c #464849",
"p+	c #3D4245",
"q+	c #2F383D",
"r+	c #212D33",
"s+	c #17232A",
"t+	c #1D2223",
"u+	c #242628",
"v+	c #2E2F2F",
"w+	c #424242",
"x+	c #3F3F3E",
"y+	c #3C3A39",
"z+	c #323435",
"A+	c #282A28",
"B+	c #232423",
"C+	c #1B2129",
"D+	c #191E25",
"E+	c #151C22",
"F+	c #171B21",
"G+	c #1A1F25",
"H+	c #202022",
"I+	c #282925",
"J+	c #313434",
"K+	c #3F3E3E",
"L+	c #484746",
"M+	c #535354",
"N+	c #101010",
"O+	c #2D2D2D",
"P+	c #565656",
"Q+	c #272727",
"            . . . . . . . . . . . . . . . . . . . . . . . . . . . . . . ",
"            . . . . . . . . . . . . . . . . . . . . . . . . . . . . . . ",
"+ + + + + + + + + + + + + + + + + + + + + + + + + + +                   ",
"@ @ @ @ @ @ @ @ @ @ @ @ @ @ @ @ @ @ @ @ @ @ @ @ @ @ @ @ @ @ @ @ @ @ @ @ ",
"# # # # # # # # # # # # # # # # # # # # # # # # # # # # # # # # # # # # ",
"# # # # # # # # # # # # # # @ + . . $ $ % % % % % % % & & & * * * * * & ",
"= - - - - - = = ; > > , = ' ) ! ~ { ] ^ / ( _ : < [ } | 1 2 & % . + @ 3 ",
"= = - = 4 5 6 6 7 = ' 8 9 0 a ^ / b c : < d e | 1 2 * & % . + @ # 3 f f ",
"g h 4 i j 6 7 ; ' 8 9 0 a ^ / b c k [ d e | 1 2 * & % $ . + @ @ 3 f f l ",
"4 5 m 6 6 > - n ! ~ { o p ( _ : < d } | q r * * % $ $ . + @ @ # 3 f l s ",
") ) = 6 , t n u v a o / b w _ x y z A B } q * & % $ . . + @ @ 3 f l C D ",
"u E 6 7 - F ! ~ { G H I J K L M N O P Q R S T a U } & + @ @ # 3 f V s W ",
"5 ; X ; ' 8 Y { Z `  ...+.@.#.$.%.V &.*.=.-.;.>.,.'.).( !.@ 3 f f V C ~.",
"F = > - u {.].^./.(._.:.<.[.}.|.1.1.1.1.2.3.4.5.6.7.8.9.0.a.+ f f l V s ",
"b.6 ; 8 c.d.e.f.g.<.|.h.i.j.k.l.m.m.m.m.m.m.n.n.|.o.p.q.r.s.t.@ f f l V ",
"o X - u.v.w.x.y.3.z.A.B.}.z.k.k.k.k.k.k.k.k.}.m.C.D.E.F.G.H.I.J.f f f f ",
"K.K.t L.M.N.D 5.n.O.O.O.O.O.O.O.O.O.O.P.P.O.Q.z.}.l.R.s < S.M.T.# f 3 # ",
"k ; ' U.V.W.X._.R.l.[.Y.Z.Z.Z.Z.Z.Z.Z.Y.Y.Y.`. +z.A..+V ++@+#+$+f 3 # @ ",
"%+; ' 9 &+*+=+-+;+:.>+|.z.`.,+,+'+'+'+,+Z. +}.g.o.)+s !+~+{+]+^+3 # @ @ ",
"/+; ' u ] (+_+:+<+[+}+|+)+1+:.E.y.y.E.2+3+4+5+6+# 7+8+9+0+a+b+c+# @ @ + ",
"6 ( d+/+] e+b._ ^ f+g+h+i+j+k+l+m+@ n+o+p+q+r+s+t+u+v+} + f c+# @ @ +   ",
"} k ~ d+0 e+: d w+q x+y+z+A+B+C+D+E+F+G+H+I+J+K+L+@ l l f c+# @ @ + + $ ",
"_ , > p ~ o b.d q &   @ c+l V M+l l V 6+~.~.6+6+s V l f f c+@ @ +   $ $ ",
"N+' { b ) F ^ k w+%+  @ f l s 6+6+6+6+6+6+6+s V l l f c+# @ @ + $ $ % & ",
"n ! u ! n v u O+b.} 2 $ @ c+f l P+s s V V l f f c+# @ +   $ % % & %+2 r ",
"%+%+%+%+%+%+& & & & 2 2 %+%+% % $ $ $ $ $ % & & %+2 r q q q w+w+| | } d ",
"] ] ] ] ] ] ] ] ] ] ] ] ] ] ] ] ] ] ] ] ] ] ] ] ] ] ] O+O+o o ^ p p e+e+",
"Q+Q+Q+Q+Q+Q+v v v v v v v v v v v v v v v v v v v v v v v v v v v v v v ",
"u u u u u u u u u u u u u u u u u u u u u u u u u u u u u u u u u u u u ",
") ) ) ) ) ) ) ) ) ) ) ) ) ) ) ) ) ) ) ) ) ) ) ) ) ) ) ) ) ) ) ) ) ) ) ) ",
"d+d+d+d+d+d+' ' ' ' ' ' ' ' ' ' ' ' ' ' ' ' ' ' ' ' ' ' ' ' ' ' ' ' ' ' ",
"- - - - - - - - - - - - - - - - - - - - - - - - - - - - - - - - - - - - "};
