/* XPM */
static char * left_active_xpm[] = {
"9 780 55 1",
" 	c #262626",
".	c #353535",
"+	c #3E3E3E",
"@	c #3F3F3F",
"#	c #444444",
"$	c #474747",
"%	c #5A5A5A",
"&	c #4A4A4A",
"*	c #282828",
"=	c #242424",
"-	c #00DEDE",
";	c #373737",
">	c #232323",
",	c #2F2F2F",
"'	c #454545",
")	c #3B3B3B",
"!	c #323232",
"~	c #5E5E5E",
"{	c #5D5D5D",
"]	c #808080",
"^	c #5C5C5C",
"/	c #00DFDF",
"(	c #3A3A3A",
"_	c #424242",
":	c #626262",
"<	c #5F5F5F",
"[	c #5B5B5B",
"}	c #7F7F7F",
"|	c #606060",
"1	c #434343",
"2	c #292929",
"3	c #505050",
"4	c #717171",
"5	c #676767",
"6	c #686868",
"7	c #585858",
"8	c #2C2C2C",
"9	c #656565",
"0	c #545454",
"a	c #303030",
"b	c #666666",
"c	c #646464",
"d	c #555555",
"e	c #2E2E2E",
"f	c #333333",
"g	c #535353",
"h	c #525252",
"i	c #575757",
"j	c #343434",
"k	c #414141",
"l	c #4E4E4E",
"m	c #595959",
"n	c #383838",
"o	c #313131",
"p	c #2A2A2A",
" .+@#$%&*",
" .+@#$%&*",
" .+@#$%&*",
" .+@#$%&*",
" .+@#$%&*",
" .+@#$%&*",
" .+@#$%&*",
" .+@#$%&*",
" .+@#$%&*",
" .+@#$%&*",
" .+@#$%&*",
" .+@#$%&*",
" .+@#$%&*",
" .+@#$%&*",
" .+@#$%&*",
" .+@#$%&*",
" .+@#$%&*",
" .+@#$%&*",
" .+@#$%&*",
" .+@#$%&*",
" .+@#$%&*",
" .+@#$%&*",
" .+@#$%&*",
" .+@#$%&*",
" .+@#$%&*",
" .+@#$%&*",
" .+@#$%&*",
" .+@#$%&*",
" .+@#$%&*",
" .+@#$%&*",
" .+@#$%&*",
" .+@#$%&*",
" .+@#$%&*",
" .+@#$%&*",
" .+@#$%&*",
" .+@#$%&*",
" .+@#$%&*",
" .+@#$%&*",
" .+@#$%&*",
" .+@#$%&*",
" .+@#$%&*",
" .+@#$%&*",
" .+@#$%&*",
" .+@#$%&*",
" .+@#$%&*",
" .+@#$%&*",
" .+@#$%&*",
" .+@#$%&*",
" .+@#$%&*",
" .+@#$%&*",
" .+@#$%&*",
" .+@#$%&*",
" .+@#$%&*",
" .+@#$%&*",
" .+@#$%&*",
" .+@#$%&*",
" .+@#$%&*",
" .+@#$%&*",
" .+@#$%&*",
" .+@#$%&*",
" .+@#$%&*",
" .+@#$%&*",
" .+@#$%&*",
" .+@#$%&*",
" .+@#$%&*",
" .+@#$%&*",
" .+@#$%&*",
" .+@#$%&*",
" .+@#$%&*",
" .+@#$%&*",
" .+@#$%&*",
" .+@#$%&*",
" .+@#$%&*",
" .+@#$%&*",
" .+@#$%&*",
" .+@#$%&*",
" .+@#$%&*",
" .+@#$%&*",
" .+@#$%&*",
" .+@#$%&*",
" .+@#$%&*",
" .+@#$%&*",
" .+@#$%&*",
" .+@#$%&*",
" .+@#$%&*",
" .+@#$%&*",
" .+@#$%&*",
" .+@#$%&*",
" .+@#$%&*",
" .+@#$%&*",
" .+@#$%&*",
" .+@#$%&*",
" .+@#$%&*",
" .+@#$%&*",
" .+@#$%&*",
" .+@#$%&*",
" .+@#$%&*",
" .+@#$%&*",
" .+@#$%&*",
" .+@#$%&*",
" .+@#$%&*",
" .+@#$%&*",
" .+@#$%&*",
" .+@#$%&*",
" .+@#$%&*",
" .+@#$%&*",
" .+@#$%&*",
" .+@#$%&*",
" .+@#$%&*",
" .+@#$%&*",
" .+@#$%&*",
" .+@#$%&*",
" .+@#$%&*",
" .+@#$%&*",
" .+@#$%&*",
" .+@#$%&*",
" .+@#$%&*",
" .+@#$%&*",
" .+@#$%&*",
" .+@#$%&*",
" .+@#$%&*",
" .+@#$%&*",
" .+@#$%&*",
" .+@#$%&*",
" .+@#$%&*",
" .+@#$%&*",
" .+@#$%&*",
" .+@#$%&*",
" .+@#$%&*",
" .+@#$%&*",
" .+@#$%&*",
" .+@#$%&*",
" .+@#$%&*",
" .+@#$%&*",
" .+@#$%&*",
" .+@#$%&*",
" .+@#$%&*",
" .+@#$%&*",
" .+@#$%&*",
" .+@#$%&*",
" .+@#$%&*",
" .+@#$%&*",
" .+@#$%&*",
" .+@#$%&*",
" .+@#$%&*",
" .+@#$%&*",
" .+@#$%&*",
" .+@#$%&*",
" .+@#$%&*",
" .+@#$%&*",
" .+@#$%&*",
" .+@#$%&*",
" .+@#$%&*",
" .+@#$%&*",
" .+@#$%&*",
" .+@#$%&*",
" .+@#$%&*",
" .+@#$%&*",
" .+@#$%&*",
" .+@#$%&*",
" .+@#$%&*",
" .+@#$%&*",
" .+@#$%&*",
" .+@#$%&*",
" .+@#$%&*",
" .+@#$%&*",
" .+@#$%&*",
" .+@#$%&*",
" .+@#$%&*",
" .+@#$%&*",
" .+@#$%&*",
" .+@#$%&*",
" .+@#$%&*",
" .+@#$%&*",
" .+@#$%&*",
" .+@#$%&*",
" .+@#$%&*",
" .+@#$%&*",
" .+@#$%&*",
" .+@#$%&*",
" .+@#$%&*",
" .+@#$%&*",
" .+@#$%&*",
" .+@#$%&*",
" .+@#$%&*",
" .+@#$%&*",
" .+@#$%&*",
" .+@#$%&*",
" .+@#$%&*",
" .+@#$%&*",
" .+@#$%&*",
" .+@#$%&*",
" .+@#$%&*",
" .+@#$%&*",
" .+@#$%&*",
" .+@#$%&*",
" .+@#$%&*",
" .+@#$%&*",
" .+@#$%&*",
" .+@#$%&*",
" .+@#$%&*",
" .+@#$%&*",
" .+@#$%&*",
" .+@#$%&*",
" .+@#$%&*",
" .+@#$%&*",
" .+@#$%&*",
" .+@#$%&*",
" .+@#$%&*",
" .+@#$%&*",
" .+@#$%&*",
" .+@#$%&*",
" .+@#$%&*",
" .+@#$%&*",
" .+@#$%&*",
" .+@#$%&*",
" .+@#$%&*",
" .+@#$%&*",
" .+@#$%&*",
" .+@#$%&*",
" .+@#$%&*",
" .+@#$%&*",
" .+@#$%&*",
" .+@#$%&*",
" .+@#$%&*",
" .+@#$%&*",
" .+@#$%&*",
" .+@#$%&*",
" .+@#$%&*",
" .+@#$%&*",
" .+@#$%&*",
" .+@#$%&*",
" .+@#$%&*",
" .+@#$%&*",
" .+@#$%&*",
" .+@#$%&*",
" .+@#$%&*",
" .+@#$%&*",
" .+@#$%&*",
" .+@#$%&*",
" .+@#$%&*",
" .+@#$%&*",
" .+@#$%&*",
" .+@#$%&*",
" .+@#$%&*",
" .+@#$%&*",
" .+@#$%&*",
" .+@#$%&*",
" .+@#$%&*",
" .+@#$%&*",
" .+@#$%&*",
" .+@#$%&*",
" .+@#$%&*",
" .+@#$%&*",
" .+@#$%&*",
" .+@#$%&*",
" .+@#$%&*",
" .+@#$%&*",
" .+@#$%&*",
" .+@#$%&*",
" .+@#$%&*",
" .+@#$%&*",
" .+@#$%&*",
" .+@#$%&*",
" .+@#$%&*",
" .+@#$%&*",
" .+@#$%&*",
" .+@#$%&*",
" .+@#$%&*",
" .+@#$%&*",
" .+@#$%&*",
" .+@#$%&*",
" .+@#$%&*",
" .+@#$%&*",
" .+@#$%&*",
" .+@#$%&*",
" .+@#$%&*",
" .+@#$%&*",
" .+@#$%&*",
" .+@#$%&*",
" .+@#$%&*",
" .+@#$%&*",
" .+@#$%&*",
" .+@#$%&*",
" .+@#$%&*",
" .+@#$%&*",
" .+@#$%&*",
" .+@#$%&*",
" .+@#$%&*",
" .+@#$%&*",
" .+@#$%&*",
" .+@#$%&*",
" .+@#$%&*",
" .+@#$%&*",
" .+@#$%&*",
" .+@#$%&*",
" .+@#$%&*",
" .+@#$%&*",
" .+@#$%&*",
" .+@#$%&*",
" .+@#$%&*",
" .+@#$%&*",
" .+@#$%&*",
" .+@#$%&*",
" .+@#$%&*",
"=.@@-;-&>",
"=.@@---&>",
"=.@@-,-&>",
"=.@@-;-&>",
"=.@@-')&>",
"=.@@-'!&>",
"=.@@-~{&>",
"=.@@-]{&>",
"=.@@-^{&>",
"=.@@-'-->",
"=.@@-))--",
"-/----{(-",
"-/----{&-",
"-//---~&-",
"-.@@_-^&-",
"-:-{#-{(-",
"-<-{#-{.-",
"-~-{#-{&-",
"-~-[#-{&-",
"----#-~&-",
"-~-{#-}&-",
"-|-{#-{&-",
"-<-{#-{(-",
"-<-[#-)--",
"-<@@#----",
"-{@@#1--2",
"=.@@#'{&>",
"=.@@#'{&>",
"=.-/---^>",
"=.34~'-]>",
"=.@5%'-~>",
"=.@67'-&8",
"=.@9%'-&8",
"=.@90'-(-",
"=.@50'-a-",
"=.@b7'---",
"=.@90'-(-",
"=.@b%'-&8",
"=.@c%'-^>",
"=.@@#'{&>",
"=.@@#'{&>",
"=.[-;-{db",
"=.{---{db",
"=.{-,-{db",
"=.{-;-{db",
"=.{!#-{7b",
"=.~e#-{d5",
"=.~@~-{d9",
"=.{@]-{%9",
"=._@^-{76",
"=.--#-{%5",
"{--!(-{~4",
"^-.@----/",
"[-@{----/",
"[-@~---//",
"%-@^-1{&>",
"[-.@-'{-:",
"[-!@-'{-<",
"[-@{-'{-~",
"[-@{-'[-~",
"[-@~-'---",
"{-@}-'{-~",
"{-@{-'{-|",
"{-.@-'{-<",
"{--!-'[-<",
"^----'{&<",
"=f--_'{&{",
"=.@@#'{&>",
"=.@@#'{&>",
"=.@@#'{&>",
"=.@@#'{&>",
"=.@@#'{&>",
"=.@@#'{&>",
"=.@@#'{&>",
"=.@@#'{&>",
"=.@@#'{&>",
"=.@@#'{&>",
"=.@@#'{&>",
"=.@@#'{&>",
"e.^---/->",
"=.]-#~4g>",
"=.~-#%5&>",
"=e@-#76&>",
"=,@-#%9&>",
"=-.-#d9&>",
"=-e-#d5&>",
"=---#7b&>",
"=-.-#d9&>",
"=,@-#%b&>",
"=.^-#%c&>",
"=h@-;-[&>",
"=h@---{&>",
"=h@-,-{&>",
"=h@-;-{&>",
"=i@-#j{&>",
"=h@-#,~&>",
"=h@-~'~&>",
"=%@-]'{&>",
"=i@-^'^&>",
"=%@-#--&>",
"=~@-(j-->",
"/----'1->",
"/----{{->",
"//---~{->",
"=.@+-^{->",
":-{@-'1->",
"<-{@-')->",
"~-{@-{{->",
"~-[@-{{->",
"---@-~{->",
"~-{@-}{->",
"|-{@-{{->",
"<-{@-'1->",
"<-[@-j-->",
"<.@@---->",
"{.@@_--k>",
"=.@@#'{&>",
"=.@@#'{&>",
"=-/---^&>",
"=l4~#-]&>",
"=.5%#-~&>",
"=.67#-{a>",
"=.9%#-{.>",
"=.90#-1->",
"=.50#-!->",
"=.b7#--->",
"=.90#-1->",
"=.b%#-{.>",
"=.c%#-^&>",
"=.@@#'{&>",
"=.@@#'{&>",
"=[-.-'mb>",
"={---'mb>",
"={-e-'mb>",
"={-.-'mb>",
"={!@-'mb>",
"=~e@-'m5>",
"=~@~-'m9>",
"={@]-'%9>",
"=(@^-'m6>",
"=--@-'%5>",
"--!n-'~4>",
"-o@----/-",
"-.{----/-",
"-.~---//-",
"-.^-_'{&-",
"-o@-#{-:-",
"-,@-#{-<-",
"-.{-#{-~-",
"-.{-#[-~-",
"-.~-#----",
"-.}-#{-~-",
"-.{-#{-|-",
"-o@-#{-<-",
"--!-#[-<-",
"----#'{<-",
"p--+#'{{-",
"=.@@#'{&>",
"=.@@#'{&>",
"=^---/-&>",
"=]-@~4m&>",
"=~-@%5{&>",
"8.-@76{&>",
"8.-@%9{&>",
"-o-@09{&>",
"-e-@05{&>",
"---@7b{&>",
"-o-@09{&>",
"8.-@%b{&>",
"=^-@%c{&>",
" .+@#$%&*",
" .+@#$%&*",
" .+@#$%&*",
" .+@#$%&*",
" .+@#$%&*",
" .+@#$%&*",
" .+@#$%&*",
" .+@#$%&*",
" .+@#$%&*",
" .+@#$%&*",
" .+@#$%&*",
" .+@#$%&*",
" .+@#$%&*",
" .+@#$%&*",
" .+@#$%&*",
" .+@#$%&*",
" .+@#$%&*",
" .+@#$%&*",
" .+@#$%&*",
" .+@#$%&*",
" .+@#$%&*",
" .+@#$%&*",
" .+@#$%&*",
" .+@#$%&*",
" .+@#$%&*",
" .+@#$%&*",
" .+@#$%&*",
" .+@#$%&*",
" .+@#$%&*",
" .+@#$%&*",
" .+@#$%&*",
" .+@#$%&*",
" .+@#$%&*",
" .+@#$%&*",
" .+@#$%&*",
" .+@#$%&*",
" .+@#$%&*",
" .+@#$%&*",
" .+@#$%&*",
" .+@#$%&*",
" .+@#$%&*",
" .+@#$%&*",
" .+@#$%&*",
" .+@#$%&*",
" .+@#$%&*",
" .+@#$%&*",
" .+@#$%&*",
" .+@#$%&*",
" .+@#$%&*",
" .+@#$%&*",
" .+@#$%&*",
" .+@#$%&*",
" .+@#$%&*",
" .+@#$%&*",
" .+@#$%&*",
" .+@#$%&*",
" .+@#$%&*",
" .+@#$%&*",
" .+@#$%&*",
" .+@#$%&*",
" .+@#$%&*",
" .+@#$%&*",
" .+@#$%&*",
" .+@#$%&*",
" .+@#$%&*",
" .+@#$%&*",
" .+@#$%&*",
" .+@#$%&*",
" .+@#$%&*",
" .+@#$%&*",
" .+@#$%&*",
" .+@#$%&*",
" .+@#$%&*",
" .+@#$%&*",
" .+@#$%&*",
" .+@#$%&*",
" .+@#$%&*",
" .+@#$%&*",
" .+@#$%&*",
" .+@#$%&*",
" .+@#$%&*",
" .+@#$%&*",
" .+@#$%&*",
" .+@#$%&*",
" .+@#$%&*",
" .+@#$%&*",
" .+@#$%&*",
" .+@#$%&*",
" .+@#$%&*",
" .+@#$%&*",
" .+@#$%&*",
" .+@#$%&*",
" .+@#$%&*",
" .+@#$%&*",
" .+@#$%&*",
" .+@#$%&*",
" .+@#$%&*",
" .+@#$%&*",
" .+@#$%&*",
" .+@#$%&*",
" .+@#$%&*",
" .+@#$%&*",
" .+@#$%&*",
" .+@#$%&*",
" .+@#$%&*",
" .+@#$%&*",
" .+@#$%&*",
" .+@#$%&*",
" .+@#$%&*",
" .+@#$%&*",
" .+@#$%&*",
" .+@#$%&*",
" .+@#$%&*",
" .+@#$%&*",
" .+@#$%&*",
" .+@#$%&*",
" .+@#$%&*",
" .+@#$%&*",
" .+@#$%&*",
" .+@#$%&*",
" .+@#$%&*",
" .+@#$%&*",
" .+@#$%&*",
" .+@#$%&*",
" .+@#$%&*",
" .+@#$%&*",
" .+@#$%&*",
" .+@#$%&*",
" .+@#$%&*",
" .+@#$%&*",
" .+@#$%&*",
" .+@#$%&*",
" .+@#$%&*",
" .+@#$%&*",
" .+@#$%&*",
" .+@#$%&*",
" .+@#$%&*",
" .+@#$%&*",
" .+@#$%&*",
" .+@#$%&*",
" .+@#$%&*",
" .+@#$%&*",
" .+@#$%&*",
" .+@#$%&*",
" .+@#$%&*",
" .+@#$%&*",
" .+@#$%&*",
" .+@#$%&*",
" .+@#$%&*",
" .+@#$%&*",
" .+@#$%&*",
" .+@#$%&*",
" .+@#$%&*",
" .+@#$%&*",
" .+@#$%&*",
" .+@#$%&*",
" .+@#$%&*",
" .+@#$%&*",
" .+@#$%&*",
" .+@#$%&*",
" .+@#$%&*",
" .+@#$%&*",
" .+@#$%&*",
" .+@#$%&*",
" .+@#$%&*",
" .+@#$%&*",
" .+@#$%&*",
" .+@#$%&*",
" .+@#$%&*",
" .+@#$%&*",
" .+@#$%&*",
" .+@#$%&*",
" .+@#$%&*",
" .+@#$%&*",
" .+@#$%&*",
" .+@#$%&*",
" .+@#$%&*",
" .+@#$%&*",
" .+@#$%&*",
" .+@#$%&*",
" .+@#$%&*",
" .+@#$%&*",
" .+@#$%&*",
" .+@#$%&*",
" .+@#$%&*",
" .+@#$%&*",
" .+@#$%&*",
" .+@#$%&*",
" .+@#$%&*",
" .+@#$%&*",
" .+@#$%&*",
" .+@#$%&*",
" .+@#$%&*",
" .+@#$%&*",
" .+@#$%&*",
" .+@#$%&*",
" .+@#$%&*",
" .+@#$%&*",
" .+@#$%&*",
" .+@#$%&*",
" .+@#$%&*",
" .+@#$%&*",
" .+@#$%&*",
" .+@#$%&*",
" .+@#$%&*",
" .+@#$%&*",
" .+@#$%&*",
" .+@#$%&*",
" .+@#$%&*",
" .+@#$%&*",
" .+@#$%&*",
" .+@#$%&*",
" .+@#$%&*",
" .+@#$%&*",
" .+@#$%&*",
" .+@#$%&*",
" .+@#$%&*",
" .+@#$%&*",
" .+@#$%&*",
" .+@#$%&*",
" .+@#$%&*",
" .+@#$%&*",
" .+@#$%&*",
" .+@#$%&*",
" .+@#$%&*",
" .+@#$%&*",
" .+@#$%&*",
" .+@#$%&*",
" .+@#$%&*",
" .+@#$%&*",
" .+@#$%&*",
" .+@#$%&*",
" .+@#$%&*",
" .+@#$%&*",
" .+@#$%&*",
" .+@#$%&*",
" .+@#$%&*",
" .+@#$%&*",
" .+@#$%&*",
" .+@#$%&*",
" .+@#$%&*",
" .+@#$%&*",
" .+@#$%&*",
" .+@#$%&*",
" .+@#$%&*",
" .+@#$%&*",
" .+@#$%&*",
" .+@#$%&*",
" .+@#$%&*",
" .+@#$%&*",
" .+@#$%&*",
" .+@#$%&*",
" .+@#$%&*",
" .+@#$%&*",
" .+@#$%&*",
" .+@#$%&*",
" .+@#$%&*",
" .+@#$%&*",
" .+@#$%&*",
" .+@#$%&*",
" .+@#$%&*",
" .+@#$%&*",
" .+@#$%&*",
" .+@#$%&*",
" .+@#$%&*",
" .+@#$%&*",
" .+@#$%&*",
" .+@#$%&*",
" .+@#$%&*",
" .+@#$%&*",
" .+@#$%&*",
" .+@#$%&*",
" .+@#$%&*",
" .+@#$%&*",
" .+@#$%&*",
" .+@#$%&*",
" .+@#$%&*",
" .+@#$%&*",
" .+@#$%&*",
" .+@#$%&*",
" .+@#$%&*",
" .+@#$%&*",
" .+@#$%&*",
" .+@#$%&*",
" .+@#$%&*",
" .+@#$%&*",
" .+@#$%&*",
" .+@#$%&*",
" .+@#$%&*",
" .+@#$%&*",
" .+@#$%&*",
" .+@#$%&*",
" .+@#$%&*",
" .+@#$%&*",
" .+@#$%&*",
" .+@#$%&*",
" .+@#$%&*",
" .+@#$%&*",
" .+@#$%&*",
" .+@#$%&*",
" .+@#$%&*",
" .+@#$%&*",
" .+@#$%&*",
" .+@#$%&*",
" .+@#$%&*"};
