/* XPM */
static char * left_inactive_xpm[] = {
"9 780 54 1",
" 	c #262626",
".	c #353535",
"+	c #3E3E3E",
"@	c #3F3F3F",
"#	c #444444",
"$	c #474747",
"%	c #5A5A5A",
"&	c #4A4A4A",
"*	c #282828",
"=	c #242424",
"-	c #000000",
";	c #373737",
">	c #232323",
",	c #2F2F2F",
"'	c #454545",
")	c #3B3B3B",
"!	c #323232",
"~	c #5E5E5E",
"{	c #5D5D5D",
"]	c #808080",
"^	c #5C5C5C",
"/	c #3A3A3A",
"(	c #424242",
"_	c #626262",
":	c #5F5F5F",
"<	c #5B5B5B",
"[	c #7F7F7F",
"}	c #606060",
"|	c #434343",
"1	c #292929",
"2	c #505050",
"3	c #717171",
"4	c #676767",
"5	c #686868",
"6	c #585858",
"7	c #2C2C2C",
"8	c #656565",
"9	c #545454",
"0	c #303030",
"a	c #666666",
"b	c #646464",
"c	c #555555",
"d	c #2E2E2E",
"e	c #333333",
"f	c #535353",
"g	c #525252",
"h	c #575757",
"i	c #343434",
"j	c #414141",
"k	c #4E4E4E",
"l	c #595959",
"m	c #383838",
"n	c #313131",
"o	c #2A2A2A",
" .+@#$%&*",
" .+@#$%&*",
" .+@#$%&*",
" .+@#$%&*",
" .+@#$%&*",
" .+@#$%&*",
" .+@#$%&*",
" .+@#$%&*",
" .+@#$%&*",
" .+@#$%&*",
" .+@#$%&*",
" .+@#$%&*",
" .+@#$%&*",
" .+@#$%&*",
" .+@#$%&*",
" .+@#$%&*",
" .+@#$%&*",
" .+@#$%&*",
" .+@#$%&*",
" .+@#$%&*",
" .+@#$%&*",
" .+@#$%&*",
" .+@#$%&*",
" .+@#$%&*",
" .+@#$%&*",
" .+@#$%&*",
" .+@#$%&*",
" .+@#$%&*",
" .+@#$%&*",
" .+@#$%&*",
" .+@#$%&*",
" .+@#$%&*",
" .+@#$%&*",
" .+@#$%&*",
" .+@#$%&*",
" .+@#$%&*",
" .+@#$%&*",
" .+@#$%&*",
" .+@#$%&*",
" .+@#$%&*",
" .+@#$%&*",
" .+@#$%&*",
" .+@#$%&*",
" .+@#$%&*",
" .+@#$%&*",
" .+@#$%&*",
" .+@#$%&*",
" .+@#$%&*",
" .+@#$%&*",
" .+@#$%&*",
" .+@#$%&*",
" .+@#$%&*",
" .+@#$%&*",
" .+@#$%&*",
" .+@#$%&*",
" .+@#$%&*",
" .+@#$%&*",
" .+@#$%&*",
" .+@#$%&*",
" .+@#$%&*",
" .+@#$%&*",
" .+@#$%&*",
" .+@#$%&*",
" .+@#$%&*",
" .+@#$%&*",
" .+@#$%&*",
" .+@#$%&*",
" .+@#$%&*",
" .+@#$%&*",
" .+@#$%&*",
" .+@#$%&*",
" .+@#$%&*",
" .+@#$%&*",
" .+@#$%&*",
" .+@#$%&*",
" .+@#$%&*",
" .+@#$%&*",
" .+@#$%&*",
" .+@#$%&*",
" .+@#$%&*",
" .+@#$%&*",
" .+@#$%&*",
" .+@#$%&*",
" .+@#$%&*",
" .+@#$%&*",
" .+@#$%&*",
" .+@#$%&*",
" .+@#$%&*",
" .+@#$%&*",
" .+@#$%&*",
" .+@#$%&*",
" .+@#$%&*",
" .+@#$%&*",
" .+@#$%&*",
" .+@#$%&*",
" .+@#$%&*",
" .+@#$%&*",
" .+@#$%&*",
" .+@#$%&*",
" .+@#$%&*",
" .+@#$%&*",
" .+@#$%&*",
" .+@#$%&*",
" .+@#$%&*",
" .+@#$%&*",
" .+@#$%&*",
" .+@#$%&*",
" .+@#$%&*",
" .+@#$%&*",
" .+@#$%&*",
" .+@#$%&*",
" .+@#$%&*",
" .+@#$%&*",
" .+@#$%&*",
" .+@#$%&*",
" .+@#$%&*",
" .+@#$%&*",
" .+@#$%&*",
" .+@#$%&*",
" .+@#$%&*",
" .+@#$%&*",
" .+@#$%&*",
" .+@#$%&*",
" .+@#$%&*",
" .+@#$%&*",
" .+@#$%&*",
" .+@#$%&*",
" .+@#$%&*",
" .+@#$%&*",
" .+@#$%&*",
" .+@#$%&*",
" .+@#$%&*",
" .+@#$%&*",
" .+@#$%&*",
" .+@#$%&*",
" .+@#$%&*",
" .+@#$%&*",
" .+@#$%&*",
" .+@#$%&*",
" .+@#$%&*",
" .+@#$%&*",
" .+@#$%&*",
" .+@#$%&*",
" .+@#$%&*",
" .+@#$%&*",
" .+@#$%&*",
" .+@#$%&*",
" .+@#$%&*",
" .+@#$%&*",
" .+@#$%&*",
" .+@#$%&*",
" .+@#$%&*",
" .+@#$%&*",
" .+@#$%&*",
" .+@#$%&*",
" .+@#$%&*",
" .+@#$%&*",
" .+@#$%&*",
" .+@#$%&*",
" .+@#$%&*",
" .+@#$%&*",
" .+@#$%&*",
" .+@#$%&*",
" .+@#$%&*",
" .+@#$%&*",
" .+@#$%&*",
" .+@#$%&*",
" .+@#$%&*",
" .+@#$%&*",
" .+@#$%&*",
" .+@#$%&*",
" .+@#$%&*",
" .+@#$%&*",
" .+@#$%&*",
" .+@#$%&*",
" .+@#$%&*",
" .+@#$%&*",
" .+@#$%&*",
" .+@#$%&*",
" .+@#$%&*",
" .+@#$%&*",
" .+@#$%&*",
" .+@#$%&*",
" .+@#$%&*",
" .+@#$%&*",
" .+@#$%&*",
" .+@#$%&*",
" .+@#$%&*",
" .+@#$%&*",
" .+@#$%&*",
" .+@#$%&*",
" .+@#$%&*",
" .+@#$%&*",
" .+@#$%&*",
" .+@#$%&*",
" .+@#$%&*",
" .+@#$%&*",
" .+@#$%&*",
" .+@#$%&*",
" .+@#$%&*",
" .+@#$%&*",
" .+@#$%&*",
" .+@#$%&*",
" .+@#$%&*",
" .+@#$%&*",
" .+@#$%&*",
" .+@#$%&*",
" .+@#$%&*",
" .+@#$%&*",
" .+@#$%&*",
" .+@#$%&*",
" .+@#$%&*",
" .+@#$%&*",
" .+@#$%&*",
" .+@#$%&*",
" .+@#$%&*",
" .+@#$%&*",
" .+@#$%&*",
" .+@#$%&*",
" .+@#$%&*",
" .+@#$%&*",
" .+@#$%&*",
" .+@#$%&*",
" .+@#$%&*",
" .+@#$%&*",
" .+@#$%&*",
" .+@#$%&*",
" .+@#$%&*",
" .+@#$%&*",
" .+@#$%&*",
" .+@#$%&*",
" .+@#$%&*",
" .+@#$%&*",
" .+@#$%&*",
" .+@#$%&*",
" .+@#$%&*",
" .+@#$%&*",
" .+@#$%&*",
" .+@#$%&*",
" .+@#$%&*",
" .+@#$%&*",
" .+@#$%&*",
" .+@#$%&*",
" .+@#$%&*",
" .+@#$%&*",
" .+@#$%&*",
" .+@#$%&*",
" .+@#$%&*",
" .+@#$%&*",
" .+@#$%&*",
" .+@#$%&*",
" .+@#$%&*",
" .+@#$%&*",
" .+@#$%&*",
" .+@#$%&*",
" .+@#$%&*",
" .+@#$%&*",
" .+@#$%&*",
" .+@#$%&*",
" .+@#$%&*",
" .+@#$%&*",
" .+@#$%&*",
" .+@#$%&*",
" .+@#$%&*",
" .+@#$%&*",
" .+@#$%&*",
" .+@#$%&*",
" .+@#$%&*",
" .+@#$%&*",
" .+@#$%&*",
" .+@#$%&*",
" .+@#$%&*",
" .+@#$%&*",
" .+@#$%&*",
" .+@#$%&*",
" .+@#$%&*",
" .+@#$%&*",
" .+@#$%&*",
" .+@#$%&*",
" .+@#$%&*",
" .+@#$%&*",
" .+@#$%&*",
" .+@#$%&*",
" .+@#$%&*",
" .+@#$%&*",
" .+@#$%&*",
" .+@#$%&*",
" .+@#$%&*",
" .+@#$%&*",
" .+@#$%&*",
" .+@#$%&*",
" .+@#$%&*",
" .+@#$%&*",
" .+@#$%&*",
" .+@#$%&*",
" .+@#$%&*",
" .+@#$%&*",
" .+@#$%&*",
" .+@#$%&*",
" .+@#$%&*",
" .+@#$%&*",
" .+@#$%&*",
" .+@#$%&*",
" .+@#$%&*",
" .+@#$%&*",
"=.@@-;-&>",
"=.@@---&>",
"=.@@-,-&>",
"=.@@-;-&>",
"=.@@-')&>",
"=.@@-'!&>",
"=.@@-~{&>",
"=.@@-]{&>",
"=.@@-^{&>",
"=.@@-'-->",
"=.@@-))--",
"------{/-",
"------{&-",
"------~&-",
"-.@@(-^&-",
"-_-{#-{/-",
"-:-{#-{.-",
"-~-{#-{&-",
"-~-<#-{&-",
"----#-~&-",
"-~-{#-[&-",
"-}-{#-{&-",
"-:-{#-{/-",
"-:-<#-)--",
"-:@@#----",
"-{@@#|--1",
"=.@@#'{&>",
"=.@@#'{&>",
"=.-----^>",
"=.23~'-]>",
"=.@4%'-~>",
"=.@56'-&7",
"=.@8%'-&7",
"=.@89'-/-",
"=.@49'-0-",
"=.@a6'---",
"=.@89'-/-",
"=.@a%'-&7",
"=.@b%'-^>",
"=.@@#'{&>",
"=.@@#'{&>",
"=.<-;-{ca",
"=.{---{ca",
"=.{-,-{ca",
"=.{-;-{ca",
"=.{!#-{6a",
"=.~d#-{c4",
"=.~@~-{c8",
"=.{@]-{%8",
"=.(@^-{65",
"=.--#-{%4",
"{--!/-{~3",
"^-.@-----",
"<-@{-----",
"<-@~-----",
"%-@^-|{&>",
"<-.@-'{-_",
"<-!@-'{-:",
"<-@{-'{-~",
"<-@{-'<-~",
"<-@~-'---",
"{-@[-'{-~",
"{-@{-'{-}",
"{-.@-'{-:",
"{--!-'<-:",
"^----'{&:",
"=e--('{&{",
"=.@@#'{&>",
"=.@@#'{&>",
"=.@@#'{&>",
"=.@@#'{&>",
"=.@@#'{&>",
"=.@@#'{&>",
"=.@@#'{&>",
"=.@@#'{&>",
"=.@@#'{&>",
"=.@@#'{&>",
"=.@@#'{&>",
"=.@@#'{&>",
"d.^----->",
"=.]-#~3f>",
"=.~-#%4&>",
"=d@-#65&>",
"=,@-#%8&>",
"=-.-#c8&>",
"=-d-#c4&>",
"=---#6a&>",
"=-.-#c8&>",
"=,@-#%a&>",
"=.^-#%b&>",
"=g@-;-<&>",
"=g@---{&>",
"=g@-,-{&>",
"=g@-;-{&>",
"=h@-#i{&>",
"=g@-#,~&>",
"=g@-~'~&>",
"=%@-]'{&>",
"=h@-^'^&>",
"=%@-#--&>",
"=~@-/i-->",
"-----'|->",
"-----{{->",
"-----~{->",
"=.@+-^{->",
"_-{@-'|->",
":-{@-')->",
"~-{@-{{->",
"~-<@-{{->",
"---@-~{->",
"~-{@-[{->",
"}-{@-{{->",
":-{@-'|->",
":-<@-i-->",
":.@@---->",
"{.@@(--j>",
"=.@@#'{&>",
"=.@@#'{&>",
"=-----^&>",
"=k3~#-]&>",
"=.4%#-~&>",
"=.56#-{0>",
"=.8%#-{.>",
"=.89#-|->",
"=.49#-!->",
"=.a6#--->",
"=.89#-|->",
"=.a%#-{.>",
"=.b%#-^&>",
"=.@@#'{&>",
"=.@@#'{&>",
"=<-.-'la>",
"={---'la>",
"={-d-'la>",
"={-.-'la>",
"={!@-'la>",
"=~d@-'l4>",
"=~@~-'l8>",
"={@]-'%8>",
"=/@^-'l5>",
"=--@-'%4>",
"--!m-'~3>",
"-n@------",
"-.{------",
"-.~------",
"-.^-('{&-",
"-n@-#{-_-",
"-,@-#{-:-",
"-.{-#{-~-",
"-.{-#<-~-",
"-.~-#----",
"-.[-#{-~-",
"-.{-#{-}-",
"-n@-#{-:-",
"--!-#<-:-",
"----#'{:-",
"o--+#'{{-",
"=.@@#'{&>",
"=.@@#'{&>",
"=^-----&>",
"=]-@~3l&>",
"=~-@%4{&>",
"7.-@65{&>",
"7.-@%8{&>",
"-n-@98{&>",
"-d-@94{&>",
"---@6a{&>",
"-n-@98{&>",
"7.-@%a{&>",
"=^-@%b{&>",
" .+@#$%&*",
" .+@#$%&*",
" .+@#$%&*",
" .+@#$%&*",
" .+@#$%&*",
" .+@#$%&*",
" .+@#$%&*",
" .+@#$%&*",
" .+@#$%&*",
" .+@#$%&*",
" .+@#$%&*",
" .+@#$%&*",
" .+@#$%&*",
" .+@#$%&*",
" .+@#$%&*",
" .+@#$%&*",
" .+@#$%&*",
" .+@#$%&*",
" .+@#$%&*",
" .+@#$%&*",
" .+@#$%&*",
" .+@#$%&*",
" .+@#$%&*",
" .+@#$%&*",
" .+@#$%&*",
" .+@#$%&*",
" .+@#$%&*",
" .+@#$%&*",
" .+@#$%&*",
" .+@#$%&*",
" .+@#$%&*",
" .+@#$%&*",
" .+@#$%&*",
" .+@#$%&*",
" .+@#$%&*",
" .+@#$%&*",
" .+@#$%&*",
" .+@#$%&*",
" .+@#$%&*",
" .+@#$%&*",
" .+@#$%&*",
" .+@#$%&*",
" .+@#$%&*",
" .+@#$%&*",
" .+@#$%&*",
" .+@#$%&*",
" .+@#$%&*",
" .+@#$%&*",
" .+@#$%&*",
" .+@#$%&*",
" .+@#$%&*",
" .+@#$%&*",
" .+@#$%&*",
" .+@#$%&*",
" .+@#$%&*",
" .+@#$%&*",
" .+@#$%&*",
" .+@#$%&*",
" .+@#$%&*",
" .+@#$%&*",
" .+@#$%&*",
" .+@#$%&*",
" .+@#$%&*",
" .+@#$%&*",
" .+@#$%&*",
" .+@#$%&*",
" .+@#$%&*",
" .+@#$%&*",
" .+@#$%&*",
" .+@#$%&*",
" .+@#$%&*",
" .+@#$%&*",
" .+@#$%&*",
" .+@#$%&*",
" .+@#$%&*",
" .+@#$%&*",
" .+@#$%&*",
" .+@#$%&*",
" .+@#$%&*",
" .+@#$%&*",
" .+@#$%&*",
" .+@#$%&*",
" .+@#$%&*",
" .+@#$%&*",
" .+@#$%&*",
" .+@#$%&*",
" .+@#$%&*",
" .+@#$%&*",
" .+@#$%&*",
" .+@#$%&*",
" .+@#$%&*",
" .+@#$%&*",
" .+@#$%&*",
" .+@#$%&*",
" .+@#$%&*",
" .+@#$%&*",
" .+@#$%&*",
" .+@#$%&*",
" .+@#$%&*",
" .+@#$%&*",
" .+@#$%&*",
" .+@#$%&*",
" .+@#$%&*",
" .+@#$%&*",
" .+@#$%&*",
" .+@#$%&*",
" .+@#$%&*",
" .+@#$%&*",
" .+@#$%&*",
" .+@#$%&*",
" .+@#$%&*",
" .+@#$%&*",
" .+@#$%&*",
" .+@#$%&*",
" .+@#$%&*",
" .+@#$%&*",
" .+@#$%&*",
" .+@#$%&*",
" .+@#$%&*",
" .+@#$%&*",
" .+@#$%&*",
" .+@#$%&*",
" .+@#$%&*",
" .+@#$%&*",
" .+@#$%&*",
" .+@#$%&*",
" .+@#$%&*",
" .+@#$%&*",
" .+@#$%&*",
" .+@#$%&*",
" .+@#$%&*",
" .+@#$%&*",
" .+@#$%&*",
" .+@#$%&*",
" .+@#$%&*",
" .+@#$%&*",
" .+@#$%&*",
" .+@#$%&*",
" .+@#$%&*",
" .+@#$%&*",
" .+@#$%&*",
" .+@#$%&*",
" .+@#$%&*",
" .+@#$%&*",
" .+@#$%&*",
" .+@#$%&*",
" .+@#$%&*",
" .+@#$%&*",
" .+@#$%&*",
" .+@#$%&*",
" .+@#$%&*",
" .+@#$%&*",
" .+@#$%&*",
" .+@#$%&*",
" .+@#$%&*",
" .+@#$%&*",
" .+@#$%&*",
" .+@#$%&*",
" .+@#$%&*",
" .+@#$%&*",
" .+@#$%&*",
" .+@#$%&*",
" .+@#$%&*",
" .+@#$%&*",
" .+@#$%&*",
" .+@#$%&*",
" .+@#$%&*",
" .+@#$%&*",
" .+@#$%&*",
" .+@#$%&*",
" .+@#$%&*",
" .+@#$%&*",
" .+@#$%&*",
" .+@#$%&*",
" .+@#$%&*",
" .+@#$%&*",
" .+@#$%&*",
" .+@#$%&*",
" .+@#$%&*",
" .+@#$%&*",
" .+@#$%&*",
" .+@#$%&*",
" .+@#$%&*",
" .+@#$%&*",
" .+@#$%&*",
" .+@#$%&*",
" .+@#$%&*",
" .+@#$%&*",
" .+@#$%&*",
" .+@#$%&*",
" .+@#$%&*",
" .+@#$%&*",
" .+@#$%&*",
" .+@#$%&*",
" .+@#$%&*",
" .+@#$%&*",
" .+@#$%&*",
" .+@#$%&*",
" .+@#$%&*",
" .+@#$%&*",
" .+@#$%&*",
" .+@#$%&*",
" .+@#$%&*",
" .+@#$%&*",
" .+@#$%&*",
" .+@#$%&*",
" .+@#$%&*",
" .+@#$%&*",
" .+@#$%&*",
" .+@#$%&*",
" .+@#$%&*",
" .+@#$%&*",
" .+@#$%&*",
" .+@#$%&*",
" .+@#$%&*",
" .+@#$%&*",
" .+@#$%&*",
" .+@#$%&*",
" .+@#$%&*",
" .+@#$%&*",
" .+@#$%&*",
" .+@#$%&*",
" .+@#$%&*",
" .+@#$%&*",
" .+@#$%&*",
" .+@#$%&*",
" .+@#$%&*",
" .+@#$%&*",
" .+@#$%&*",
" .+@#$%&*",
" .+@#$%&*",
" .+@#$%&*",
" .+@#$%&*",
" .+@#$%&*",
" .+@#$%&*",
" .+@#$%&*",
" .+@#$%&*",
" .+@#$%&*",
" .+@#$%&*",
" .+@#$%&*",
" .+@#$%&*",
" .+@#$%&*",
" .+@#$%&*",
" .+@#$%&*",
" .+@#$%&*",
" .+@#$%&*",
" .+@#$%&*",
" .+@#$%&*",
" .+@#$%&*",
" .+@#$%&*",
" .+@#$%&*",
" .+@#$%&*",
" .+@#$%&*",
" .+@#$%&*",
" .+@#$%&*",
" .+@#$%&*",
" .+@#$%&*",
" .+@#$%&*",
" .+@#$%&*",
" .+@#$%&*",
" .+@#$%&*",
" .+@#$%&*",
" .+@#$%&*",
" .+@#$%&*",
" .+@#$%&*",
" .+@#$%&*",
" .+@#$%&*",
" .+@#$%&*",
" .+@#$%&*",
" .+@#$%&*",
" .+@#$%&*",
" .+@#$%&*",
" .+@#$%&*",
" .+@#$%&*",
" .+@#$%&*",
" .+@#$%&*",
" .+@#$%&*",
" .+@#$%&*",
" .+@#$%&*",
" .+@#$%&*",
" .+@#$%&*",
" .+@#$%&*",
" .+@#$%&*",
" .+@#$%&*",
" .+@#$%&*",
" .+@#$%&*",
" .+@#$%&*",
" .+@#$%&*",
" .+@#$%&*",
" .+@#$%&*",
" .+@#$%&*",
" .+@#$%&*",
" .+@#$%&*",
" .+@#$%&*",
" .+@#$%&*",
" .+@#$%&*",
" .+@#$%&*",
" .+@#$%&*",
" .+@#$%&*",
" .+@#$%&*",
" .+@#$%&*",
" .+@#$%&*",
" .+@#$%&*",
" .+@#$%&*",
" .+@#$%&*"};
