/* XPM */
static char * maximize_inactive_xpm[] = {
"36 32 239 2",
"  	c #4B4B4B",
". 	c #4C4C4C",
"+ 	c #4D4D4D",
"@ 	c #4E4E4E",
"# 	c #4A4A4A",
"$ 	c #494949",
"% 	c #4F4F4F",
"& 	c #444545",
"* 	c #3F4040",
"= 	c #3C3C3E",
"- 	c #3B3B3B",
"; 	c #3A3A3B",
"> 	c #3D3D3E",
", 	c #525252",
"' 	c #535353",
") 	c #545454",
"! 	c #555555",
"~ 	c #404040",
"{ 	c #303030",
"] 	c #202020",
"^ 	c #1C1D1E",
"/ 	c #1C1E20",
"( 	c #1D1F21",
"_ 	c #1C1D1F",
": 	c #2F3030",
"< 	c #565656",
"[ 	c #353637",
"} 	c #2B2C2D",
"| 	c #3C3C3C",
"1 	c #5C5C5C",
"2 	c #646464",
"3 	c #656565",
"4 	c #636363",
"5 	c #676767",
"6 	c #6A6A6A",
"7 	c #606060",
"8 	c #424242",
"9 	c #2C2D2E",
"0 	c #575757",
"a 	c #505050",
"b 	c #585858",
"c 	c #404141",
"d 	c #323334",
"e 	c #5B5B5B",
"f 	c #7B7B7B",
"g 	c #8A8A8A",
"h 	c #9C9C9C",
"i 	c #A0A0A0",
"j 	c #929292",
"k 	c #989898",
"l 	c #9B9B9B",
"m 	c #939393",
"n 	c #8B8B8B",
"o 	c #7C7C7C",
"p 	c #727272",
"q 	c #323436",
"r 	c #434444",
"s 	c #595959",
"t 	c #5D5D5D",
"u 	c #505252",
"v 	c #30373B",
"w 	c #696969",
"x 	c #8D8D8D",
"y 	c #9A9A9A",
"z 	c #BDBDBD",
"A 	c #D1D1D1",
"B 	c #D3D3D3",
"C 	c #C8C8C8",
"D 	c #B3B3B3",
"E 	c #9D9D9D",
"F 	c #9F9F9F",
"G 	c #737373",
"H 	c #383838",
"I 	c #515252",
"J 	c #6F6F6F",
"K 	c #373B3D",
"L 	c #949494",
"M 	c #C9C9C9",
"N 	c #D2D2D2",
"O 	c #BFBFBF",
"P 	c #969696",
"Q 	c #A1A1A1",
"R 	c #A2A2A2",
"S 	c #A3A3A3",
"T 	c #383C3E",
"U 	c #707070",
"V 	c #686868",
"W 	c #747474",
"X 	c #727373",
"Y 	c #2E3337",
"Z 	c #D0D0D0",
"` 	c #A9A9A9",
" .	c #A4A4A4",
"..	c #A5A5A5",
"+.	c #2F373C",
"@.	c #757575",
"#.	c #616161",
"$.	c #5F5F5F",
"%.	c #6D6D6D",
"&.	c #676868",
"*.	c #31363A",
"=.	c #7A7A7A",
"-.	c #A8A8A8",
";.	c #A6A6A6",
">.	c #A7A7A7",
",.	c #808080",
"'.	c #333C42",
").	c #6E6E6E",
"!.	c #666666",
"~.	c #5E5E5F",
"{.	c #393D3F",
"].	c #787878",
"^.	c #8E8E8E",
"/.	c #7F7F7F",
"(.	c #3A4249",
"_.	c #5A5A5A",
":.	c #45494B",
"<.	c #AAAAAA",
"[.	c #6D7071",
"}.	c #474F55",
"|.	c #484E52",
"1.	c #48494A",
"2.	c #454A4E",
"3.	c #545A60",
"4.	c #484E54",
"5.	c #373D3F",
"6.	c #ABABAB",
"7.	c #ACACAC",
"8.	c #363C40",
"9.	c #5A5D5E",
"0.	c #515151",
"a.	c #464B4F",
"b.	c #3F484D",
"c.	c #64696C",
"d.	c #ADADAD",
"e.	c #9E9E9E",
"f.	c #666767",
"g.	c #485157",
"h.	c #4C4E4E",
"i.	c #454F57",
"j.	c #2E3A41",
"k.	c #868686",
"l.	c #AEAEAE",
"m.	c #AFAFAF",
"n.	c #858585",
"o.	c #333D44",
"p.	c #575B5D",
"q.	c #474949",
"r.	c #34414B",
"s.	c #4C5457",
"t.	c #888888",
"u.	c #525354",
"v.	c #444B50",
"w.	c #484949",
"x.	c #484848",
"y.	c #474747",
"z.	c #424546",
"A.	c #2A353D",
"B.	c #B0B0B0",
"C.	c #B1B1B1",
"D.	c #8F8F8F",
"E.	c #848484",
"F.	c #32393F",
"G.	c #444747",
"H.	c #444444",
"I.	c #3A3E3F",
"J.	c #2D3135",
"K.	c #B2B2B2",
"L.	c #959595",
"M.	c #878787",
"N.	c #7D7D7D",
"O.	c #2D3941",
"P.	c #3C3E3E",
"Q.	c #454545",
"R.	c #434343",
"S.	c #414242",
"T.	c #323536",
"U.	c #333333",
"V.	c #767676",
"W.	c #979797",
"X.	c #777777",
"Y.	c #2C3941",
"Z.	c #333536",
"`.	c #3F3F3F",
" +	c #3D3D3D",
".+	c #2F3031",
"++	c #6C6C6C",
"@+	c #919191",
"#+	c #999999",
"$+	c #909090",
"%+	c #2A363E",
"&+	c #313334",
"*+	c #3E3E3E",
"=+	c #393939",
"-+	c #303031",
";+	c #2C2E31",
">+	c #3A3A3A",
",+	c #2A3035",
"'+	c #414141",
")+	c #373737",
"!+	c #353535",
"~+	c #282A2C",
"{+	c #2E2E2E",
"]+	c #5E5E5E",
"^+	c #343434",
"/+	c #272B2D",
"(+	c #323232",
"_+	c #292929",
":+	c #272B2E",
"<+	c #2A2B2C",
"[+	c #2C2C2C",
"}+	c #2F2F2F",
"|+	c #26282B",
"1+	c #252A2D",
"2+	c #2B2B2B",
"3+	c #282828",
"4+	c #252525",
"5+	c #282624",
"6+	c #2A2827",
"7+	c #232423",
"8+	c #1E1F21",
"9+	c #282724",
"0+	c #262626",
"a+	c #242424",
"b+	c #232323",
"c+	c #222222",
"d+	c #1E1E1E",
"e+	c #1D1D1D",
"f+	c #1F1D1D",
"g+	c #1E2121",
"h+	c #20201E",
"i+	c #272727",
"j+	c #1F1F1F",
"k+	c #1B1B1B",
"l+	c #191919",
"m+	c #181818",
"n+	c #161616",
"o+	c #151515",
"p+	c #141414",
"                                                                        ",
"                                                                        ",
". . . . + + + + + + + + + + + + + + + + + + + + + + + + + + + + + + + + ",
"@ @ @ @ @ @ @ @ @ @ @ +     # # $ $ $ $ # #     + @ @ @ @ @ @ @ @ @ @ @ ",
"% @ +         + + + + + $ & * = - ; ; - > * & $ + + + + +       + + @ + ",
"$   @ % , ' ) ! % ~ { ] ^ / ( ( / / / / ( ( / _ ] : ~ % ! ) ' % + + + + ",
", ' ) ! < < @ [ } | # ) 1 2 3 4 2 2 2 3 5 6 2 2 7 ! 8 9 [ @ 0 0 ' , , a ",
"' ) ! < b c d e 5 f g h i j k h h h h h h h l k m n o p 7 q r s 0 ! ) ' ",
") 0 t 2 u v w x y z A B C D n E F F F F F F i i F F F E n G H I 2 t b ) ",
"e 4 J f K , k L M N O E P F Q R R R R R R R S S S R R R Q P 1 T f U 4 1 ",
"7 V W X Y J Q R Z ` P  . . . . . . . . . ........... . . .S G +.X @.V #.",
"$.3 %.&.*.=.R  .-.y ;.;.;.;.;.;.;.....;.;.;.;.;.>.>.;.;.;...,.'.&.).!.$.",
"t #.2 ~.{.].;.^.L >.>.>.>.>.>.>.>.>.>.>.>.>.-.-.-.-.-.-.-.>./.(.~.2 #.t ",
"s _.t ! :.w -...>.` -.` ` ` ` ` ` ` ` ` ` <.<.<.<.<.` ` ` -.[.}.! t _.s ",
") ! ! , |.1. .<.<.<.<.<.<.<.<.<.<.<.<.<.<.<.<.<.<.<.<.<.<.S 2.3., 0 0 ) ",
", , a a 4.5.^.<.6.6.6.6.6.6.6.6.6.6.6.6.6.7.7.7.7.7.6.6.` n 8.9.0.0., , ",
"% @ @ @ a.b.c...6.d.d.d.d.d.d.d.d.d.d.d.d.d.d.d.d.d.d.` e.f.g.h.@ @ @ % ",
"@ + + . $ i.j.k...7.l.m.m.m.l.l.m.m.m.m.m.m.m.m.m.l.-.h n.o.p.$ . + + @ ",
"+ . # # # q.r.s.^.Q 7.m.m.m.m.m.m.m.m.m.m.m.m.m.m.;.P t.u.v.w.# # # . + ",
". # # $ x.y.z.A.$.t.l <.m.B.B.B.B.B.B.B.C.C.B.7.F D.E.#.F.G.y.x.$ # # . ",
"# # $ x.y.y.H.I.J.$./.j S l.B.C.K.K.K.K.C.m...L.M.N.t O.P.H.y.y.x.$ # # ",
"# $ x.y.y.Q.R.S.T.U.s V.n.W.;.d.m.m.m.7...k t.N.X.0 Y.Z.S.R.Q.y.y.x.$ # ",
"$ x.y.Q.H.R.8 `. +d .+. ++].E.@+W.#+P $+n.f V.).@ %+&+ +~ 8 R.H.Q.y.x.$ ",
"y.Q.H.R.8 `.*+ +- =+-+;+>+e V U W @.@.G J w _.`.,+-+=+|  +*+'+8 R.H.y.$ ",
"R.8 8 `.*+ +- >+H )+!+{ ~+{+- % _.]+t _.@ - ^+/+{ !+)+H >+|  +*+'+8 R.H.",
" +- >+>+=+H )+!+^+U.(+{ {+_+:+<+[+{+}+[+|+1+_+{+{ (+U.^+!+)+H =+>+>+>+H ",
"(+U.U.U.(+(+{ }+{+{+2+_+3+4+5+6+7+8+8+7+6+9+4+3+_+2+{+{+}+{ (+(+U.U.{ {+",
"0+0+0+0+4+4+a+a+a+b+b+c+] d+e+f+g+h+h+g+f+e+d+] c+b+b+a+a+a+4+4+i+i+i+i+",
"b+b+b+b+b+b+b+c+] j+d+k+l+m+n+n+o+p+p+o+n+n+m+l+k+d+j+b+b+b+b+b+b+b+b+b+",
"j+j+j+j+j+j+j+j+j+j+j+j+j+j+j+j+j+j+j+j+j+j+j+j+j+j+j+j+j+j+j+j+j+j+j+j+",
"k+k+k+k+k+k+k+k+k+k+k+k+k+k+k+k+k+k+k+k+k+k+k+k+k+k+k+k+k+k+k+k+k+k+k+k+",
"l+l+l+l+l+l+l+l+l+l+l+l+l+l+l+l+l+l+l+l+l+l+l+l+l+l+l+l+l+l+l+l+l+l+l+l+"};
