/* XPM */
static char * maximize_prelight_xpm[] = {
"36 32 418 2",
"  	c #4B4B4B",
". 	c #4C4C4C",
"+ 	c #4D4D4D",
"@ 	c #4E4E4E",
"# 	c #4A4A4A",
"$ 	c #494949",
"% 	c #4F4F4F",
"& 	c #444545",
"* 	c #3F4040",
"= 	c #3C3C3E",
"- 	c #3B3B3B",
"; 	c #3A3A3B",
"> 	c #3D3D3E",
", 	c #525252",
"' 	c #535353",
") 	c #545454",
"! 	c #555555",
"~ 	c #404040",
"{ 	c #2E3131",
"] 	c #1F2020",
"^ 	c #161E24",
"/ 	c #10202B",
"( 	c #0E212C",
"_ 	c #0D212D",
": 	c #0D212C",
"< 	c #0D212B",
"[ 	c #565656",
"} 	c #343638",
"| 	c #1A3039",
"1 	c #1A4658",
"2 	c #235E73",
"3 	c #2B7087",
"4 	c #2E7890",
"5 	c #408B9F",
"6 	c #4F97A6",
"7 	c #5799A6",
"8 	c #5D9EA8",
"9 	c #60A1AB",
"0 	c #5EA0AA",
"a 	c #5B9FAC",
"b 	c #539EAD",
"c 	c #408BA0",
"d 	c #328199",
"e 	c #2F778F",
"f 	c #27657C",
"g 	c #1C4B5C",
"h 	c #1B3038",
"i 	c #575757",
"j 	c #505050",
"k 	c #585858",
"l 	c #404141",
"m 	c #223641",
"n 	c #2A6C80",
"o 	c #32899C",
"p 	c #3CA3B6",
"q 	c #60B3BF",
"r 	c #95C7CB",
"s 	c #A4CCCE",
"t 	c #89C0C1",
"u 	c #82CACA",
"v 	c #85CFCF",
"w 	c #86CFCF",
"x 	c #75CBCE",
"y 	c #59C5CB",
"z 	c #42B9C6",
"A 	c #3CA4B7",
"B 	c #3896AB",
"C 	c #2F778D",
"D 	c #233741",
"E 	c #434444",
"F 	c #595959",
"G 	c #5D5D5D",
"H 	c #646464",
"I 	c #505252",
"J 	c #233B45",
"K 	c #318396",
"L 	c #44BBC6",
"M 	c #81C5C6",
"N 	c #DAE5E6",
"O 	c #FBFBFB",
"P 	c #FDFDFD",
"Q 	c #EFF1F2",
"R 	c #CFDADC",
"S 	c #84B6B7",
"T 	c #88D0D0",
"U 	c #8AD4D4",
"V 	c #8BD4D4",
"W 	c #8BD5D5",
"X 	c #8CD5D5",
"Y 	c #71D4D4",
"Z 	c #4FD4D4",
"` 	c #4CD1D1",
" .	c #43B9C5",
"..	c #3690A3",
"+.	c #253C46",
"@.	c #515252",
"#.	c #5B5B5B",
"$.	c #636363",
"%.	c #6F6F6F",
"&.	c #7B7B7B",
"*.	c #363B3E",
"=.	c #2A6B7C",
"-.	c #49C9CE",
";.	c #67C1C2",
">.	c #EFF2F3",
",.	c #FCFCFC",
"'.	c #E2E7E8",
").	c #A6C7C8",
"!.	c #86C7C8",
"~.	c #8AD3D3",
"{.	c #8CD6D6",
"].	c #8CD7D7",
"^.	c #8BD7D7",
"/.	c #8CD7D8",
"(.	c #8DD7D8",
"_.	c #8ED8D8",
":.	c #8ED7D8",
"<.	c #76D7D8",
"[.	c #51D7D7",
"}.	c #50D6D6",
"|.	c #49C7CC",
"1.	c #2D7283",
"2.	c #383C3E",
"3.	c #707070",
"4.	c #5C5C5C",
"5.	c #606060",
"6.	c #686868",
"7.	c #747474",
"8.	c #727373",
"9.	c #2A353D",
"0.	c #3893A3",
"a.	c #A6CACB",
"b.	c #F9FAFA",
"c.	c #BFD0D1",
"d.	c #86C6C6",
"e.	c #8ED9D9",
"f.	c #8FDADA",
"g.	c #8EDADA",
"h.	c #8FDBDB",
"i.	c #90DBDB",
"j.	c #91DADA",
"k.	c #71DADA",
"l.	c #53D9D9",
"m.	c #51D8D8",
"n.	c #3893A4",
"o.	c #2E373D",
"p.	c #757575",
"q.	c #616161",
"r.	c #5F5F5F",
"s.	c #656565",
"t.	c #6D6D6D",
"u.	c #676868",
"v.	c #2C3841",
"w.	c #3EA1B3",
"x.	c #52D7D8",
"y.	c #AFCBCC",
"z.	c #BECED0",
"A.	c #88CBCC",
"B.	c #91DCDC",
"C.	c #90DCDC",
"D.	c #8FDCDC",
"E.	c #90DDDD",
"F.	c #91DDDD",
"G.	c #92DDDD",
"H.	c #92DCDC",
"I.	c #8CDCDC",
"J.	c #5BDCDC",
"K.	c #53DBDB",
"L.	c #3EA1B4",
"M.	c #323C43",
"N.	c #6E6E6E",
"O.	c #666666",
"P.	c #5E5E5F",
"Q.	c #363F44",
"R.	c #3D9EB0",
"S.	c #53DCDC",
"T.	c #74B9BA",
"U.	c #86C4C4",
"V.	c #93DDDD",
"W.	c #92DEDE",
"X.	c #91DEDE",
"Y.	c #90DEDE",
"Z.	c #91DFDF",
"`.	c #92DFDF",
" +	c #93DFDF",
".+	c #94DEDE",
"++	c #95DEDE",
"@+	c #76DEDE",
"#+	c #54DDDD",
"$+	c #3D9CAE",
"%+	c #394249",
"&+	c #5A5A5A",
"*+	c #41494E",
"=+	c #37889A",
"-+	c #54DEDE",
";+	c #85DBDB",
">+	c #94DDDD",
",+	c #94DFDF",
"'+	c #93E0E0",
")+	c #92E0E0",
"!+	c #91E0E0",
"~+	c #92E1E1",
"{+	c #93E1E1",
"]+	c #94E1E1",
"^+	c #95E0E0",
"/+	c #96E0E0",
"(+	c #88DFDF",
"_+	c #54DFDF",
":+	c #368698",
"<+	c #474F55",
"[+	c #474E53",
"}+	c #285A69",
"|+	c #51DADF",
"1+	c #95E1E1",
"2+	c #93E2E2",
"3+	c #92E2E2",
"4+	c #94E2E2",
"5+	c #95E2E2",
"6+	c #96E2E2",
"7+	c #50D8DD",
"8+	c #275768",
"9+	c #545A60",
"0+	c #484E54",
"a+	c #344046",
"b+	c #48BBD0",
"c+	c #97E3E3",
"d+	c #96E3E3",
"e+	c #95E3E3",
"f+	c #94E3E3",
"g+	c #93E3E3",
"h+	c #95E4E4",
"i+	c #96E4E4",
"j+	c #46B7CA",
"k+	c #2F3F49",
"l+	c #5A5D5E",
"m+	c #515151",
"n+	c #464B4F",
"o+	c #3F484D",
"p+	c #347F93",
"q+	c #8DDBDC",
"r+	c #98E5E5",
"s+	c #97E5E5",
"t+	c #96E5E5",
"u+	c #95E5E5",
"v+	c #94E5E5",
"w+	c #87D2D3",
"x+	c #317A8C",
"y+	c #475159",
"z+	c #4C4E4E",
"A+	c #454F57",
"B+	c #273C47",
"C+	c #72BEC8",
"D+	c #97E4E4",
"E+	c #98E6E6",
"F+	c #97E7E7",
"G+	c #96E6E6",
"H+	c #96E7E7",
"I+	c #98E7E7",
"J+	c #88CFCF",
"K+	c #6FB7C2",
"L+	c #243F4E",
"M+	c #575B5D",
"N+	c #474949",
"O+	c #34414B",
"P+	c #427B89",
"Q+	c #80C4C8",
"R+	c #8DD6D6",
"S+	c #98E8E8",
"T+	c #99E8E8",
"U+	c #97E8E8",
"V+	c #98E9E9",
"W+	c #99E9E9",
"X+	c #84C8C8",
"Y+	c #7BBCC1",
"Z+	c #3D7483",
"`+	c #434B51",
" @	c #484949",
".@	c #484848",
"+@	c #474747",
"@@	c #424546",
"#@	c #2A3944",
"$@	c #5E9BA6",
"%@	c #7CBCBF",
"&@	c #88CECE",
"*@	c #9AEAEA",
"=@	c #99EAEA",
"-@	c #9AEBEB",
";@	c #7EBEBE",
">@	c #77B4B8",
",@	c #58939E",
"'@	c #334049",
")@	c #444747",
"!@	c #444444",
"~@	c #3A3E3F",
"{@	c #314A58",
"]@	c #639EA7",
"^@	c #75B1B5",
"/@	c #80C2C2",
"(@	c #97E6E6",
"_@	c #9BEBEB",
":@	c #9AECEC",
"<@	c #82C6C6",
"[@	c #78B3B3",
"}@	c #73AEB2",
"|@	c #5F99A3",
"1@	c #3A5462",
"2@	c #3C3E3E",
"3@	c #454545",
"4@	c #434343",
"5@	c #414242",
"6@	c #323537",
"7@	c #335462",
"8@	c #5F99A2",
"9@	c #70A7AD",
"0@	c #77B3B4",
"a@	c #83C9C9",
"b@	c #84CACA",
"c@	c #79B5B5",
"d@	c #74A8A9",
"e@	c #70A9AF",
"f@	c #5B95A0",
"g@	c #3C5D6C",
"h@	c #333536",
"i@	c #424242",
"j@	c #3F3F3F",
"k@	c #3D3D3D",
"l@	c #313334",
"m@	c #344E5C",
"n@	c #538B98",
"o@	c #6CA0A7",
"p@	c #73A5A9",
"q@	c #78B3B6",
"r@	c #80C3C5",
"s@	c #84CBCB",
"t@	c #85CCCD",
"u@	c #83C9CA",
"v@	c #7EC1C2",
"w@	c #78B3B5",
"x@	c #75A6A8",
"y@	c #72A3A7",
"z@	c #6BA5AD",
"A@	c #518B98",
"B@	c #3A5562",
"C@	c #3E3E3E",
"D@	c #393939",
"E@	c #303031",
"F@	c #313F48",
"G@	c #396D7C",
"H@	c #6398A2",
"I@	c #6D9AA1",
"J@	c #719EA4",
"K@	c #73A3A8",
"L@	c #73A2A7",
"M@	c #749FA4",
"N@	c #719DA3",
"O@	c #6B9FA6",
"P@	c #609AA5",
"Q@	c #3A7281",
"R@	c #354149",
"S@	c #3C3C3C",
"T@	c #414141",
"U@	c #3A3A3A",
"V@	c #383838",
"W@	c #373737",
"X@	c #353535",
"Y@	c #303030",
"Z@	c #252C31",
"`@	c #244455",
" #	c #366979",
".#	c #538592",
"+#	c #62909B",
"@#	c #67939C",
"##	c #66949E",
"$#	c #5F939E",
"%#	c #4F8795",
"&#	c #336879",
"*#	c #27495B",
"=#	c #262B2E",
"-#	c #343434",
";#	c #333333",
">#	c #323232",
",#	c #2E2E2E",
"'#	c #292929",
")#	c #212D37",
"!#	c #183242",
"~#	c #18384A",
"{#	c #193C4E",
"]#	c #183D50",
"^#	c #183A4D",
"/#	c #183344",
"(#	c #232C33",
"_#	c #2F2F2F",
":#	c #2B2B2B",
"<#	c #282828",
"[#	c #252525",
"}#	c #282624",
"|#	c #2A2827",
"1#	c #222423",
"2#	c #1C1F23",
"3#	c #282724",
"4#	c #262626",
"5#	c #242424",
"6#	c #232323",
"7#	c #222222",
"8#	c #202020",
"9#	c #1E1E1E",
"0#	c #1D1D1D",
"a#	c #1F1D1D",
"b#	c #1E2121",
"c#	c #20201E",
"d#	c #272727",
"e#	c #1F1F1F",
"f#	c #1B1B1B",
"g#	c #191919",
"h#	c #181818",
"i#	c #161616",
"j#	c #151515",
"k#	c #141414",
"                                                                        ",
"                                                                        ",
". . . . + + + + + + + + + + + + + + + + + + + + + + + + + + + + + + + + ",
"@ @ @ @ @ @ @ @ @ @ @ +     # # $ $ $ $ # #     + @ @ @ @ @ @ @ @ @ @ @ ",
"% @ +         + + + + + $ & * = - ; ; - > * & $ + + + + +       + + @ + ",
"$   @ % , ' ) ! % ~ { ] ^ / ( _ : < < : _ ( / ^ ] { ~ % ! ) ' % + + + + ",
", ' ) ! [ [ @ } | 1 2 3 4 5 6 7 8 9 9 0 a b c d e f g h } @ i i ' , , j ",
"' ) ! [ k l m n o p q r s t u v w w w w w w w x y z A B C D E F i ! ) ' ",
") i G H I J K L M N O P Q R S T U U U U V V W X U Y Z `  ...+.@.H G k ) ",
"#.$.%.&.*.=.-.;.>.,.'.).!.~.{.].].^.^././.(._._._.:.<.[.}.|.1.2.&.3.$.4.",
"5.6.7.8.9.0.}.a.b.c.d.e.f.g.g.g.g.g.g.g.g.h.h.h.h.i.j.k.l.m.n.o.8.p.6.q.",
"r.s.t.u.v.w.x.y.z.A.B.B.C.C.C.C.C.D.D.C.C.E.E.E.F.G.H.I.J.K.L.M.u.N.O.r.",
"G q.H P.Q.R.S.T.U.V.W.W.X.X.X.X.X.Y.Y.X.X.X.Z.Z.`. +.+++@+#+$+%+P.H q.G ",
"F &+G ! *+=+-+;+>+,+,+'+)+)+)+)+)+!+!+)+)+~+~+~+{+]+^+/+(+_+:+<+! G &+F ",
") ! ! , [+}+|+~+1+1+1+]+{+{+{+2+2+3+3+2+2+2+4+4+4+5+6+6+~+7+8+9+, i i ) ",
", , j j 0+a+b+1+c+c+d+e+e+f+f+f+g+g+g+g+f+h+h+h+h+i+c+c+,+j+k+l+m+m+, , ",
"% @ @ @ n+o+p+q+c+r+s+t+u+u+u+u+v+v+v+v+t+t+t+t+t+s+r+^+w+x+y+z+@ @ @ % ",
"@ + + . $ A+B+C+i.D+E+F+F+F+G+G+H+H+H+H+F+F+F+I+I+E+,+J+K+L+M+$ . + + @ ",
"+ . # # # N+O+P+Q+R+D+S+T+T+T+S+S+U+U+S+V+W+W+W+F+B.X+Y+Z+`+ @# # # . + ",
". # # $ .@+@@@#@$@%@&@]+T+*@*@*@=@=@=@=@-@-@*@i+V ;@>@,@'@)@+@.@$ # # . ",
"# # $ .@+@+@!@~@{@]@^@/@_.(@*@_@:@:@:@:@-@I+i.<@[@}@|@1@2@!@+@+@.@$ # # ",
"# $ .@+@+@3@4@5@6@7@8@9@0@a@C.t+U+S+F+h+h.b@c@d@e@f@g@h@5@4@3@+@+@.@$ # ",
"$ .@+@3@!@4@i@j@k@l@m@n@o@p@q@r@s@t@u@v@w@x@y@z@A@B@l@k@~ i@4@!@3@+@.@$ ",
"+@3@!@4@i@j@C@k@- D@E@F@G@H@I@J@K@K@L@M@N@O@P@Q@R@E@D@S@k@C@T@i@4@!@+@$ ",
"4@i@i@j@C@k@- U@V@W@X@Y@Z@`@ #.#+#@###$#%#&#*#=#Y@X@W@V@U@S@k@C@T@i@4@!@",
"k@- U@U@D@V@W@X@-#;#>#Y@,#'#)#!#~#{#]#^#/#(#'#,#Y@>#;#-#X@W@V@D@U@U@U@V@",
">#;#;#;#>#>#Y@_#,#,#:#'#<#[#}#|#1#2#2#1#|#3#[#<#'#:#,#,#_#Y@>#>#;#;#Y@,#",
"4#4#4#4#[#[#5#5#5#6#6#7#8#9#0#a#b#c#c#b#a#0#9#8#7#6#6#5#5#5#[#[#d#d#d#d#",
"6#6#6#6#6#6#6#7#8#e#9#f#g#h#i#i#j#k#k#j#i#i#h#g#f#9#e#6#6#6#6#6#6#6#6#6#",
"e#e#e#e#e#e#e#e#e#e#e#e#e#e#e#e#e#e#e#e#e#e#e#e#e#e#e#e#e#e#e#e#e#e#e#e#",
"f#f#f#f#f#f#f#f#f#f#f#f#f#f#f#f#f#f#f#f#f#f#f#f#f#f#f#f#f#f#f#f#f#f#f#f#",
"g#g#g#g#g#g#g#g#g#g#g#g#g#g#g#g#g#g#g#g#g#g#g#g#g#g#g#g#g#g#g#g#g#g#g#g#"};
