/* XPM */
static char * maximize_active_xpm[] = {
"36 32 407 2",
"  	c #4B4B4B",
". 	c #4C4C4C",
"+ 	c #4D4D4D",
"@ 	c #4E4E4E",
"# 	c #4A4A4A",
"$ 	c #494949",
"% 	c #4F4F4F",
"& 	c #444545",
"* 	c #3F4040",
"= 	c #3C3C3E",
"- 	c #3B3B3B",
"; 	c #3A3A3B",
"> 	c #3D3D3E",
", 	c #525252",
"' 	c #535353",
") 	c #545454",
"! 	c #555555",
"~ 	c #404040",
"{ 	c #2E3131",
"] 	c #1F2020",
"^ 	c #161E24",
"/ 	c #10202B",
"( 	c #0E212C",
"_ 	c #0D212D",
": 	c #0D212C",
"< 	c #0D212B",
"[ 	c #565656",
"} 	c #343638",
"| 	c #1A3039",
"1 	c #1A4658",
"2 	c #235E73",
"3 	c #2B7087",
"4 	c #2E7890",
"5 	c #318299",
"6 	c #308499",
"7 	c #2F8196",
"8 	c #308297",
"9 	c #2F8296",
"0 	c #308498",
"a 	c #32869B",
"b 	c #3389A0",
"c 	c #31829A",
"d 	c #328199",
"e 	c #2F778F",
"f 	c #27657C",
"g 	c #1C4B5C",
"h 	c #1B3038",
"i 	c #575757",
"j 	c #505050",
"k 	c #585858",
"l 	c #404141",
"m 	c #223641",
"n 	c #2A6C80",
"o 	c #32899C",
"p 	c #3CA3B6",
"q 	c #60B3BF",
"r 	c #90C6CB",
"s 	c #98CBCE",
"t 	c #66BFC1",
"u 	c #49CACA",
"v 	c #4BCFCF",
"w 	c #4ACECF",
"x 	c #49CACE",
"y 	c #46C3CB",
"z 	c #42B9C6",
"A 	c #3CA4B7",
"B 	c #3896AB",
"C 	c #2F778D",
"D 	c #233741",
"E 	c #434444",
"F 	c #595959",
"G 	c #5D5D5D",
"H 	c #646464",
"I 	c #505252",
"J 	c #233B45",
"K 	c #318396",
"L 	c #44BBC6",
"M 	c #81C5C6",
"N 	c #DAE5E6",
"O 	c #FBFBFB",
"P 	c #FDFDFD",
"Q 	c #EEF1F2",
"R 	c #CBDADC",
"S 	c #66B6B7",
"T 	c #4DD0D0",
"U 	c #4DD4D4",
"V 	c #4ED4D4",
"W 	c #4FD5D5",
"X 	c #50D5D5",
"Y 	c #4FD4D4",
"Z 	c #4CD1D1",
"` 	c #43B9C5",
" .	c #3690A3",
"..	c #253C46",
"+.	c #515252",
"@.	c #5B5B5B",
"#.	c #636363",
"$.	c #6F6F6F",
"%.	c #7B7B7B",
"&.	c #363B3E",
"*.	c #2A6B7C",
"=.	c #49C9CE",
"-.	c #67C1C2",
";.	c #EFF2F3",
">.	c #FCFCFC",
",.	c #E0E7E8",
"'.	c #95C7C8",
").	c #54C7C8",
"!.	c #4ED3D3",
"~.	c #4FD6D6",
"{.	c #4FD7D7",
"].	c #4ED7D7",
"^.	c #4FD7D8",
"/.	c #50D7D8",
"(.	c #50D8D8",
"_.	c #51D8D8",
":.	c #51D7D8",
"<.	c #52D7D8",
"[.	c #51D7D7",
"}.	c #50D6D6",
"|.	c #49C7CC",
"1.	c #2D7283",
"2.	c #383C3E",
"3.	c #707070",
"4.	c #5C5C5C",
"5.	c #606060",
"6.	c #686868",
"7.	c #747474",
"8.	c #727373",
"9.	c #2A353D",
"0.	c #3893A3",
"a.	c #A6CACB",
"b.	c #F9FAFA",
"c.	c #B8D0D1",
"d.	c #56C6C6",
"e.	c #50D9D9",
"f.	c #51DADA",
"g.	c #50DADA",
"h.	c #50DBDB",
"i.	c #51DBDB",
"j.	c #52DBDB",
"k.	c #53DADA",
"l.	c #53D9D9",
"m.	c #3893A4",
"n.	c #2E373D",
"o.	c #757575",
"p.	c #616161",
"q.	c #5F5F5F",
"r.	c #656565",
"s.	c #6D6D6D",
"t.	c #676868",
"u.	c #2C3841",
"v.	c #3EA1B3",
"w.	c #AECBCC",
"x.	c #B8CED0",
"y.	c #50CBCC",
"z.	c #52DCDC",
"A.	c #51DCDC",
"B.	c #50DCDC",
"C.	c #51DDDD",
"D.	c #52DDDD",
"E.	c #53DDDD",
"F.	c #54DCDC",
"G.	c #53DBDB",
"H.	c #3EA1B4",
"I.	c #323C43",
"J.	c #6E6E6E",
"K.	c #666666",
"L.	c #5E5E5F",
"M.	c #363F44",
"N.	c #3D9EB0",
"O.	c #53DCDC",
"P.	c #63B9BA",
"Q.	c #55C4C4",
"R.	c #54DDDD",
"S.	c #53DEDE",
"T.	c #52DEDE",
"U.	c #51DEDE",
"V.	c #52DFDF",
"W.	c #53DFDF",
"X.	c #54DFDF",
"Y.	c #54DEDE",
"Z.	c #55DEDE",
"`.	c #3D9CAE",
" +	c #394249",
".+	c #5A5A5A",
"++	c #41494E",
"@+	c #37889A",
"#+	c #54DBDB",
"$+	c #55DDDD",
"%+	c #55DFDF",
"&+	c #53E0E0",
"*+	c #52E0E0",
"=+	c #53E1E1",
"-+	c #54E1E1",
";+	c #55E0E0",
">+	c #56E0E0",
",+	c #56DFDF",
"'+	c #368698",
")+	c #474F55",
"!+	c #474E53",
"~+	c #285A69",
"{+	c #51DADF",
"]+	c #56E1E1",
"^+	c #55E1E1",
"/+	c #53E2E2",
"(+	c #52E2E2",
"_+	c #54E2E2",
":+	c #55E2E2",
"<+	c #56E2E2",
"[+	c #50D8DD",
"}+	c #275768",
"|+	c #545A60",
"1+	c #484E54",
"2+	c #344046",
"3+	c #48BBD0",
"4+	c #56E3E3",
"5+	c #55E3E3",
"6+	c #54E3E3",
"7+	c #53E3E3",
"8+	c #54E4E4",
"9+	c #55E4E4",
"0+	c #56E4E4",
"a+	c #46B7CA",
"b+	c #2F3F49",
"c+	c #5A5D5E",
"d+	c #515151",
"e+	c #464B4F",
"f+	c #3F484D",
"g+	c #347F93",
"h+	c #52DBDC",
"i+	c #57E5E5",
"j+	c #56E5E5",
"k+	c #55E5E5",
"l+	c #54E5E5",
"m+	c #53E5E5",
"n+	c #4ED1D3",
"o+	c #317A8C",
"p+	c #475159",
"q+	c #4C4E4E",
"r+	c #454F57",
"s+	c #273C47",
"t+	c #43AFC3",
"u+	c #57E6E6",
"v+	c #56E7E7",
"w+	c #55E7E7",
"x+	c #55E6E6",
"y+	c #54E7E7",
"z+	c #4ECFCF",
"A+	c #41A9BD",
"B+	c #243F4E",
"C+	c #575B5D",
"D+	c #474949",
"E+	c #34414B",
"F+	c #2A6273",
"G+	c #47BCC8",
"H+	c #51D6D6",
"I+	c #56E8E8",
"J+	c #57E8E8",
"K+	c #55E8E8",
"L+	c #56E9E9",
"M+	c #57E9E9",
"N+	c #4BC8C8",
"O+	c #45B4C1",
"P+	c #275D70",
"Q+	c #434B51",
"R+	c #484949",
"S+	c #484848",
"T+	c #474747",
"U+	c #424546",
"V+	c #253640",
"W+	c #33798D",
"X+	c #46B4BF",
"Y+	c #4ECECE",
"Z+	c #57EAEA",
"`+	c #58EBEB",
" @	c #4ABEBE",
".@	c #45AEB8",
"+@	c #307487",
"@@	c #2D3A43",
"#@	c #444747",
"$@	c #444444",
"%@	c #3A3E3F",
"&@	c #1F3644",
"*@	c #347C8F",
"=@	c #45A8B5",
"-@	c #4AC2C2",
";@	c #56E6E6",
">@	c #57ECEC",
",@	c #4BC6C6",
"'@	c #4AB3B3",
")@	c #45A5B2",
"!@	c #31788C",
"~@	c #243A47",
"{@	c #3C3E3E",
"]@	c #454545",
"^@	c #434343",
"/@	c #414242",
"(@	c #323537",
"_@	c #1E3947",
":@	c #327487",
"<@	c #469BAC",
"[@	c #4AB0B4",
"}@	c #4BC8C9",
"|@	c #4BCACA",
"1@	c #4BB4B5",
"2@	c #4FA5A9",
"3@	c #449DAE",
"4@	c #2F7185",
"5@	c #233D4A",
"6@	c #333536",
"7@	c #424242",
"8@	c #3F3F3F",
"9@	c #3D3D3D",
"0@	c #313334",
"a@	c #203543",
"b@	c #2C6275",
"c@	c #458D9F",
"d@	c #4F9DA9",
"e@	c #49AFB6",
"f@	c #48C0C5",
"g@	c #4BC9CB",
"h@	c #4ACBCD",
"i@	c #4AC7CA",
"j@	c #49C0C2",
"k@	c #4AB0B5",
"l@	c #53A2A8",
"m@	c #519AA7",
"n@	c #3F90A3",
"o@	c #296377",
"p@	c #233844",
"q@	c #3E3E3E",
"r@	c #393939",
"s@	c #303031",
"t@	c #23313A",
"u@	c #214A5C",
"v@	c #3D778A",
"w@	c #4F8697",
"x@	c #5491A1",
"y@	c #5398A8",
"z@	c #5399A8",
"A@	c #5598A7",
"B@	c #5895A4",
"C@	c #5590A0",
"D@	c #46899C",
"E@	c #33778C",
"F@	c #204D61",
"G@	c #263138",
"H@	c #3C3C3C",
"I@	c #414141",
"J@	c #3A3A3A",
"K@	c #383838",
"L@	c #373737",
"M@	c #353535",
"N@	c #303030",
"O@	c #252C31",
"P@	c #1C3948",
"Q@	c #254F61",
"R@	c #3A677A",
"S@	c #497588",
"T@	c #4D788B",
"U@	c #49788C",
"V@	c #3F748A",
"W@	c #30667B",
"X@	c #204E62",
"Y@	c #1D3C4C",
"Z@	c #262B2E",
"`@	c #343434",
" #	c #333333",
".#	c #323232",
"+#	c #2E2E2E",
"@#	c #292929",
"##	c #212D37",
"$#	c #183242",
"%#	c #18384A",
"&#	c #193C4E",
"*#	c #183D50",
"=#	c #183A4D",
"-#	c #183344",
";#	c #232C33",
">#	c #2F2F2F",
",#	c #2B2B2B",
"'#	c #282828",
")#	c #252525",
"!#	c #282624",
"~#	c #2A2827",
"{#	c #222423",
"]#	c #1C1F23",
"^#	c #282724",
"/#	c #262626",
"(#	c #242424",
"_#	c #232323",
":#	c #222222",
"<#	c #202020",
"[#	c #1E1E1E",
"}#	c #1D1D1D",
"|#	c #1F1D1D",
"1#	c #1E2121",
"2#	c #20201E",
"3#	c #272727",
"4#	c #1F1F1F",
"5#	c #1B1B1B",
"6#	c #191919",
"7#	c #181818",
"8#	c #161616",
"9#	c #151515",
"0#	c #141414",
"                                                                        ",
"                                                                        ",
". . . . + + + + + + + + + + + + + + + + + + + + + + + + + + + + + + + + ",
"@ @ @ @ @ @ @ @ @ @ @ +     # # $ $ $ $ # #     + @ @ @ @ @ @ @ @ @ @ @ ",
"% @ +         + + + + + $ & * = - ; ; - > * & $ + + + + +       + + @ + ",
"$   @ % , ' ) ! % ~ { ] ^ / ( _ : < < : _ ( / ^ ] { ~ % ! ) ' % + + + + ",
", ' ) ! [ [ @ } | 1 2 3 4 5 6 7 8 9 9 0 a b c d e f g h } @ i i ' , , j ",
"' ) ! [ k l m n o p q r s t u v v v v v v v w x y z A B C D E F i ! ) ' ",
") i G H I J K L M N O P Q R S T U U U V V V W X Y Y Y Z `  ...+.H G k ) ",
"@.#.$.%.&.*.=.-.;.>.,.'.).!.~.{.{.].].^.^./.(._._.:.<.[.}.|.1.2.%.3.#.4.",
"5.6.7.8.9.0.}.a.b.c.d.e.f.g.g.g.g.g.g.g.g.h.h.i.i.j.k.k.l._.m.n.8.o.6.p.",
"q.r.s.t.u.v.<.w.x.y.z.z.A.A.A.A.A.B.B.A.A.C.C.C.D.E.F.F.F.G.H.I.t.J.K.q.",
"G p.H L.M.N.O.P.Q.R.S.T.T.T.T.T.T.U.U.T.T.T.V.V.W.X.Y.Z.Z.R.`. +L.H p.G ",
"F .+G ! ++@+Y.#+$+%+X.&+*+*+*+*+*+*+*+*+*+=+=+=+-+-+;+>+,+X.'+)+! G .+F ",
") ! ! , !+~+{+]+]+]+^+-+=+=+=+/+/+(+(+/+/+/+/+/+_+:+<+<+]+[+}+|+, i i ) ",
", , j j 1+2+3+]+4+4+5+6+6+7+6+6+7+7+7+7+6+8+8+9+9+0+4+4+%+a+b+c+d+d+, , ",
"% @ @ @ e+f+g+h+4+i+j+k+l+l+l+l+m+m+m+m+k+k+k+k+k+j+i+;+n+o+p+q+@ @ @ % ",
"@ + + . $ r+s+t+j.0+u+v+v+w+x+x+y+y+y+y+w+w+w+v+v+u+X.z+A+B+C+$ . + + @ ",
"+ . # # # D+E+F+G+H+0+I+J+J+J+I+I+K+K+I+L+M+M+M+v+O.N+O+P+Q+R+# # # . + ",
". # # $ S+T+U+V+W+X+Y+-+J+Z+Z+Z+Z+Z+Z+Z+`+`+Z+9+Y  @.@+@@@#@T+S+$ # # . ",
"# # $ S+T+T+$@%@&@*@=@-@(.;@Z+`+>@>@>@>@`+v+j.,@'@)@!@~@{@$@T+T+S+$ # # ",
"# $ S+T+T+]@^@/@(@_@:@<@[@}@A.k+I+I+w+8+i.|@1@2@3@4@5@6@/@^@]@T+T+S+$ # ",
"$ S+T+]@$@^@7@8@9@0@a@b@c@d@e@f@g@h@i@j@k@l@m@n@o@p@0@9@~ 7@^@$@]@T+S+$ ",
"T+]@$@^@7@8@q@9@- r@s@t@u@v@w@x@y@z@A@B@C@D@E@F@G@s@r@H@9@q@I@7@^@$@T+$ ",
"^@7@7@8@q@9@- J@K@L@M@N@O@P@Q@R@S@T@U@V@W@X@Y@Z@N@M@L@K@J@H@9@q@I@7@^@$@",
"9@- J@J@r@K@L@M@`@ #.#N@+#@###$#%#&#*#=#-#;#@#+#N@.# #`@M@L@K@r@J@J@J@K@",
".# # # #.#.#N@>#+#+#,#@#'#)#!#~#{#]#]#{#~#^#)#'#@#,#+#+#>#N@.#.# # #N@+#",
"/#/#/#/#)#)#(#(#(#_#_#:#<#[#}#|#1#2#2#1#|#}#[#<#:#_#_#(#(#(#)#)#3#3#3#3#",
"_#_#_#_#_#_#_#:#<#4#[#5#6#7#8#8#9#0#0#9#8#8#7#6#5#[#4#_#_#_#_#_#_#_#_#_#",
"4#4#4#4#4#4#4#4#4#4#4#4#4#4#4#4#4#4#4#4#4#4#4#4#4#4#4#4#4#4#4#4#4#4#4#4#",
"5#5#5#5#5#5#5#5#5#5#5#5#5#5#5#5#5#5#5#5#5#5#5#5#5#5#5#5#5#5#5#5#5#5#5#5#",
"6#6#6#6#6#6#6#6#6#6#6#6#6#6#6#6#6#6#6#6#6#6#6#6#6#6#6#6#6#6#6#6#6#6#6#6#"};
