/* XPM */
static char * menu_active_xpm[] = {
"48 32 243 2",
"  	c #4C4C4C",
". 	c #4B4B4B",
"+ 	c #4D4D4D",
"@ 	c #4E4E4E",
"# 	c #4F4F4F",
"$ 	c #525252",
"% 	c #515151",
"& 	c #363636",
"* 	c #1E1E1E",
"= 	c #191919",
"- 	c #181818",
"; 	c #171717",
"> 	c #151515",
", 	c #161616",
"' 	c #1B1B1B",
") 	c #1F1F1F",
"! 	c #212121",
"~ 	c #535353",
"{ 	c #3F3F3F",
"] 	c #101010",
"^ 	c #111111",
"/ 	c #131313",
"( 	c #202020",
"_ 	c #242424",
": 	c #282828",
"< 	c #2A2A2A",
"[ 	c #2F2F2F",
"} 	c #070707",
"| 	c #080808",
"1 	c #020202",
"2 	c #0F0F0F",
"3 	c #393939",
"4 	c #0E0E0E",
"5 	c #0B0B0B",
"6 	c #0D0D0D",
"7 	c #060606",
"8 	c #0C0C0C",
"9 	c #313131",
"0 	c #343434",
"a 	c #3A3A3A",
"b 	c #505050",
"c 	c #1D1D1D",
"d 	c #121212",
"e 	c #0A0A0A",
"f 	c #252525",
"g 	c #292929",
"h 	c #2E2E2E",
"i 	c #303030",
"j 	c #333333",
"k 	c #353535",
"l 	c #383838",
"m 	c #232323",
"n 	c #1A1A1A",
"o 	c #262626",
"p 	c #353534",
"q 	c #343435",
"r 	c #353536",
"s 	c #434343",
"t 	c #2A2A2B",
"u 	c #2B2C29",
"v 	c #282827",
"w 	c #1F2426",
"x 	c #1C1F20",
"y 	c #191C22",
"z 	c #0E1F2A",
"A 	c #0F1D28",
"B 	c #464646",
"C 	c #2B2B2B",
"D 	c #272828",
"E 	c #27292B",
"F 	c #1E2B34",
"G 	c #1E4251",
"H 	c #235C70",
"I 	c #2A6C82",
"J 	c #30798F",
"K 	c #317E94",
"L 	c #2E7C93",
"M 	c #307F96",
"N 	c #3D3D3D",
"O 	c #2C2C2C",
"P 	c #141414",
"Q 	c #2F3333",
"R 	c #2D3132",
"S 	c #202F34",
"T 	c #2F7387",
"U 	c #3EA0B6",
"V 	c #3BA3B6",
"W 	c #3FAEBC",
"X 	c #6DBBC1",
"Y 	c #A7D3D5",
"Z 	c #96CDCE",
"` 	c #4BD1D1",
" .	c #4BD0D1",
"..	c #4ACCD0",
"+.	c #47C5CE",
"@.	c #42B6C6",
"#.	c #3BA0AF",
"$.	c #358D9C",
"%.	c #317A8B",
"&.	c #1B4A59",
"*.	c #47494A",
"=.	c #414546",
"-.	c #1E292F",
";.	c #337F93",
">.	c #3FACC0",
",.	c #45C0C1",
"'.	c #4DCACA",
").	c #C7DBDC",
"!.	c #F9FAFA",
"~.	c #D4E4E5",
"{.	c #95D4D4",
"].	c #4FD6D6",
"^.	c #4DD6D6",
"/.	c #4CD6D6",
"(.	c #4CD3D6",
"_.	c #4BD2D6",
":.	c #49CAD2",
"<.	c #40B1C1",
"[.	c #3999AC",
"}.	c #3E3E3E",
"|.	c #383939",
"1.	c #65696B",
"2.	c #464D50",
"3.	c #184656",
"4.	c #3DA1B7",
"5.	c #49C6C6",
"6.	c #52DADA",
"7.	c #61C5C5",
"8.	c #CADFE0",
"9.	c #7FD2D2",
"0.	c #53DADA",
"a.	c #52DCDC",
"b.	c #51DCDC",
"c.	c #50DCDC",
"d.	c #4EDBDC",
"e.	c #4DD7DC",
"f.	c #4CD5DC",
"g.	c #4CD4DC",
"h.	c #4BCFD9",
"i.	c #42B7C9",
"j.	c #3E3F3E",
"k.	c #6F7374",
"l.	c #454D4E",
"m.	c #266278",
"n.	c #3BA0B3",
"o.	c #50D3D3",
"p.	c #55DFDF",
"q.	c #55E0E0",
"r.	c #55E1E1",
"s.	c #56E1E1",
"t.	c #54E1E1",
"u.	c #52E1E1",
"v.	c #52E2E2",
"w.	c #51E2E2",
"x.	c #50E1E2",
"y.	c #4FDDE2",
"z.	c #4EDAE2",
"A.	c #4DD7E2",
"B.	c #4BD1DE",
"C.	c #44BFD4",
"D.	c #474747",
"E.	c #323434",
"F.	c #5A5D5E",
"G.	c #474D4F",
"H.	c #1E4D5F",
"I.	c #3C9EB5",
"J.	c #49C2C6",
"K.	c #4ED1D1",
"L.	c #54DFDF",
"M.	c #57E6E6",
"N.	c #56E7E7",
"O.	c #54E7E7",
"P.	c #53E7E7",
"Q.	c #52E7E7",
"R.	c #51E6E7",
"S.	c #50E3E5",
"T.	c #4EDADD",
"U.	c #47C7CE",
"V.	c #3FACBF",
"W.	c #222222",
"X.	c #3C3E3E",
"Y.	c #383B3C",
"Z.	c #2A3237",
"`.	c #31768D",
" +	c #3A9AB1",
".+	c #42AEBA",
"++	c #49BDBD",
"@+	c #4DCBCB",
"#+	c #51DADA",
"$+	c #55E4E4",
"%+	c #57E8E8",
"&+	c #57EBEB",
"*+	c #55EAEA",
"=+	c #55E8E8",
"-+	c #52E3E3",
";+	c #4ED7D8",
">+	c #4AC4C7",
",+	c #45B2BA",
"'+	c #3DA1B1",
")+	c #348496",
"!+	c #3C3C3C",
"~+	c #333434",
"{+	c #2E3131",
"]+	c #292E31",
"^+	c #285264",
"/+	c #36829B",
"(+	c #3993A9",
"_+	c #409AAC",
":+	c #47A1AF",
"<+	c #4CA5AE",
"[+	c #50AEB4",
"}+	c #52B9BC",
"|+	c #52B6BA",
"1+	c #1C1C1C",
"2+	c #323232",
"3+	c #373737",
"4+	c #26292D",
"5+	c #243843",
"6+	c #265469",
"7+	c #28627A",
"8+	c #2F7087",
"9+	c #32758E",
"0+	c #387489",
"a+	c #37788E",
"b+	c #424242",
"c+	c #3F3F3E",
"d+	c #3C3A39",
"e+	c #323435",
"f+	c #282A28",
"g+	c #232423",
"h+	c #191E25",
"i+	c #1B2129",
"j+	c #484848",
"k+	c #545454",
"l+	c #535354",
"m+	c #2D2D2D",
"n+	c #575757",
"o+	c #585858",
"p+	c #454545",
"q+	c #4A4A4A",
"r+	c #565656",
"s+	c #494949",
"t+	c #272727",
"                            . . . . . . . . .                                                   ",
"                            . . . . . . . . .                                                   ",
"+ + + + + + + + + + + + + + + + + + + + + + + + + + + + + + + + + + + + + + + + + + + + + + + + ",
"@ @ @ @ @ @ @ @ @ @ @ @ @ @ @ @ @ @ @ @ @ @ @ @ @ @ @ @ @ @ @ @ @ @ @ @ @ @ @ @ @ @ @ @ @ @ @ @ ",
"# # # # # # # # # # # # # # # # # # # # # # # # # # # # # # # # # # # # # # # # # # # # # # # # ",
"# # # # # # # # # # # # # # # # # # # # # # @ # # # # # # # # # # # # # # # # # # # # # # # # # ",
"$ $ $ $ % & * = - = = = = = - - ; > > , - ' ) ) ! ) ' - , > > ; - - = = = - = = = * & % $ $ $ $ ",
"~ ~ $ { ] > - = = - = - - > ^ ^ / - ' ( _ : < < [ < : _ ( ' - / ^ ^ } | } } 1 = = = - 2 { ~ ~ ~ ",
"$ ~ 3 4 | } 5 6 | 7 } 8 2 ^ / ; ' ( _ : < [ 9 9 0 9 [ < : _ ( ' ; / ^ 4 6 5 } 5 6 | } 5 ^ a $ $ ",
"b @ 8 } } ) c d } 5 e ^ ^ > = * ! f g h i j k k l k j i h g f ! * = > ^ ^ c ) c d } ) c d 6 @ # ",
"# k } ) ) m 2 4 ) ) - ^ , n * m o < h 9 0 p k q r k p 0 9 h < o m * n , ^ ] m 2 4 ) m 2 4 ) k @ ",
"s 4 ) m h 5 , _ h 4 ^ / = c ! f g t u v w x y z A y x w v u t g f ! c = / ^ 6 , _ h 5 , _ h 5 B ",
"3 _ h 5 , c C o , ; d ; ' ( D g E F G H I J K L M K J I H G F E g D ( ' ; d ; C o , c C o , c N ",
"O o , c P a g n P - > = m Q R S T U V W X Y Z `  ...+.@.#.$.%.&.S R Q m = > ; g n P a g n P a [ ",
"g n P a a [ , n a ^ ; ( *.=.-.;.>.,.'.).!.~.{.].].^./.(._.:.<.[.;.-.=.*.( ; ^ , n a [ , n a [ , ",
", n a [ }.5 o }.}.d = |.1.2.3.4.5.6.7.8.9.0.a.b.c.c.d.e.f.g.h.i.4.3.2.1.|.= d o }.}.5 o }.}.5 o ",
"o }.}.5 2 3 }.h 2 P n j.k.l.m.n.o.p.q.r.s.r.t.u.v.w.x.y.z.A.B.C.n.m.l.k.j.n P }.h 2 3 }.h 2 3 }.",
"}.h 2 3 : D.m n : ; ' E.F.G.H.I.J.K.L.M.N.N.N.O.P.P.Q.R.S.T.U.V.I.H.G.F.E.' > m n : D.m n : D.m ",
") n : D.D.W.' : D.; ' _ X.Y.Z.`. +.+++@+#+$+%+&+*+=+-+;+>+,+'+)+`.Z.Y.X._ ' > ' : D.W.' : D.W.' ",
"[ _ D.W.j ^ [ !+j ; ' m C ~+{+]+^+/+(+_+:+<+[+}+|+[+<+:+_+(+/+^+]+{+~+C m ' , [ !+j ^ [ !+j ^ [ ",
"j { [ ^ 5 { 3 m 5 j 1+W.C 2+3+k [ 4+5+6+7+8+9+0+a+9+8+7+6+5+4+[ k 3+2+C W.' { 3 m 5 { 3 m 5 { 0 ",
"k k i & i k , > i 3 f 1+: 2+l N b+s c+d+e+f+g+h+i+g+f+e+d+c+s b+N l 2+: * W.k , > i k , > i k 3+",
"k i l < 0 ] ' < 0 , > i g h 3+N s j+  @ % ~ k+~ l+k+~ % @   j+s N 3+h f O ' ] ' < 0 ] ' < l 2+0 ",
"2+j m+_ - 8 ; c - ' g 0 ^ c [ 3 b+D.  @ $ ~ n+o+o+n+~ $ @   D.b+3 [ c m f f f ; c - 8 ; _ [ 2+2+",
"[ [ 9 [ m+: n * ! ! m ! * ! m m+3+}.p+q+@ % $ r+~ $ % @ q+p+}.3+m+m n n n n n n n = : m+[ [ [ [ ",
"D.D.D.D.D.D.D.D.D.D.D.D.D.D.j+j+j+j+p+p+D.D.s+q+s+s+D.D.p+p+j+j+j+j+D.D.D.j+j+D.D.D.D.D.D.D.D.D.",
"C C C C C C C C C C C C C C C C C C C C C C C C C C C C C C C C C C C C C C C C C C C C C C C C ",
"t+t+t+t+t+t+t+t+t+t+t+t+t+t+o o o o o o o o o f f f f f f f f f f t+t+t+t+t+t+t+t+t+t+t+t+t+t+t+",
"m m m m m m m m m m m m m m m m m m m m m m m m m m m m m m m m m m m m m m m m m m m m m m m m ",
") ) ) ) ) ) ) ) ) ) ) ) ) ) ) ) ) ) ) ) ) ) ) ) ) ) ) ) ) ) ) ) ) ) ) ) ) ) ) ) ) ) ) ) ) ) ) ) ",
"1+1+1+1+1+1+1+1+1+1+1+1+1+1+' ' ' ' ' ' ' ' ' ' ' ' ' ' ' ' ' ' ' 1+1+1+1+1+1+1+1+1+1+1+1+1+1+1+",
"= = = = = = = = = = = = = = = = = = = = = = = = = = = = = = = = = = = = = = = = = = = = = = = = "};
