/* XPM */
static char * menu_inactive_xpm[] = {
"48 32 187 2",
"  	c #4C4C4C",
". 	c #4B4B4B",
"+ 	c #4D4D4D",
"@ 	c #4E4E4E",
"# 	c #4F4F4F",
"$ 	c #525252",
"% 	c #515151",
"& 	c #363636",
"* 	c #1E1E1E",
"= 	c #191919",
"- 	c #181818",
"; 	c #171717",
"> 	c #151515",
", 	c #161616",
"' 	c #1B1B1B",
") 	c #1F1F1F",
"! 	c #212121",
"~ 	c #535353",
"{ 	c #3F3F3F",
"] 	c #101010",
"^ 	c #111111",
"/ 	c #131313",
"( 	c #202020",
"_ 	c #242424",
": 	c #282828",
"< 	c #2A2A2A",
"[ 	c #2F2F2F",
"} 	c #070707",
"| 	c #080808",
"1 	c #020202",
"2 	c #0F0F0F",
"3 	c #393939",
"4 	c #0E0E0E",
"5 	c #0B0B0B",
"6 	c #0D0D0D",
"7 	c #060606",
"8 	c #0C0C0C",
"9 	c #313131",
"0 	c #343434",
"a 	c #3A3A3A",
"b 	c #505050",
"c 	c #1D1D1D",
"d 	c #121212",
"e 	c #0A0A0A",
"f 	c #252525",
"g 	c #292929",
"h 	c #2E2E2E",
"i 	c #303030",
"j 	c #333333",
"k 	c #353535",
"l 	c #383838",
"m 	c #232323",
"n 	c #1A1A1A",
"o 	c #262626",
"p 	c #353534",
"q 	c #343435",
"r 	c #353536",
"s 	c #434343",
"t 	c #2A2A2B",
"u 	c #2B2C29",
"v 	c #282827",
"w 	c #1F2426",
"x 	c #1C1F20",
"y 	c #191C22",
"z 	c #0E1F2A",
"A 	c #0F1D28",
"B 	c #464646",
"C 	c #2B2B2B",
"D 	c #272828",
"E 	c #27292B",
"F 	c #1E2B34",
"G 	c #242D32",
"H 	c #373839",
"I 	c #3D3D3D",
"J 	c #2C2C2C",
"K 	c #141414",
"L 	c #2F3333",
"M 	c #2D3132",
"N 	c #202B30",
"O 	c #474A4B",
"P 	c #6E6E6E",
"Q 	c #707070",
"R 	c #7C7C7C",
"S 	c #8E8E8E",
"T 	c #B2B2B2",
"U 	c #A9A9A9",
"V 	c #A1A1A1",
"W 	c #9C9C9C",
"X 	c #949494",
"Y 	c #848484",
"Z 	c #6D6D6D",
"` 	c #5D5D5D",
" .	c #2B2D2E",
"..	c #47494A",
"+.	c #414546",
"@.	c #1A1E20",
"#.	c #797979",
"$.	c #999999",
"%.	c #C4C4C4",
"&.	c #F7F7F7",
"*.	c #D3D3D3",
"=.	c #B0B0B0",
"-.	c #A7A7A7",
";.	c #A3A3A3",
">.	c #9A9A9A",
",.	c #7F7F7F",
"'.	c #676767",
").	c #3E3E3E",
"!.	c #383939",
"~.	c #65696B",
"{.	c #464D50",
"].	c #6F6F6F",
"^.	c #959595",
"/.	c #ADADAD",
"(.	c #969696",
"_.	c #CACACA",
":.	c #AEAEAE",
"<.	c #A6A6A6",
"[.	c #A0A0A0",
"}.	c #858585",
"|.	c #3E3F3E",
"1.	c #6F7374",
"2.	c #454D4E",
"3.	c #3B3B3B",
"4.	c #A5A5A5",
"5.	c #B4B4B4",
"6.	c #B5B5B5",
"7.	c #B6B6B6",
"8.	c #B1B1B1",
"9.	c #AAAAAA",
"0.	c #A2A2A2",
"a.	c #8F8F8F",
"b.	c #474747",
"c.	c #323434",
"d.	c #5A5D5E",
"e.	c #474D4F",
"f.	c #2D2D2D",
"g.	c #6C6C6C",
"h.	c #909090",
"i.	c #BCBCBC",
"j.	c #BDBDBD",
"k.	c #BBBBBB",
"l.	c #B8B8B8",
"m.	c #222222",
"n.	c #3C3E3E",
"o.	c #383B3C",
"p.	c #222527",
"q.	c #686868",
"r.	c #8B8B8B",
"s.	c #B9B9B9",
"t.	c #BFBFBF",
"u.	c #C2C2C2",
"v.	c #C0C0C0",
"w.	c #939393",
"x.	c #555555",
"y.	c #3C3C3C",
"z.	c #333434",
"A.	c #2E3131",
"B.	c #252A2D",
"C.	c #313334",
"D.	c #545454",
"E.	c #626262",
"F.	c #737373",
"G.	c #878787",
"H.	c #1C1C1C",
"I.	c #323232",
"J.	c #373737",
"K.	c #26292D",
"L.	c #22272A",
"M.	c #323334",
"N.	c #4A4A4A",
"O.	c #424242",
"P.	c #3F3F3E",
"Q.	c #3C3A39",
"R.	c #323435",
"S.	c #282A28",
"T.	c #232423",
"U.	c #191E25",
"V.	c #1B2129",
"W.	c #484848",
"X.	c #535354",
"Y.	c #575757",
"Z.	c #585858",
"`.	c #454545",
" +	c #565656",
".+	c #494949",
"++	c #272727",
"                            . . . . . . . . .                                                   ",
"                            . . . . . . . . .                                                   ",
"+ + + + + + + + + + + + + + + + + + + + + + + + + + + + + + + + + + + + + + + + + + + + + + + + ",
"@ @ @ @ @ @ @ @ @ @ @ @ @ @ @ @ @ @ @ @ @ @ @ @ @ @ @ @ @ @ @ @ @ @ @ @ @ @ @ @ @ @ @ @ @ @ @ @ ",
"# # # # # # # # # # # # # # # # # # # # # # # # # # # # # # # # # # # # # # # # # # # # # # # # ",
"# # # # # # # # # # # # # # # # # # # # # # @ # # # # # # # # # # # # # # # # # # # # # # # # # ",
"$ $ $ $ % & * = - = = = = = - - ; > > , - ' ) ) ! ) ' - , > > ; - - = = = - = = = * & % $ $ $ $ ",
"~ ~ $ { ] > - = = - = - - > ^ ^ / - ' ( _ : < < [ < : _ ( ' - / ^ ^ } | } } 1 = = = - 2 { ~ ~ ~ ",
"$ ~ 3 4 | } 5 6 | 7 } 8 2 ^ / ; ' ( _ : < [ 9 9 0 9 [ < : _ ( ' ; / ^ 4 6 5 } 5 6 | } 5 ^ a $ $ ",
"b @ 8 } } ) c d } 5 e ^ ^ > = * ! f g h i j k k l k j i h g f ! * = > ^ ^ c ) c d } ) c d 6 @ # ",
"# k } ) ) m 2 4 ) ) - ^ , n * m o < h 9 0 p k q r k p 0 9 h < o m * n , ^ ] m 2 4 ) m 2 4 ) k @ ",
"s 4 ) m h 5 , _ h 4 ^ / = c ! f g t u v w x y z A y x w v u t g f ! c = / ^ 6 , _ h 5 , _ h 5 B ",
"3 _ h 5 , c C o , ; d ; ' ( D g E F G H s   % # $ %   s H G F E g D ( ' ; d ; C o , c C o , c I ",
"J o , c K a g n K - > = m L M N O P Q R S T U V V W X Y Z ` +  .N M L m = > ; g n K a g n K a [ ",
"g n K a a [ , n a ^ ; ( ..+.@.$ #.S $.%.&.*.=.-.-.-.-.;.;.>.,.'.$ @.+...( ; ^ , n a [ , n a [ , ",
", n a [ ).5 o ).).d = !.~.{.: ].^./.(._.U /.=.=.:.:.:.U -.<.[.}.].: {.~.!.= d o ).).5 o ).).5 o ",
"o ).).5 2 3 ).h 2 K n |.1.2.3.Z 4.5.5.6.6.6.6.6.7.7.6.8./.9.0.a.Z 3.2.1.|.n K ).h 2 3 ).h 2 3 ).",
").h 2 3 : b.m n : ; ' c.d.e.f.g.h.0.T i.j.j.j.j.i.i.i.k.l./.(.#.g.f.e.d.c.' > m n : b.m n : b.m ",
") n : b.b.m.' : b.; ' _ n.o.p.. q.R r.>./.s.t.u.v.j.l.U w.,.P x.. p.o.n._ ' > ' : b.m.' : b.m.' ",
"[ _ b.m.j ^ [ y.j ; ' m C z.A.B.C.D.E.q.].F.R G.}.R F.].q.E.D.C.B.A.z.C m ' , [ y.j ^ [ y.j ^ [ ",
"j { [ ^ 5 { 3 m 5 j H.m.C I.J.k [ K.L.M.y.B N.N.  N.B y.M.L.K.[ k J.I.C m.' { 3 m 5 { 3 m 5 { 0 ",
"k k i & i k , > i 3 f H.: I.l I O.s P.Q.R.S.T.U.V.T.S.R.Q.P.s O.I l I.: * m.k , > i k , > i k J.",
"k i l < 0 ] ' < 0 , > i g h J.I s W.  @ % ~ D.~ X.D.~ % @   W.s I J.h f J ' ] ' < 0 ] ' < l I.0 ",
"I.j f._ - 8 ; c - ' g 0 ^ c [ 3 O.b.  @ $ ~ Y.Z.Z.Y.~ $ @   b.O.3 [ c m f f f ; c - 8 ; _ [ I.I.",
"[ [ 9 [ f.: n * ! ! m ! * ! m f.J.).`.N.@ % $  +~ $ % @ N.`.).J.f.m n n n n n n n = : f.[ [ [ [ ",
"b.b.b.b.b.b.b.b.b.b.b.b.b.b.W.W.W.W.`.`.b.b..+N..+.+b.b.`.`.W.W.W.W.b.b.b.W.W.b.b.b.b.b.b.b.b.b.",
"C C C C C C C C C C C C C C C C C C C C C C C C C C C C C C C C C C C C C C C C C C C C C C C C ",
"++++++++++++++++++++++++++++o o o o o o o o o f f f f f f f f f f ++++++++++++++++++++++++++++++",
"m m m m m m m m m m m m m m m m m m m m m m m m m m m m m m m m m m m m m m m m m m m m m m m m ",
") ) ) ) ) ) ) ) ) ) ) ) ) ) ) ) ) ) ) ) ) ) ) ) ) ) ) ) ) ) ) ) ) ) ) ) ) ) ) ) ) ) ) ) ) ) ) ) ",
"H.H.H.H.H.H.H.H.H.H.H.H.H.H.' ' ' ' ' ' ' ' ' ' ' ' ' ' ' ' ' ' ' H.H.H.H.H.H.H.H.H.H.H.H.H.H.H.",
"= = = = = = = = = = = = = = = = = = = = = = = = = = = = = = = = = = = = = = = = = = = = = = = = "};
