/* XPM */
static char * right_inactive_xpm[] = {
"9 780 54 1",
" 	c #282828",
".	c #4A4A4A",
"+	c #5A5A5A",
"@	c #474747",
"#	c #444444",
"$	c #3F3F3F",
"%	c #3E3E3E",
"&	c #353535",
"*	c #262626",
"=	c #232323",
"-	c #000000",
";	c #373737",
">	c #242424",
",	c #2F2F2F",
"'	c #3B3B3B",
")	c #454545",
"!	c #323232",
"~	c #5D5D5D",
"{	c #5E5E5E",
"]	c #808080",
"^	c #5C5C5C",
"/	c #3A3A3A",
"(	c #424242",
"_	c #626262",
":	c #5F5F5F",
"<	c #5B5B5B",
"[	c #7F7F7F",
"}	c #606060",
"|	c #292929",
"1	c #434343",
"2	c #717171",
"3	c #505050",
"4	c #676767",
"5	c #2C2C2C",
"6	c #585858",
"7	c #686868",
"8	c #656565",
"9	c #545454",
"0	c #303030",
"a	c #666666",
"b	c #646464",
"c	c #555555",
"d	c #2E2E2E",
"e	c #333333",
"f	c #535353",
"g	c #525252",
"h	c #343434",
"i	c #575757",
"j	c #414141",
"k	c #4E4E4E",
"l	c #595959",
"m	c #383838",
"n	c #313131",
"o	c #2A2A2A",
" .+@#$%&*",
" .+@#$%&*",
" .+@#$%&*",
" .+@#$%&*",
" .+@#$%&*",
" .+@#$%&*",
" .+@#$%&*",
" .+@#$%&*",
" .+@#$%&*",
" .+@#$%&*",
" .+@#$%&*",
" .+@#$%&*",
" .+@#$%&*",
" .+@#$%&*",
" .+@#$%&*",
" .+@#$%&*",
" .+@#$%&*",
" .+@#$%&*",
" .+@#$%&*",
" .+@#$%&*",
" .+@#$%&*",
" .+@#$%&*",
" .+@#$%&*",
" .+@#$%&*",
" .+@#$%&*",
" .+@#$%&*",
" .+@#$%&*",
" .+@#$%&*",
" .+@#$%&*",
" .+@#$%&*",
" .+@#$%&*",
" .+@#$%&*",
" .+@#$%&*",
" .+@#$%&*",
" .+@#$%&*",
" .+@#$%&*",
" .+@#$%&*",
" .+@#$%&*",
" .+@#$%&*",
" .+@#$%&*",
" .+@#$%&*",
" .+@#$%&*",
" .+@#$%&*",
" .+@#$%&*",
" .+@#$%&*",
" .+@#$%&*",
" .+@#$%&*",
" .+@#$%&*",
" .+@#$%&*",
" .+@#$%&*",
" .+@#$%&*",
" .+@#$%&*",
" .+@#$%&*",
" .+@#$%&*",
" .+@#$%&*",
" .+@#$%&*",
" .+@#$%&*",
" .+@#$%&*",
" .+@#$%&*",
" .+@#$%&*",
" .+@#$%&*",
" .+@#$%&*",
" .+@#$%&*",
" .+@#$%&*",
" .+@#$%&*",
" .+@#$%&*",
" .+@#$%&*",
" .+@#$%&*",
" .+@#$%&*",
" .+@#$%&*",
" .+@#$%&*",
" .+@#$%&*",
" .+@#$%&*",
" .+@#$%&*",
" .+@#$%&*",
" .+@#$%&*",
" .+@#$%&*",
" .+@#$%&*",
" .+@#$%&*",
" .+@#$%&*",
" .+@#$%&*",
" .+@#$%&*",
" .+@#$%&*",
" .+@#$%&*",
" .+@#$%&*",
" .+@#$%&*",
" .+@#$%&*",
" .+@#$%&*",
" .+@#$%&*",
" .+@#$%&*",
" .+@#$%&*",
" .+@#$%&*",
" .+@#$%&*",
" .+@#$%&*",
" .+@#$%&*",
" .+@#$%&*",
" .+@#$%&*",
" .+@#$%&*",
" .+@#$%&*",
" .+@#$%&*",
" .+@#$%&*",
" .+@#$%&*",
" .+@#$%&*",
" .+@#$%&*",
" .+@#$%&*",
" .+@#$%&*",
" .+@#$%&*",
" .+@#$%&*",
" .+@#$%&*",
" .+@#$%&*",
" .+@#$%&*",
" .+@#$%&*",
" .+@#$%&*",
" .+@#$%&*",
" .+@#$%&*",
" .+@#$%&*",
" .+@#$%&*",
" .+@#$%&*",
" .+@#$%&*",
" .+@#$%&*",
" .+@#$%&*",
" .+@#$%&*",
" .+@#$%&*",
" .+@#$%&*",
" .+@#$%&*",
" .+@#$%&*",
" .+@#$%&*",
" .+@#$%&*",
" .+@#$%&*",
" .+@#$%&*",
" .+@#$%&*",
" .+@#$%&*",
" .+@#$%&*",
" .+@#$%&*",
" .+@#$%&*",
" .+@#$%&*",
" .+@#$%&*",
" .+@#$%&*",
" .+@#$%&*",
" .+@#$%&*",
" .+@#$%&*",
" .+@#$%&*",
" .+@#$%&*",
" .+@#$%&*",
" .+@#$%&*",
" .+@#$%&*",
" .+@#$%&*",
" .+@#$%&*",
" .+@#$%&*",
" .+@#$%&*",
" .+@#$%&*",
" .+@#$%&*",
" .+@#$%&*",
" .+@#$%&*",
" .+@#$%&*",
" .+@#$%&*",
" .+@#$%&*",
" .+@#$%&*",
" .+@#$%&*",
" .+@#$%&*",
" .+@#$%&*",
" .+@#$%&*",
" .+@#$%&*",
" .+@#$%&*",
" .+@#$%&*",
" .+@#$%&*",
" .+@#$%&*",
" .+@#$%&*",
" .+@#$%&*",
" .+@#$%&*",
" .+@#$%&*",
" .+@#$%&*",
" .+@#$%&*",
" .+@#$%&*",
" .+@#$%&*",
" .+@#$%&*",
" .+@#$%&*",
" .+@#$%&*",
" .+@#$%&*",
" .+@#$%&*",
" .+@#$%&*",
" .+@#$%&*",
" .+@#$%&*",
" .+@#$%&*",
" .+@#$%&*",
" .+@#$%&*",
" .+@#$%&*",
" .+@#$%&*",
" .+@#$%&*",
" .+@#$%&*",
" .+@#$%&*",
" .+@#$%&*",
" .+@#$%&*",
" .+@#$%&*",
" .+@#$%&*",
" .+@#$%&*",
" .+@#$%&*",
" .+@#$%&*",
" .+@#$%&*",
" .+@#$%&*",
" .+@#$%&*",
" .+@#$%&*",
" .+@#$%&*",
" .+@#$%&*",
" .+@#$%&*",
" .+@#$%&*",
" .+@#$%&*",
" .+@#$%&*",
" .+@#$%&*",
" .+@#$%&*",
" .+@#$%&*",
" .+@#$%&*",
" .+@#$%&*",
" .+@#$%&*",
" .+@#$%&*",
" .+@#$%&*",
" .+@#$%&*",
" .+@#$%&*",
" .+@#$%&*",
" .+@#$%&*",
" .+@#$%&*",
" .+@#$%&*",
" .+@#$%&*",
" .+@#$%&*",
" .+@#$%&*",
" .+@#$%&*",
" .+@#$%&*",
" .+@#$%&*",
" .+@#$%&*",
" .+@#$%&*",
" .+@#$%&*",
" .+@#$%&*",
" .+@#$%&*",
" .+@#$%&*",
" .+@#$%&*",
" .+@#$%&*",
" .+@#$%&*",
" .+@#$%&*",
" .+@#$%&*",
" .+@#$%&*",
" .+@#$%&*",
" .+@#$%&*",
" .+@#$%&*",
" .+@#$%&*",
" .+@#$%&*",
" .+@#$%&*",
" .+@#$%&*",
" .+@#$%&*",
" .+@#$%&*",
" .+@#$%&*",
" .+@#$%&*",
" .+@#$%&*",
" .+@#$%&*",
" .+@#$%&*",
" .+@#$%&*",
" .+@#$%&*",
" .+@#$%&*",
" .+@#$%&*",
" .+@#$%&*",
" .+@#$%&*",
" .+@#$%&*",
" .+@#$%&*",
" .+@#$%&*",
" .+@#$%&*",
" .+@#$%&*",
" .+@#$%&*",
" .+@#$%&*",
" .+@#$%&*",
" .+@#$%&*",
" .+@#$%&*",
" .+@#$%&*",
" .+@#$%&*",
" .+@#$%&*",
" .+@#$%&*",
" .+@#$%&*",
" .+@#$%&*",
" .+@#$%&*",
" .+@#$%&*",
" .+@#$%&*",
" .+@#$%&*",
" .+@#$%&*",
" .+@#$%&*",
" .+@#$%&*",
" .+@#$%&*",
" .+@#$%&*",
" .+@#$%&*",
" .+@#$%&*",
" .+@#$%&*",
" .+@#$%&*",
" .+@#$%&*",
" .+@#$%&*",
" .+@#$%&*",
" .+@#$%&*",
" .+@#$%&*",
" .+@#$%&*",
" .+@#$%&*",
" .+@#$%&*",
" .+@#$%&*",
" .+@#$%&*",
" .+@#$%&*",
" .+@#$%&*",
" .+@#$%&*",
" .+@#$%&*",
" .+@#$%&*",
" .+@#$%&*",
"=.-;-$$&>",
"=.---$$&>",
"=.-,-$$&>",
"=.-;-$$&>",
"=.')-$$&>",
"=.!)-$$&>",
"=.~{-$$&>",
"=.~]-$$&>",
"=.~^-$$&>",
"=--)-$$&>",
"--''-$$&>",
"-/~------",
"-.~------",
"-.{------",
"-.^-($$&-",
"-/~-#~-_-",
"-&~-#~-:-",
"-.~-#~-{-",
"-.~-#<-{-",
"-.{-#----",
"-.[-#~-{-",
"-.~-#~-}-",
"-/~-#~-:-",
"--'-#<-:-",
"----#$$:-",
"|--1#$$~-",
"=.~)#$$&>",
"=.~)#$$&>",
"=^-----&>",
"=]-){23&>",
"={-)+4$&>",
"5.-)67$&>",
"5.-)+8$&>",
"-/-)98$&>",
"-0-)94$&>",
"---)6a$&>",
"-/-)98$&>",
"5.-)+a$&>",
"=^-)+b$&>",
"=.~)#$$&>",
"=.~)#$$&>",
"ac~-;-<&>",
"ac~---~&>",
"ac~-,-~&>",
"ac~-;-~&>",
"a6~-#!~&>",
"4c~-#d{&>",
"8c~-{${&>",
"8+~-]$~&>",
"76~-^$(&>",
"4+~-#--&>",
"2{~-/!--~",
"-----$&-^",
"-----~$-<",
"-----{$-<",
"=.~1-^$-+",
"_-~)-$&-<",
":-~)-$!-<",
"{-~)-~$-<",
"{-<)-~$-<",
"---)-{$-<",
"{-~)-[$-~",
"}-~)-~$-~",
":-~)-$&-~",
":-<)-!--~",
":.~)----^",
"~.~)(--e>",
"=.~)#$$&>",
"=.~)#$$&>",
"=.~)#$$&>",
"=.~)#$$&>",
"=.~)#$$&>",
"=.~)#$$&>",
"=.~)#$$&>",
"=.~)#$$&>",
"=.~)#$$&>",
"=.~)#$$&>",
"=.~)#$$&>",
"=.~)#$$&>",
"=-----^&d",
"=f2{#-]&>",
"=.4+#-{&>",
"=.76#-$d>",
"=.8+#-$,>",
"=.8c#-&->",
"=.4c#-d->",
"=.a6#--->",
"=.8c#-&->",
"=.a+#-$,>",
"=.b+#-^&>",
"=.<-;-$g>",
"=.~---$g>",
"=.~-,-$g>",
"=.~-;-$g>",
"=.~h#-$i>",
"=.{,#-$g>",
"=.{){-$g>",
"=.~)]-$+>",
"=.^)^-$i>",
"=.--#-$+>",
"=--h/-${>",
"=-1)-----",
"=-~~-----",
"=-~{-----",
"=-~^-%$&>",
"=-1)-$~-_",
"=-')-$~-:",
"=-~~-$~-{",
"=-~~-$<-{",
"=-~{-$---",
"=-~[-$~-{",
"=-~~-$~-}",
"=-1)-$~-:",
"=--h-$<-:",
"=----$$&:",
"=j--($$&~",
"=.~)#$$&>",
"=.~)#$$&>",
"=.^----->",
"=.]-#{2k>",
"=.{-#+4&>",
"=0~-#67&>",
"=&~-#+8&>",
"=-1-#98&>",
"=-!-#94&>",
"=---#6a&>",
"=-1-#98&>",
"=&~-#+a&>",
"=.^-#+b&>",
"=.~)#$$&>",
"=.~)#$$&>",
"=al)-&-<>",
"=al)---~>",
"=al)-d-~>",
"=al)-&-~>",
"=al)-$!~>",
"=4l)-$d{>",
"=8l)-{${>",
"=8+)-]$~>",
"=7l)-^$/>",
"=4+)-$-->",
"=2{)-m!--",
"------$n-",
"------~&-",
"------{&-",
"-.~)(-^&-",
"-_-~#-$n-",
"-:-~#-$,-",
"-{-~#-~&-",
"-{-<#-~&-",
"----#-{&-",
"-{-~#-[&-",
"-}-~#-~&-",
"-:-~#-$n-",
"-:-<#-!--",
"-:~)#----",
"-~~)#%--o",
"=.~)#$$&>",
"=.~)#$$&>",
"=.-----^>",
"=.l2{$-]>",
"=.~4+$-{>",
"=.~76$-&5",
"=.~8+$-&5",
"=.~89$-n-",
"=.~49$-d-",
"=.~a6$---",
"=.~89$-n-",
"=.~a+$-&5",
"=.~b+$-^>",
" .+@#$%&*",
" .+@#$%&*",
" .+@#$%&*",
" .+@#$%&*",
" .+@#$%&*",
" .+@#$%&*",
" .+@#$%&*",
" .+@#$%&*",
" .+@#$%&*",
" .+@#$%&*",
" .+@#$%&*",
" .+@#$%&*",
" .+@#$%&*",
" .+@#$%&*",
" .+@#$%&*",
" .+@#$%&*",
" .+@#$%&*",
" .+@#$%&*",
" .+@#$%&*",
" .+@#$%&*",
" .+@#$%&*",
" .+@#$%&*",
" .+@#$%&*",
" .+@#$%&*",
" .+@#$%&*",
" .+@#$%&*",
" .+@#$%&*",
" .+@#$%&*",
" .+@#$%&*",
" .+@#$%&*",
" .+@#$%&*",
" .+@#$%&*",
" .+@#$%&*",
" .+@#$%&*",
" .+@#$%&*",
" .+@#$%&*",
" .+@#$%&*",
" .+@#$%&*",
" .+@#$%&*",
" .+@#$%&*",
" .+@#$%&*",
" .+@#$%&*",
" .+@#$%&*",
" .+@#$%&*",
" .+@#$%&*",
" .+@#$%&*",
" .+@#$%&*",
" .+@#$%&*",
" .+@#$%&*",
" .+@#$%&*",
" .+@#$%&*",
" .+@#$%&*",
" .+@#$%&*",
" .+@#$%&*",
" .+@#$%&*",
" .+@#$%&*",
" .+@#$%&*",
" .+@#$%&*",
" .+@#$%&*",
" .+@#$%&*",
" .+@#$%&*",
" .+@#$%&*",
" .+@#$%&*",
" .+@#$%&*",
" .+@#$%&*",
" .+@#$%&*",
" .+@#$%&*",
" .+@#$%&*",
" .+@#$%&*",
" .+@#$%&*",
" .+@#$%&*",
" .+@#$%&*",
" .+@#$%&*",
" .+@#$%&*",
" .+@#$%&*",
" .+@#$%&*",
" .+@#$%&*",
" .+@#$%&*",
" .+@#$%&*",
" .+@#$%&*",
" .+@#$%&*",
" .+@#$%&*",
" .+@#$%&*",
" .+@#$%&*",
" .+@#$%&*",
" .+@#$%&*",
" .+@#$%&*",
" .+@#$%&*",
" .+@#$%&*",
" .+@#$%&*",
" .+@#$%&*",
" .+@#$%&*",
" .+@#$%&*",
" .+@#$%&*",
" .+@#$%&*",
" .+@#$%&*",
" .+@#$%&*",
" .+@#$%&*",
" .+@#$%&*",
" .+@#$%&*",
" .+@#$%&*",
" .+@#$%&*",
" .+@#$%&*",
" .+@#$%&*",
" .+@#$%&*",
" .+@#$%&*",
" .+@#$%&*",
" .+@#$%&*",
" .+@#$%&*",
" .+@#$%&*",
" .+@#$%&*",
" .+@#$%&*",
" .+@#$%&*",
" .+@#$%&*",
" .+@#$%&*",
" .+@#$%&*",
" .+@#$%&*",
" .+@#$%&*",
" .+@#$%&*",
" .+@#$%&*",
" .+@#$%&*",
" .+@#$%&*",
" .+@#$%&*",
" .+@#$%&*",
" .+@#$%&*",
" .+@#$%&*",
" .+@#$%&*",
" .+@#$%&*",
" .+@#$%&*",
" .+@#$%&*",
" .+@#$%&*",
" .+@#$%&*",
" .+@#$%&*",
" .+@#$%&*",
" .+@#$%&*",
" .+@#$%&*",
" .+@#$%&*",
" .+@#$%&*",
" .+@#$%&*",
" .+@#$%&*",
" .+@#$%&*",
" .+@#$%&*",
" .+@#$%&*",
" .+@#$%&*",
" .+@#$%&*",
" .+@#$%&*",
" .+@#$%&*",
" .+@#$%&*",
" .+@#$%&*",
" .+@#$%&*",
" .+@#$%&*",
" .+@#$%&*",
" .+@#$%&*",
" .+@#$%&*",
" .+@#$%&*",
" .+@#$%&*",
" .+@#$%&*",
" .+@#$%&*",
" .+@#$%&*",
" .+@#$%&*",
" .+@#$%&*",
" .+@#$%&*",
" .+@#$%&*",
" .+@#$%&*",
" .+@#$%&*",
" .+@#$%&*",
" .+@#$%&*",
" .+@#$%&*",
" .+@#$%&*",
" .+@#$%&*",
" .+@#$%&*",
" .+@#$%&*",
" .+@#$%&*",
" .+@#$%&*",
" .+@#$%&*",
" .+@#$%&*",
" .+@#$%&*",
" .+@#$%&*",
" .+@#$%&*",
" .+@#$%&*",
" .+@#$%&*",
" .+@#$%&*",
" .+@#$%&*",
" .+@#$%&*",
" .+@#$%&*",
" .+@#$%&*",
" .+@#$%&*",
" .+@#$%&*",
" .+@#$%&*",
" .+@#$%&*",
" .+@#$%&*",
" .+@#$%&*",
" .+@#$%&*",
" .+@#$%&*",
" .+@#$%&*",
" .+@#$%&*",
" .+@#$%&*",
" .+@#$%&*",
" .+@#$%&*",
" .+@#$%&*",
" .+@#$%&*",
" .+@#$%&*",
" .+@#$%&*",
" .+@#$%&*",
" .+@#$%&*",
" .+@#$%&*",
" .+@#$%&*",
" .+@#$%&*",
" .+@#$%&*",
" .+@#$%&*",
" .+@#$%&*",
" .+@#$%&*",
" .+@#$%&*",
" .+@#$%&*",
" .+@#$%&*",
" .+@#$%&*",
" .+@#$%&*",
" .+@#$%&*",
" .+@#$%&*",
" .+@#$%&*",
" .+@#$%&*",
" .+@#$%&*",
" .+@#$%&*",
" .+@#$%&*",
" .+@#$%&*",
" .+@#$%&*",
" .+@#$%&*",
" .+@#$%&*",
" .+@#$%&*",
" .+@#$%&*",
" .+@#$%&*",
" .+@#$%&*",
" .+@#$%&*",
" .+@#$%&*",
" .+@#$%&*",
" .+@#$%&*",
" .+@#$%&*",
" .+@#$%&*",
" .+@#$%&*",
" .+@#$%&*",
" .+@#$%&*",
" .+@#$%&*",
" .+@#$%&*",
" .+@#$%&*",
" .+@#$%&*",
" .+@#$%&*",
" .+@#$%&*",
" .+@#$%&*",
" .+@#$%&*",
" .+@#$%&*",
" .+@#$%&*",
" .+@#$%&*",
" .+@#$%&*",
" .+@#$%&*",
" .+@#$%&*",
" .+@#$%&*",
" .+@#$%&*",
" .+@#$%&*",
" .+@#$%&*",
" .+@#$%&*",
" .+@#$%&*",
" .+@#$%&*",
" .+@#$%&*",
" .+@#$%&*",
" .+@#$%&*",
" .+@#$%&*",
" .+@#$%&*",
" .+@#$%&*",
" .+@#$%&*",
" .+@#$%&*",
" .+@#$%&*",
" .+@#$%&*",
" .+@#$%&*",
" .+@#$%&*",
" .+@#$%&*",
" .+@#$%&*",
" .+@#$%&*",
" .+@#$%&*",
" .+@#$%&*",
" .+@#$%&*",
" .+@#$%&*",
" .+@#$%&*",
" .+@#$%&*",
" .+@#$%&*",
" .+@#$%&*",
" .+@#$%&*",
" .+@#$%&*",
" .+@#$%&*",
" .+@#$%&*",
" .+@#$%&*",
" .+@#$%&*",
" .+@#$%&*",
" .+@#$%&*",
" .+@#$%&*",
" .+@#$%&*",
" .+@#$%&*",
" .+@#$%&*",
" .+@#$%&*",
" .+@#$%&*",
" .+@#$%&*",
" .+@#$%&*",
" .+@#$%&*",
" .+@#$%&*",
" .+@#$%&*",
" .+@#$%&*"};
