/* XPM */
static char * right_active_xpm[] = {
"9 780 55 1",
" 	c #282828",
".	c #4A4A4A",
"+	c #5A5A5A",
"@	c #474747",
"#	c #444444",
"$	c #3F3F3F",
"%	c #3E3E3E",
"&	c #353535",
"*	c #262626",
"=	c #232323",
"-	c #00DEDE",
";	c #373737",
">	c #242424",
",	c #2F2F2F",
"'	c #3B3B3B",
")	c #454545",
"!	c #323232",
"~	c #5D5D5D",
"{	c #5E5E5E",
"]	c #808080",
"^	c #5C5C5C",
"/	c #3A3A3A",
"(	c #00DFDF",
"_	c #424242",
":	c #626262",
"<	c #5F5F5F",
"[	c #5B5B5B",
"}	c #7F7F7F",
"|	c #606060",
"1	c #292929",
"2	c #434343",
"3	c #717171",
"4	c #505050",
"5	c #676767",
"6	c #2C2C2C",
"7	c #585858",
"8	c #686868",
"9	c #656565",
"0	c #545454",
"a	c #303030",
"b	c #666666",
"c	c #646464",
"d	c #555555",
"e	c #2E2E2E",
"f	c #333333",
"g	c #535353",
"h	c #525252",
"i	c #343434",
"j	c #575757",
"k	c #414141",
"l	c #4E4E4E",
"m	c #595959",
"n	c #383838",
"o	c #313131",
"p	c #2A2A2A",
" .+@#$%&*",
" .+@#$%&*",
" .+@#$%&*",
" .+@#$%&*",
" .+@#$%&*",
" .+@#$%&*",
" .+@#$%&*",
" .+@#$%&*",
" .+@#$%&*",
" .+@#$%&*",
" .+@#$%&*",
" .+@#$%&*",
" .+@#$%&*",
" .+@#$%&*",
" .+@#$%&*",
" .+@#$%&*",
" .+@#$%&*",
" .+@#$%&*",
" .+@#$%&*",
" .+@#$%&*",
" .+@#$%&*",
" .+@#$%&*",
" .+@#$%&*",
" .+@#$%&*",
" .+@#$%&*",
" .+@#$%&*",
" .+@#$%&*",
" .+@#$%&*",
" .+@#$%&*",
" .+@#$%&*",
" .+@#$%&*",
" .+@#$%&*",
" .+@#$%&*",
" .+@#$%&*",
" .+@#$%&*",
" .+@#$%&*",
" .+@#$%&*",
" .+@#$%&*",
" .+@#$%&*",
" .+@#$%&*",
" .+@#$%&*",
" .+@#$%&*",
" .+@#$%&*",
" .+@#$%&*",
" .+@#$%&*",
" .+@#$%&*",
" .+@#$%&*",
" .+@#$%&*",
" .+@#$%&*",
" .+@#$%&*",
" .+@#$%&*",
" .+@#$%&*",
" .+@#$%&*",
" .+@#$%&*",
" .+@#$%&*",
" .+@#$%&*",
" .+@#$%&*",
" .+@#$%&*",
" .+@#$%&*",
" .+@#$%&*",
" .+@#$%&*",
" .+@#$%&*",
" .+@#$%&*",
" .+@#$%&*",
" .+@#$%&*",
" .+@#$%&*",
" .+@#$%&*",
" .+@#$%&*",
" .+@#$%&*",
" .+@#$%&*",
" .+@#$%&*",
" .+@#$%&*",
" .+@#$%&*",
" .+@#$%&*",
" .+@#$%&*",
" .+@#$%&*",
" .+@#$%&*",
" .+@#$%&*",
" .+@#$%&*",
" .+@#$%&*",
" .+@#$%&*",
" .+@#$%&*",
" .+@#$%&*",
" .+@#$%&*",
" .+@#$%&*",
" .+@#$%&*",
" .+@#$%&*",
" .+@#$%&*",
" .+@#$%&*",
" .+@#$%&*",
" .+@#$%&*",
" .+@#$%&*",
" .+@#$%&*",
" .+@#$%&*",
" .+@#$%&*",
" .+@#$%&*",
" .+@#$%&*",
" .+@#$%&*",
" .+@#$%&*",
" .+@#$%&*",
" .+@#$%&*",
" .+@#$%&*",
" .+@#$%&*",
" .+@#$%&*",
" .+@#$%&*",
" .+@#$%&*",
" .+@#$%&*",
" .+@#$%&*",
" .+@#$%&*",
" .+@#$%&*",
" .+@#$%&*",
" .+@#$%&*",
" .+@#$%&*",
" .+@#$%&*",
" .+@#$%&*",
" .+@#$%&*",
" .+@#$%&*",
" .+@#$%&*",
" .+@#$%&*",
" .+@#$%&*",
" .+@#$%&*",
" .+@#$%&*",
" .+@#$%&*",
" .+@#$%&*",
" .+@#$%&*",
" .+@#$%&*",
" .+@#$%&*",
" .+@#$%&*",
" .+@#$%&*",
" .+@#$%&*",
" .+@#$%&*",
" .+@#$%&*",
" .+@#$%&*",
" .+@#$%&*",
" .+@#$%&*",
" .+@#$%&*",
" .+@#$%&*",
" .+@#$%&*",
" .+@#$%&*",
" .+@#$%&*",
" .+@#$%&*",
" .+@#$%&*",
" .+@#$%&*",
" .+@#$%&*",
" .+@#$%&*",
" .+@#$%&*",
" .+@#$%&*",
" .+@#$%&*",
" .+@#$%&*",
" .+@#$%&*",
" .+@#$%&*",
" .+@#$%&*",
" .+@#$%&*",
" .+@#$%&*",
" .+@#$%&*",
" .+@#$%&*",
" .+@#$%&*",
" .+@#$%&*",
" .+@#$%&*",
" .+@#$%&*",
" .+@#$%&*",
" .+@#$%&*",
" .+@#$%&*",
" .+@#$%&*",
" .+@#$%&*",
" .+@#$%&*",
" .+@#$%&*",
" .+@#$%&*",
" .+@#$%&*",
" .+@#$%&*",
" .+@#$%&*",
" .+@#$%&*",
" .+@#$%&*",
" .+@#$%&*",
" .+@#$%&*",
" .+@#$%&*",
" .+@#$%&*",
" .+@#$%&*",
" .+@#$%&*",
" .+@#$%&*",
" .+@#$%&*",
" .+@#$%&*",
" .+@#$%&*",
" .+@#$%&*",
" .+@#$%&*",
" .+@#$%&*",
" .+@#$%&*",
" .+@#$%&*",
" .+@#$%&*",
" .+@#$%&*",
" .+@#$%&*",
" .+@#$%&*",
" .+@#$%&*",
" .+@#$%&*",
" .+@#$%&*",
" .+@#$%&*",
" .+@#$%&*",
" .+@#$%&*",
" .+@#$%&*",
" .+@#$%&*",
" .+@#$%&*",
" .+@#$%&*",
" .+@#$%&*",
" .+@#$%&*",
" .+@#$%&*",
" .+@#$%&*",
" .+@#$%&*",
" .+@#$%&*",
" .+@#$%&*",
" .+@#$%&*",
" .+@#$%&*",
" .+@#$%&*",
" .+@#$%&*",
" .+@#$%&*",
" .+@#$%&*",
" .+@#$%&*",
" .+@#$%&*",
" .+@#$%&*",
" .+@#$%&*",
" .+@#$%&*",
" .+@#$%&*",
" .+@#$%&*",
" .+@#$%&*",
" .+@#$%&*",
" .+@#$%&*",
" .+@#$%&*",
" .+@#$%&*",
" .+@#$%&*",
" .+@#$%&*",
" .+@#$%&*",
" .+@#$%&*",
" .+@#$%&*",
" .+@#$%&*",
" .+@#$%&*",
" .+@#$%&*",
" .+@#$%&*",
" .+@#$%&*",
" .+@#$%&*",
" .+@#$%&*",
" .+@#$%&*",
" .+@#$%&*",
" .+@#$%&*",
" .+@#$%&*",
" .+@#$%&*",
" .+@#$%&*",
" .+@#$%&*",
" .+@#$%&*",
" .+@#$%&*",
" .+@#$%&*",
" .+@#$%&*",
" .+@#$%&*",
" .+@#$%&*",
" .+@#$%&*",
" .+@#$%&*",
" .+@#$%&*",
" .+@#$%&*",
" .+@#$%&*",
" .+@#$%&*",
" .+@#$%&*",
" .+@#$%&*",
" .+@#$%&*",
" .+@#$%&*",
" .+@#$%&*",
" .+@#$%&*",
" .+@#$%&*",
" .+@#$%&*",
" .+@#$%&*",
" .+@#$%&*",
" .+@#$%&*",
" .+@#$%&*",
" .+@#$%&*",
" .+@#$%&*",
" .+@#$%&*",
" .+@#$%&*",
" .+@#$%&*",
" .+@#$%&*",
" .+@#$%&*",
" .+@#$%&*",
" .+@#$%&*",
" .+@#$%&*",
" .+@#$%&*",
" .+@#$%&*",
" .+@#$%&*",
" .+@#$%&*",
" .+@#$%&*",
" .+@#$%&*",
" .+@#$%&*",
" .+@#$%&*",
" .+@#$%&*",
" .+@#$%&*",
" .+@#$%&*",
" .+@#$%&*",
" .+@#$%&*",
" .+@#$%&*",
" .+@#$%&*",
" .+@#$%&*",
" .+@#$%&*",
" .+@#$%&*",
" .+@#$%&*",
" .+@#$%&*",
" .+@#$%&*",
" .+@#$%&*",
" .+@#$%&*",
" .+@#$%&*",
" .+@#$%&*",
"=.-;-$$&>",
"=.---$$&>",
"=.-,-$$&>",
"=.-;-$$&>",
"=.')-$$&>",
"=.!)-$$&>",
"=.~{-$$&>",
"=.~]-$$&>",
"=.~^-$$&>",
"=--)-$$&>",
"--''-$$&>",
"-/~----(-",
"-.~----(-",
"-.{---((-",
"-.^-_$$&-",
"-/~-#~-:-",
"-&~-#~-<-",
"-.~-#~-{-",
"-.~-#[-{-",
"-.{-#----",
"-.}-#~-{-",
"-.~-#~-|-",
"-/~-#~-<-",
"--'-#[-<-",
"----#$$<-",
"1--2#$$~-",
"=.~)#$$&>",
"=.~)#$$&>",
"=^---(-&>",
"=]-){34&>",
"={-)+5$&>",
"6.-)78$&>",
"6.-)+9$&>",
"-/-)09$&>",
"-a-)05$&>",
"---)7b$&>",
"-/-)09$&>",
"6.-)+b$&>",
"=^-)+c$&>",
"=.~)#$$&>",
"=.~)#$$&>",
"bd~-;-[&>",
"bd~---~&>",
"bd~-,-~&>",
"bd~-;-~&>",
"b7~-#!~&>",
"5d~-#e{&>",
"9d~-{${&>",
"9+~-]$~&>",
"87~-^$_&>",
"5+~-#--&>",
"3{~-/!--~",
"(----$&-^",
"(----~$-[",
"((---{$-[",
"=.~2-^$-+",
":-~)-$&-[",
"<-~)-$!-[",
"{-~)-~$-[",
"{-[)-~$-[",
"---)-{$-[",
"{-~)-}$-~",
"|-~)-~$-~",
"<-~)-$&-~",
"<-[)-!--~",
"<.~)----^",
"~.~)_--f>",
"=.~)#$$&>",
"=.~)#$$&>",
"=.~)#$$&>",
"=.~)#$$&>",
"=.~)#$$&>",
"=.~)#$$&>",
"=.~)#$$&>",
"=.~)#$$&>",
"=.~)#$$&>",
"=.~)#$$&>",
"=.~)#$$&>",
"=.~)#$$&>",
"=-(---^&e",
"=g3{#-]&>",
"=.5+#-{&>",
"=.87#-$e>",
"=.9+#-$,>",
"=.9d#-&->",
"=.5d#-e->",
"=.b7#--->",
"=.9d#-&->",
"=.b+#-$,>",
"=.c+#-^&>",
"=.[-;-$h>",
"=.~---$h>",
"=.~-,-$h>",
"=.~-;-$h>",
"=.~i#-$j>",
"=.{,#-$h>",
"=.{){-$h>",
"=.~)]-$+>",
"=.^)^-$j>",
"=.--#-$+>",
"=--i/-${>",
"=-2)----(",
"=-~~----(",
"=-~{---((",
"=-~^-%$&>",
"=-2)-$~-:",
"=-')-$~-<",
"=-~~-$~-{",
"=-~~-$[-{",
"=-~{-$---",
"=-~}-$~-{",
"=-~~-$~-|",
"=-2)-$~-<",
"=--i-$[-<",
"=----$$&<",
"=k--_$$&~",
"=.~)#$$&>",
"=.~)#$$&>",
"=.^---(->",
"=.]-#{3l>",
"=.{-#+5&>",
"=a~-#78&>",
"=&~-#+9&>",
"=-2-#09&>",
"=-!-#05&>",
"=---#7b&>",
"=-2-#09&>",
"=&~-#+b&>",
"=.^-#+c&>",
"=.~)#$$&>",
"=.~)#$$&>",
"=bm)-&-[>",
"=bm)---~>",
"=bm)-e-~>",
"=bm)-&-~>",
"=bm)-$!~>",
"=5m)-$e{>",
"=9m)-{${>",
"=9+)-]$~>",
"=8m)-^$/>",
"=5+)-$-->",
"=3{)-n!--",
"-(----$o-",
"-(----~&-",
"-((---{&-",
"-.~)_-^&-",
"-:-~#-$o-",
"-<-~#-$,-",
"-{-~#-~&-",
"-{-[#-~&-",
"----#-{&-",
"-{-~#-}&-",
"-|-~#-~&-",
"-<-~#-$o-",
"-<-[#-!--",
"-<~)#----",
"-~~)#%--p",
"=.~)#$$&>",
"=.~)#$$&>",
"=.-(---^>",
"=.m3{$-]>",
"=.~5+$-{>",
"=.~87$-&6",
"=.~9+$-&6",
"=.~90$-o-",
"=.~50$-e-",
"=.~b7$---",
"=.~90$-o-",
"=.~b+$-&6",
"=.~c+$-^>",
" .+@#$%&*",
" .+@#$%&*",
" .+@#$%&*",
" .+@#$%&*",
" .+@#$%&*",
" .+@#$%&*",
" .+@#$%&*",
" .+@#$%&*",
" .+@#$%&*",
" .+@#$%&*",
" .+@#$%&*",
" .+@#$%&*",
" .+@#$%&*",
" .+@#$%&*",
" .+@#$%&*",
" .+@#$%&*",
" .+@#$%&*",
" .+@#$%&*",
" .+@#$%&*",
" .+@#$%&*",
" .+@#$%&*",
" .+@#$%&*",
" .+@#$%&*",
" .+@#$%&*",
" .+@#$%&*",
" .+@#$%&*",
" .+@#$%&*",
" .+@#$%&*",
" .+@#$%&*",
" .+@#$%&*",
" .+@#$%&*",
" .+@#$%&*",
" .+@#$%&*",
" .+@#$%&*",
" .+@#$%&*",
" .+@#$%&*",
" .+@#$%&*",
" .+@#$%&*",
" .+@#$%&*",
" .+@#$%&*",
" .+@#$%&*",
" .+@#$%&*",
" .+@#$%&*",
" .+@#$%&*",
" .+@#$%&*",
" .+@#$%&*",
" .+@#$%&*",
" .+@#$%&*",
" .+@#$%&*",
" .+@#$%&*",
" .+@#$%&*",
" .+@#$%&*",
" .+@#$%&*",
" .+@#$%&*",
" .+@#$%&*",
" .+@#$%&*",
" .+@#$%&*",
" .+@#$%&*",
" .+@#$%&*",
" .+@#$%&*",
" .+@#$%&*",
" .+@#$%&*",
" .+@#$%&*",
" .+@#$%&*",
" .+@#$%&*",
" .+@#$%&*",
" .+@#$%&*",
" .+@#$%&*",
" .+@#$%&*",
" .+@#$%&*",
" .+@#$%&*",
" .+@#$%&*",
" .+@#$%&*",
" .+@#$%&*",
" .+@#$%&*",
" .+@#$%&*",
" .+@#$%&*",
" .+@#$%&*",
" .+@#$%&*",
" .+@#$%&*",
" .+@#$%&*",
" .+@#$%&*",
" .+@#$%&*",
" .+@#$%&*",
" .+@#$%&*",
" .+@#$%&*",
" .+@#$%&*",
" .+@#$%&*",
" .+@#$%&*",
" .+@#$%&*",
" .+@#$%&*",
" .+@#$%&*",
" .+@#$%&*",
" .+@#$%&*",
" .+@#$%&*",
" .+@#$%&*",
" .+@#$%&*",
" .+@#$%&*",
" .+@#$%&*",
" .+@#$%&*",
" .+@#$%&*",
" .+@#$%&*",
" .+@#$%&*",
" .+@#$%&*",
" .+@#$%&*",
" .+@#$%&*",
" .+@#$%&*",
" .+@#$%&*",
" .+@#$%&*",
" .+@#$%&*",
" .+@#$%&*",
" .+@#$%&*",
" .+@#$%&*",
" .+@#$%&*",
" .+@#$%&*",
" .+@#$%&*",
" .+@#$%&*",
" .+@#$%&*",
" .+@#$%&*",
" .+@#$%&*",
" .+@#$%&*",
" .+@#$%&*",
" .+@#$%&*",
" .+@#$%&*",
" .+@#$%&*",
" .+@#$%&*",
" .+@#$%&*",
" .+@#$%&*",
" .+@#$%&*",
" .+@#$%&*",
" .+@#$%&*",
" .+@#$%&*",
" .+@#$%&*",
" .+@#$%&*",
" .+@#$%&*",
" .+@#$%&*",
" .+@#$%&*",
" .+@#$%&*",
" .+@#$%&*",
" .+@#$%&*",
" .+@#$%&*",
" .+@#$%&*",
" .+@#$%&*",
" .+@#$%&*",
" .+@#$%&*",
" .+@#$%&*",
" .+@#$%&*",
" .+@#$%&*",
" .+@#$%&*",
" .+@#$%&*",
" .+@#$%&*",
" .+@#$%&*",
" .+@#$%&*",
" .+@#$%&*",
" .+@#$%&*",
" .+@#$%&*",
" .+@#$%&*",
" .+@#$%&*",
" .+@#$%&*",
" .+@#$%&*",
" .+@#$%&*",
" .+@#$%&*",
" .+@#$%&*",
" .+@#$%&*",
" .+@#$%&*",
" .+@#$%&*",
" .+@#$%&*",
" .+@#$%&*",
" .+@#$%&*",
" .+@#$%&*",
" .+@#$%&*",
" .+@#$%&*",
" .+@#$%&*",
" .+@#$%&*",
" .+@#$%&*",
" .+@#$%&*",
" .+@#$%&*",
" .+@#$%&*",
" .+@#$%&*",
" .+@#$%&*",
" .+@#$%&*",
" .+@#$%&*",
" .+@#$%&*",
" .+@#$%&*",
" .+@#$%&*",
" .+@#$%&*",
" .+@#$%&*",
" .+@#$%&*",
" .+@#$%&*",
" .+@#$%&*",
" .+@#$%&*",
" .+@#$%&*",
" .+@#$%&*",
" .+@#$%&*",
" .+@#$%&*",
" .+@#$%&*",
" .+@#$%&*",
" .+@#$%&*",
" .+@#$%&*",
" .+@#$%&*",
" .+@#$%&*",
" .+@#$%&*",
" .+@#$%&*",
" .+@#$%&*",
" .+@#$%&*",
" .+@#$%&*",
" .+@#$%&*",
" .+@#$%&*",
" .+@#$%&*",
" .+@#$%&*",
" .+@#$%&*",
" .+@#$%&*",
" .+@#$%&*",
" .+@#$%&*",
" .+@#$%&*",
" .+@#$%&*",
" .+@#$%&*",
" .+@#$%&*",
" .+@#$%&*",
" .+@#$%&*",
" .+@#$%&*",
" .+@#$%&*",
" .+@#$%&*",
" .+@#$%&*",
" .+@#$%&*",
" .+@#$%&*",
" .+@#$%&*",
" .+@#$%&*",
" .+@#$%&*",
" .+@#$%&*",
" .+@#$%&*",
" .+@#$%&*",
" .+@#$%&*",
" .+@#$%&*",
" .+@#$%&*",
" .+@#$%&*",
" .+@#$%&*",
" .+@#$%&*",
" .+@#$%&*",
" .+@#$%&*",
" .+@#$%&*",
" .+@#$%&*",
" .+@#$%&*",
" .+@#$%&*",
" .+@#$%&*",
" .+@#$%&*",
" .+@#$%&*",
" .+@#$%&*",
" .+@#$%&*",
" .+@#$%&*",
" .+@#$%&*",
" .+@#$%&*",
" .+@#$%&*",
" .+@#$%&*",
" .+@#$%&*",
" .+@#$%&*",
" .+@#$%&*",
" .+@#$%&*",
" .+@#$%&*",
" .+@#$%&*",
" .+@#$%&*",
" .+@#$%&*",
" .+@#$%&*",
" .+@#$%&*",
" .+@#$%&*",
" .+@#$%&*",
" .+@#$%&*",
" .+@#$%&*",
" .+@#$%&*",
" .+@#$%&*",
" .+@#$%&*",
" .+@#$%&*",
" .+@#$%&*",
" .+@#$%&*",
" .+@#$%&*",
" .+@#$%&*",
" .+@#$%&*",
" .+@#$%&*",
" .+@#$%&*",
" .+@#$%&*",
" .+@#$%&*",
" .+@#$%&*",
" .+@#$%&*",
" .+@#$%&*",
" .+@#$%&*",
" .+@#$%&*",
" .+@#$%&*",
" .+@#$%&*",
" .+@#$%&*",
" .+@#$%&*",
" .+@#$%&*",
" .+@#$%&*",
" .+@#$%&*",
" .+@#$%&*",
" .+@#$%&*",
" .+@#$%&*",
" .+@#$%&*",
" .+@#$%&*",
" .+@#$%&*",
" .+@#$%&*",
" .+@#$%&*",
" .+@#$%&*",
" .+@#$%&*",
" .+@#$%&*",
" .+@#$%&*"};
