/* XPM */
static char * shade_active_xpm[] = {
"33 32 317 2",
"  	c #4C4C4C",
". 	c #4B4B4B",
"+ 	c #4D4D4D",
"@ 	c #4E4E4E",
"# 	c #4F4F4F",
"$ 	c #191919",
"% 	c #181818",
"& 	c #171717",
"* 	c #151515",
"= 	c #161616",
"- 	c #1B1B1B",
"; 	c #1F1F1F",
"> 	c #111111",
", 	c #131313",
"' 	c #202020",
") 	c #242424",
"! 	c #282828",
"~ 	c #2A2A2A",
"{ 	c #070707",
"] 	c #080808",
"^ 	c #020202",
"/ 	c #060606",
"( 	c #0C0C0C",
"_ 	c #0F0F0F",
": 	c #2F2F2F",
"< 	c #313131",
"[ 	c #0E0E0E",
"} 	c #0D0D0D",
"| 	c #0B0B0B",
"1 	c #0A0A0A",
"2 	c #1E1E1E",
"3 	c #212121",
"4 	c #252525",
"5 	c #292929",
"6 	c #2E2E2E",
"7 	c #303030",
"8 	c #333333",
"9 	c #353535",
"0 	c #1D1D1D",
"a 	c #1A1A1A",
"b 	c #232323",
"c 	c #262626",
"d 	c #383838",
"e 	c #3D3D3D",
"f 	c #3F3F3E",
"g 	c #3C3C3C",
"h 	c #38393A",
"i 	c #343535",
"j 	c #343435",
"k 	c #353536",
"l 	c #353534",
"m 	c #343434",
"n 	c #101010",
"o 	c #353633",
"p 	c #1D2224",
"q 	c #1B1C1B",
"r 	c #161B20",
"s 	c #0F1C25",
"t 	c #0E1D27",
"u 	c #0D1F28",
"v 	c #0E1F2A",
"w 	c #0F1D28",
"x 	c #191C22",
"y 	c #1C1F20",
"z 	c #1F2426",
"A 	c #282827",
"B 	c #2B2C29",
"C 	c #2A2A2B",
"D 	c #121212",
"E 	c #313232",
"F 	c #242629",
"G 	c #1A2127",
"H 	c #13272E",
"I 	c #143D4C",
"J 	c #1F5667",
"K 	c #286A7C",
"L 	c #2D768A",
"M 	c #307F93",
"N 	c #2E7C91",
"O 	c #2F7F94",
"P 	c #2E7C93",
"Q 	c #307F96",
"R 	c #317E94",
"S 	c #30798F",
"T 	c #2A6C82",
"U 	c #235C70",
"V 	c #1E4251",
"W 	c #1E2B34",
"X 	c #27292B",
"Y 	c #272828",
"Z 	c #323636",
"` 	c #2B2F30",
" .	c #1A262C",
"..	c #2F7387",
"+.	c #3EA0B6",
"@.	c #3BA3B6",
"#.	c #3FAEBC",
"$.	c #6DBBC1",
"%.	c #A7D3D5",
"&.	c #96CDCE",
"*.	c #4DC9CA",
"=.	c #4CD1D1",
"-.	c #4BD1D1",
";.	c #4BD0D1",
">.	c #4ACCD0",
",.	c #47C5CE",
"'.	c #42B6C6",
").	c #3BA0AF",
"!.	c #358D9C",
"~.	c #317A8B",
"{.	c #1B4A59",
"].	c #202F34",
"^.	c #2D3132",
"/.	c #2F3333",
"(.	c #484B4C",
"_.	c #383C3D",
":.	c #162B36",
"<.	c #2F7688",
"[.	c #3FACC0",
"}.	c #45C0C1",
"|.	c #4DCACA",
"1.	c #C7DBDC",
"2.	c #F9FAFA",
"3.	c #D4E4E5",
"4.	c #95D4D4",
"5.	c #51D1D1",
"6.	c #50D6D6",
"7.	c #4FD6D6",
"8.	c #4DD6D6",
"9.	c #4CD6D6",
"0.	c #4CD3D6",
"a.	c #4BD2D6",
"b.	c #49CAD2",
"c.	c #40B1C1",
"d.	c #3999AC",
"e.	c #337F93",
"f.	c #1E292F",
"g.	c #414546",
"h.	c #47494A",
"i.	c #383939",
"j.	c #656A6B",
"k.	c #2C363A",
"l.	c #1F5366",
"m.	c #3895AB",
"n.	c #49C6C6",
"o.	c #52DADA",
"p.	c #61C5C5",
"q.	c #CADFE0",
"r.	c #7FD2D2",
"s.	c #53DADA",
"t.	c #52DCDC",
"u.	c #51DCDC",
"v.	c #50DCDC",
"w.	c #4EDBDC",
"x.	c #4DD7DC",
"y.	c #4CD5DC",
"z.	c #4CD4DC",
"A.	c #4BCFD9",
"B.	c #42B7C9",
"C.	c #3DA1B7",
"D.	c #184656",
"E.	c #464D50",
"F.	c #65696B",
"G.	c #141414",
"H.	c #3E3F3E",
"I.	c #6F7374",
"J.	c #263236",
"K.	c #225971",
"L.	c #30849C",
"M.	c #50D3D3",
"N.	c #55DFDF",
"O.	c #55E0E0",
"P.	c #55E1E1",
"Q.	c #56E1E1",
"R.	c #54E1E1",
"S.	c #53E1E1",
"T.	c #52E1E1",
"U.	c #52E2E2",
"V.	c #51E2E2",
"W.	c #50E1E2",
"X.	c #4FDDE2",
"Y.	c #4EDAE2",
"Z.	c #4DD7E2",
"`.	c #4BD1DE",
" +	c #44BFD4",
".+	c #3BA0B3",
"++	c #266278",
"@+	c #454D4E",
"#+	c #323434",
"$+	c #5A5E5F",
"%+	c #343B3E",
"&+	c #163E50",
"*+	c #317F95",
"=+	c #49C2C6",
"-+	c #4ED1D1",
";+	c #54DFDF",
">+	c #57E6E6",
",+	c #56E7E7",
"'+	c #55E7E7",
")+	c #54E7E7",
"!+	c #53E7E7",
"~+	c #52E7E7",
"{+	c #51E6E7",
"]+	c #50E3E5",
"^+	c #4EDADD",
"/+	c #47C7CE",
"(+	c #3FACBF",
"_+	c #3C9EB5",
":+	c #1E4D5F",
"<+	c #474D4F",
"[+	c #5A5D5E",
"}+	c #3F4141",
"|+	c #353939",
"1+	c #20272D",
"2+	c #1D495A",
"3+	c #3A9AB1",
"4+	c #42AEBA",
"5+	c #49BDBD",
"6+	c #4DCBCB",
"7+	c #51DADA",
"8+	c #55E4E4",
"9+	c #57E8E8",
"0+	c #57EAEA",
"a+	c #57EBEB",
"b+	c #55EAEA",
"c+	c #55E8E8",
"d+	c #52E3E3",
"e+	c #4ED7D8",
"f+	c #4AC4C7",
"g+	c #45B2BA",
"h+	c #3DA1B1",
"i+	c #348496",
"j+	c #31768D",
"k+	c #2A3237",
"l+	c #383B3C",
"m+	c #3C3E3E",
"n+	c #2B2B2B",
"o+	c #2D2F30",
"p+	c #242627",
"q+	c #1B333E",
"r+	c #255E70",
"s+	c #307888",
"t+	c #3A8495",
"u+	c #4694A3",
"v+	c #4B9DAC",
"w+	c #4FA9B2",
"x+	c #51B3B9",
"y+	c #52B8BC",
"z+	c #52B9BC",
"A+	c #52B6BA",
"B+	c #50AEB4",
"C+	c #4CA5AE",
"D+	c #47A1AF",
"E+	c #409AAC",
"F+	c #3993A9",
"G+	c #36829B",
"H+	c #285264",
"I+	c #292E31",
"J+	c #2E3131",
"K+	c #333434",
"L+	c #1C1C1C",
"M+	c #222222",
"N+	c #323232",
"O+	c #3E3E3E",
"P+	c #2E2F2F",
"Q+	c #242628",
"R+	c #1E2425",
"S+	c #142933",
"T+	c #153848",
"U+	c #1E4B5E",
"V+	c #285E72",
"W+	c #326A7F",
"X+	c #366F83",
"Y+	c #3A7488",
"Z+	c #387489",
"`+	c #37788E",
" @	c #32758E",
".@	c #2F7087",
"+@	c #28627A",
"@@	c #265469",
"#@	c #243843",
"$@	c #26292D",
"%@	c #373737",
"&@	c #3F3F3F",
"*@	c #393939",
"=@	c #484848",
"-@	c #4A4A4A",
";@	c #484746",
">@	c #3F3E3E",
",@	c #313434",
"'@	c #282925",
")@	c #202022",
"!@	c #1A1F25",
"~@	c #171B21",
"{@	c #151C22",
"]@	c #191E25",
"^@	c #1B2129",
"/@	c #232423",
"(@	c #282A28",
"_@	c #323435",
":@	c #3C3A39",
"<@	c #434343",
"[@	c #424242",
"}@	c #515151",
"|@	c #545454",
"1@	c #575757",
"2@	c #585858",
"3@	c #535353",
"4@	c #535354",
"5@	c #2C2C2C",
"6@	c #474747",
"7@	c #525252",
"8@	c #2D2D2D",
"9@	c #454545",
"0@	c #565656",
"a@	c #494949",
"b@	c #272727",
"          . . . . . . . . .                                       ",
"          . . . . . . . . .                                       ",
"+ + + + + + + + + + + + + + + + + + + + + + + + + + + + + + + + + ",
"@ @ @ @ @ @ @ @ @ @ @ @ @ @ @ @ @ @ @ @ @ @ @ @ @ @ @ @ @ @ @ @ @ ",
"# # # # # # # # # # # # # # # # # # # # # # # # # # # # # # # # # ",
"# # # # # # # # # # # # # @ # # # # # # # # # # # # # # # # # # # ",
"$ $ $ $ $ % % & * * = % - ; ; ; ; ; ; ; - % = * * & % % $ $ $ % $ ",
"% $ % % * > > , % - ' ) ! ~ ~ ~ ~ ~ ~ ~ ! ) ' - % , > > { ] { { ^ ",
"/ { ( _ > , & - ' ) ! ~ : < < < < < < < : ~ ! ) ' - & , > [ } | { ",
"| 1 > > * $ 2 3 4 5 6 7 8 9 9 9 9 9 9 9 8 7 6 5 4 3 2 $ * > > 0 ; ",
"; % > = a 2 b c ~ : d e f g h i j k k 9 l m < 6 ~ c b 2 a = > n b ",
"[ > , $ 0 3 4 9 d o ~ p q r s t u v w x y z A B C 5 4 3 0 $ , > } ",
"& D & - ' E < F G H I J K L M N O P Q R S T U V W X 5 Y ' - & D & ",
"% * $ b Z `  ...+.@.#.$.%.&.*.=.-.-.;.>.,.'.).!.~.{.].^./.b $ * & ",
"> & ' (._.:.<.[.}.|.1.2.3.4.5.6.7.7.7.8.9.0.a.b.c.d.e.f.g.h.' & > ",
"D $ i.j.k.l.m.n.o.p.q.r.s.t.t.u.u.u.v.v.w.x.y.z.A.B.C.D.E.F.i.$ D ",
"G.a H.I.J.K.L.M.N.O.P.Q.P.R.S.S.S.T.U.V.W.X.Y.Z.`. +.+++@+I.H.a G.",
"& - #+$+%+&+*+=+-+;+>+,+,+,+'+'+)+)+!+!+~+{+]+^+/+(+_+:+<+[+#+- * ",
"& - ) }+|+1+2+3+4+5+6+7+8+9+0+a+a+a+b+c+d+e+f+g+h+i+j+k+l+m+) - * ",
"& - b n+i.o+p+q+r+s+t+u+v+w+x+y+z+z+A+B+C+D+E+F+G+H+I+J+K+n+b - = ",
"8 L+M+n+N+O+g P+Q+R+S+T+U+V+W+X+Y+Z+`+ @.@+@@@#@$@: 9 %@N+n+M+- &@",
"*@4 L+! N+d e =@-@;@>@,@'@)@!@~@{@]@^@/@(@_@:@f <@[@e d N+! 2 M+9 ",
"= * 7 5 6 %@e <@=@  }@|@1@2@1@|@3@3@4@|@3@}@@   =@<@e %@6 4 5@- n ",
"- 5 m > 0 : *@[@6@  @ 7@3@1@2@2@1@1@1@1@3@7@@   6@[@*@: 0 b 4 4 4 ",
"3 b 3 2 3 b 8@%@O+9@-@@ }@7@0@3@7@7@7@7@}@@ -@9@O+%@8@b a a a a a ",
"6@6@6@6@6@=@=@=@=@9@9@6@6@a@-@a@a@a@a@a@6@6@9@9@=@=@=@=@6@6@6@=@=@",
"n+n+n+n+n+n+n+n+n+n+n+n+n+n+n+n+n+n+n+n+n+n+n+n+n+n+n+n+n+n+n+n+n+",
"b@b@b@b@b@c c c c c c c c c 4 4 4 4 4 4 4 4 4 4 4 4 4 b@b@b@b@b@b@",
"b b b b b b b b b b b b b b b b b b b b b b b b b b b b b b b b b ",
"; ; ; ; ; ; ; ; ; ; ; ; ; ; ; ; ; ; ; ; ; ; ; ; ; ; ; ; ; ; ; ; ; ",
"L+L+L+L+L+- - - - - - - - - - - - - - - - - - - - - - L+L+L+L+L+L+",
"$ $ $ $ $ $ $ $ $ $ $ $ $ $ $ $ $ $ $ $ $ $ $ $ $ $ $ $ $ $ $ $ $ "};
