/* XPM */
static char * shade_inactive_xpm[] = {
"33 32 141 2",
"  	c #4C4C4C",
". 	c #4B4B4B",
"+ 	c #4D4D4D",
"@ 	c #4E4E4E",
"# 	c #4F4F4F",
"$ 	c #191919",
"% 	c #181818",
"& 	c #171717",
"* 	c #151515",
"= 	c #161616",
"- 	c #1B1B1B",
"; 	c #1F1F1F",
"> 	c #111111",
", 	c #131313",
"' 	c #202020",
") 	c #242424",
"! 	c #282828",
"~ 	c #2A2A2A",
"{ 	c #070707",
"] 	c #080808",
"^ 	c #020202",
"/ 	c #060606",
"( 	c #0C0C0C",
"_ 	c #0F0F0F",
": 	c #2F2F2F",
"< 	c #313131",
"[ 	c #0E0E0E",
"} 	c #0D0D0D",
"| 	c #0B0B0B",
"1 	c #0A0A0A",
"2 	c #1E1E1E",
"3 	c #212121",
"4 	c #252525",
"5 	c #292929",
"6 	c #2E2E2E",
"7 	c #303030",
"8 	c #333333",
"9 	c #353535",
"0 	c #1D1D1D",
"a 	c #1A1A1A",
"b 	c #232323",
"c 	c #262626",
"d 	c #363636",
"e 	c #383838",
"f 	c #101010",
"g 	c #343434",
"h 	c #1C1C1C",
"i 	c #121212",
"j 	c #222222",
"k 	c #303131",
"l 	c #272727",
"m 	c #141414",
"n 	c #454545",
"o 	c #545454",
"p 	c #525252",
"q 	c #535353",
"r 	c #505050",
"s 	c #474747",
"t 	c #3C3C3C",
"u 	c #2D2F2F",
"v 	c #6B6B6B",
"w 	c #6C6C6C",
"x 	c #747474",
"y 	c #7F7F7F",
"z 	c #949494",
"A 	c #8F8F8F",
"B 	c #868686",
"C 	c #8A8A8A",
"D 	c #878787",
"E 	c #838383",
"F 	c #797979",
"G 	c #6A6A6A",
"H 	c #5D5D5D",
"I 	c #424444",
"J 	c #727272",
"K 	c #9E9E9E",
"L 	c #B8B8B8",
"M 	c #A5A5A5",
"N 	c #929292",
"O 	c #8B8B8B",
"P 	c #8E8E8E",
"Q 	c #8C8C8C",
"R 	c #767676",
"S 	c #656565",
"T 	c #383939",
"U 	c #515353",
"V 	c #636363",
"W 	c #919191",
"X 	c #848484",
"Y 	c #A1A1A1",
"Z 	c #8D8D8D",
"` 	c #898989",
" .	c #7A7A7A",
"..	c #2C2C2C",
"+.	c #4A4A4A",
"@.	c #2B2C2C",
"#.	c #3E3F3E",
"$.	c #3A3A3A",
"%.	c #575757",
"&.	c #959595",
"*.	c #969696",
"=.	c #939393",
"-.	c #808080",
";.	c #404040",
">.	c #323434",
",.	c #484949",
"'.	c #999999",
").	c #9A9A9A",
"!.	c #989898",
"~.	c #979797",
"{.	c #696969",
"].	c #323232",
"^.	c #414141",
"/.	c #3A3B3B",
"(.	c #666666",
"_.	c #7D7D7D",
":.	c #9B9B9B",
"<.	c #9C9C9C",
"[.	c #828282",
"}.	c #2B2B2B",
"|.	c #3E3E3E",
"1.	c #585858",
"2.	c #626262",
"3.	c #717171",
"4.	c #777777",
"5.	c #7B7B7B",
"6.	c #6E6E6E",
"7.	c #565656",
"8.	c #464646",
"9.	c #373737",
"0.	c #3F3F3F",
"a.	c #393939",
"b.	c #3D3D3D",
"c.	c #444444",
"d.	c #434343",
"e.	c #484848",
"f.	c #3B3B3B",
"g.	c #424242",
"h.	c #2D2D2D",
"i.	c #515151",
"j.	c #494949",
"          . . . . . . . . .                                       ",
"          . . . . . . . . .                                       ",
"+ + + + + + + + + + + + + + + + + + + + + + + + + + + + + + + + + ",
"@ @ @ @ @ @ @ @ @ @ @ @ @ @ @ @ @ @ @ @ @ @ @ @ @ @ @ @ @ @ @ @ @ ",
"# # # # # # # # # # # # # # # # # # # # # # # # # # # # # # # # # ",
"# # # # # # # # # # # # # @ # # # # # # # # # # # # # # # # # # # ",
"$ $ $ $ $ % % & * * = % - ; ; ; ; ; ; ; - % = * * & % % $ $ $ % $ ",
"% $ % % * > > , % - ' ) ! ~ ~ ~ ~ ~ ~ ~ ! ) ' - % , > > { ] { { ^ ",
"/ { ( _ > , & - ' ) ! ~ : < < < < < < < : ~ ! ) ' - & , > [ } | { ",
"| 1 > > * $ 2 3 4 5 6 7 8 9 9 9 9 9 9 9 8 7 6 5 4 3 2 $ * > > 0 ; ",
"; % > = a 2 b c ~ : d e 9 : ~ c ) b 4 c ! ~ ~ ~ ~ c b 2 a = > f b ",
"[ > , $ 0 3 4 g 7 c h * > f f > i i > > , & a 0 0 3 j 3 0 $ , > } ",
"& i & - ' k l $ m & c e n + o p o p o q r s t ~ - - - 2 0 - & i & ",
"% * $ b u ' &   v w x y z A B C C C C D E F G H r : 0 ' b 2 $ * & ",
"> & ' I 5 a + J y B K L M N O P P P P P P Q Q B R S o a : 8 h & > ",
"i $ T U b 9 V E W X Y A W N N N N N N N N A P Z `  .v ..9 +.@.$ i ",
"m a #.p ' $.%.Q &.&.&.&.&.&.&.&.&.&.*.*.&.=.W A O -.G ;.9 p ..a m ",
"& - >.,.! l o -.O z '.).).).).).).).'.'.'.!.~.W X J {.].9 ^.l - * ",
"& - ) /.c $ : (.x _.B W !.:.:.<.<.<.:.).~.A [.R v %.@ 3 ! }.' - * ",
"& - b }.8 3 $ ' |.# 1.2.{.3.4. .5.5. .x 6.v (.2.7.9 2 ' ) 4 b - = ",
"8 h j }.].t 7 ' $ & $ b 7 |.8.+.+ + r + +.^.9.) - ' ) }.6 }.j - 0.",
"a.4 h ! ].e b.c.|.8 }.b - m , > > i m & - b ! ..7 d e e ].! 2 j 9 ",
"= * 7 5 6 9.b.d.e.    +.e.n ^.t f.f.t |.^.d.c.s e.d.b.9.6 4 ..- f ",
"- 5 g > 0 : a.g.s   @ p q %.1.1.%.%.%.%.q p @   s g.a.: 0 b 4 4 4 ",
"3 b 3 2 3 b h.9.|.n +.@ i.p 7.q p p p p i.@ +.n |.9.h.b a a a a a ",
"s s s s s e.e.e.e.n n s s j.+.j.j.j.j.j.s s n n e.e.e.e.s s s e.e.",
"}.}.}.}.}.}.}.}.}.}.}.}.}.}.}.}.}.}.}.}.}.}.}.}.}.}.}.}.}.}.}.}.}.",
"l l l l l c c c c c c c c c 4 4 4 4 4 4 4 4 4 4 4 4 4 l l l l l l ",
"b b b b b b b b b b b b b b b b b b b b b b b b b b b b b b b b b ",
"; ; ; ; ; ; ; ; ; ; ; ; ; ; ; ; ; ; ; ; ; ; ; ; ; ; ; ; ; ; ; ; ; ",
"h h h h h - - - - - - - - - - - - - - - - - - - - - - h h h h h h ",
"$ $ $ $ $ $ $ $ $ $ $ $ $ $ $ $ $ $ $ $ $ $ $ $ $ $ $ $ $ $ $ $ $ "};
