/* XPM */
static char * title_3_active_xpm[] = {
"4 32 49 1",
" 	c #4E4E4E",
".	c #474747",
"+	c #464646",
"@	c #444444",
"#	c #525252",
"$	c #252525",
"%	c #101010",
"&	c #343434",
"*	c #292929",
"=	c #1B1B1B",
"-	c #353535",
";	c #303030",
">	c #151515",
",	c #161616",
"'	c #3E3E3E",
")	c #0B0B0B",
"!	c #232323",
"~	c #393939",
"{	c #111111",
"]	c #333333",
"^	c #3C3C3C",
"/	c #2F2F2F",
"(	c #222222",
"_	c #282828",
":	c #1A1A1A",
"<	c #0F0F0F",
"[	c #2E2E2E",
"}	c #262626",
"|	c #3A3A3A",
"1	c #141414",
"2	c #1D1D1D",
"3	c #2B2B2B",
"4	c #242424",
"5	c #1F1F1F",
"6	c #0E0E0E",
"7	c #070707",
"8	c #121212",
"9	c #080808",
"0	c #0D0D0D",
"a	c #020202",
"b	c #060606",
"c	c #191919",
"d	c #181818",
"e	c #767676",
"f	c #777777",
"g	c #666666",
"h	c #656565",
"i	c #2C2C2C",
"j	c #272727",
"    ",
".+@@",
"####",
"++++",
"$$$$",
"%&*=",
"-;>,",
"')!~",
"{]^/",
"(._=",
"._:!",
"~<['",
")''}",
"/|:,",
"|1:*",
"2,}3",
")[4,",
"!56<",
"5782",
"790)",
"a97b",
"cdcc",
"''''",
"eeef",
"gghh",
"////",
"iiii",
"jjjj",
"!!!!",
"5555",
"====",
"cccc"};
