/* XPM */
static char * title_2_active_xpm[] = {
"59 32 105 2",
"  	c #4C4C4C",
". 	c #4E4E4E",
"+ 	c #515151",
"@ 	c #4F4F4F",
"# 	c #4A4A4A",
"$ 	c #494949",
"% 	c #474747",
"& 	c #454545",
"* 	c #444444",
"= 	c #464646",
"- 	c #4D4D4D",
"; 	c #484848",
"> 	c #424242",
", 	c #414141",
"' 	c #404040",
") 	c #3F3F3F",
"! 	c #3E3E3E",
"~ 	c #434343",
"{ 	c #393939",
"] 	c #3C3C3C",
"^ 	c #3B3B3B",
"/ 	c #525252",
"( 	c #505050",
"_ 	c #3D3D3D",
": 	c #3A3A3A",
"< 	c #383838",
"[ 	c #282828",
"} 	c #242424",
"| 	c #252525",
"1 	c #535353",
"2 	c #373737",
"3 	c #2C2C2C",
"4 	c #1B1B1B",
"5 	c #101010",
"6 	c #343434",
"7 	c #292929",
"8 	c #363636",
"9 	c #353535",
"0 	c #2F2F2F",
"a 	c #151515",
"b 	c #161616",
"c 	c #303030",
"d 	c #565656",
"e 	c #323232",
"f 	c #0B0B0B",
"g 	c #232323",
"h 	c #555555",
"i 	c #131313",
"j 	c #333333",
"k 	c #111111",
"l 	c #222222",
"m 	c #272727",
"n 	c #1A1A1A",
"o 	c #0F0F0F",
"p 	c #2E2E2E",
"q 	c #262626",
"r 	c #4B4B4B",
"s 	c #141414",
"t 	c #2A2A2A",
"u 	c #575757",
"v 	c #585858",
"w 	c #2B2B2B",
"x 	c #1D1D1D",
"y 	c #595959",
"z 	c #5B5B5B",
"A 	c #545454",
"B 	c #5A5A5A",
"C 	c #5E5E5E",
"D 	c #1F1F1F",
"E 	c #0E0E0E",
"F 	c #606060",
"G 	c #646464",
"H 	c #070707",
"I 	c #121212",
"J 	c #5D5D5D",
"K 	c #616161",
"L 	c #686868",
"M 	c #6B6B6B",
"N 	c #171717",
"O 	c #0D0D0D",
"P 	c #080808",
"Q 	c #676767",
"R 	c #707070",
"S 	c #020202",
"T 	c #050505",
"U 	c #656565",
"V 	c #6C6C6C",
"W 	c #717171",
"X 	c #737373",
"Y 	c #6A6A6A",
"Z 	c #191919",
"` 	c #636363",
" .	c #6E6E6E",
"..	c #6F6F6F",
"+.	c #777777",
"@.	c #757575",
"#.	c #5F5F5F",
"$.	c #666666",
"%.	c #747474",
"&.	c #7B7B7B",
"*.	c #7C7C7C",
"=.	c #7A7A7A",
"-.	c #767676",
";.	c #626262",
">.	c #696969",
"                                                                                                                      ",
"                                                                                  . + + @   # $ % & & * * * * & & & = ",
"- - - - - - - - - - - - - - - - - - - - - - - - - - - - - - - - - - - - - - @ - ; * > > , , , , , ' ) ! ! ' > ~ = $   ",
". . . . . . . . . . . . . . . . . . . . . . . . . . . . . . . . . . . @ - ; ~ , ' ) ! ! ! ! ! ! ! ! { ] ! ' ' = ^ > & ",
"@ @ @ @ @ @ @ @ @ @ @ @ @ @ @ @ @ @ @ @ @ @ @ @ @ @ @ @ @ @ @ @ @ / ( ; ~ , ' ' ) ! _ _ ] ] ^ ^ ^ : < ^ & % ] [ } | | ",
"@ @ @ @ @ @ @ @ @ @ @ @ @ @ @ @ @ @ @ @ @ @ @ @ @ @ @ @ @ @ @ 1 + ; * > , ' ' ) ! ] ^ ^ : { < < < 2 { $ * 3 4 5 6 7 4 ",
"+ + + + + + + + + + + + + + + + + + + + + + + + + + + + + / / % ~ > , , ' ' ) ) _ ^ : : < 8 9 9 9 8 # > 0 a b 9 c a b ",
"/ / / / / / / / / / / / / / / / / / / / / / / / / / / / d . * > , > > , ' ) ! ! _ ] ^ { 2 8 9 9 9 * , e f g { ! f g { ",
"1 1 1 1 1 1 1 1 1 1 1 1 1 1 1 1 1 1 1 1 1 1 1 1 1 1 1 h $ ~ ~ ~ > > > , , ' ) ! _ ^ : { 2 8 9 9 { & 9 i j ] 0 k j ] 0 ",
"/ / / / / / / / / / / / / / / / / / / / / / / / / / + = ~ ~ > ~ ~ > > , , ' ) ! _ ] : { < 2 2 2 _ ) l l % [ 4 l % [ 4 ",
"@ @ @ @ @ @ @ @ @ @ @ @ @ @ @ @ @ @ @ @ @ @ @ @ @ @ * ~ ~ ~ ~ ~ ~ > > > > , ' ' ) ! _ _ ] ^ : : * < m % [ n g % [ n g ",
"- - - - - - - - - - - - - - - - - - - - - - - - - & ~ ~ ~ ~ ~ ~ ~ ~ ~ > > > , , , , ' ' ' ' ) ) ; 9 ! { o p ! { o p ! ",
"# # # # # # # # # # # # # # # # # # # # # # # # # * ~ ~ ~ ~ ~ ~ ~ ~ ~ ~ ~ ~ ~ ~ ~ ~ ~ ~ ~ ~ > > # 6 q f ! ! q f ! ! q ",
"; ; ; ; ; ; ; ; ; ; ; ; ; ; ; ; ; ; ; ; ; ; ; ; ; * ~ ~ ~ ~ ~ ~ ~ ~ * * * * & = = = = = % % % % ; 0 b 0 : n b 0 : n b ",
"% % % % % % % % % % % % % % % % % % % % % % % % % * ~ ~ ~ * ~ ~ * * * & & = % ; $ # r   . ( ( ( > e 7 : s n 7 : s n t ",
"= = = = = = = = = = = = = = = = = = = = = = = = = & > ~ ~ * * * * & & = % ; $ r   . ( / h u v v = : w x b q w x b q t ",
"~ ~ ~ ~ ~ ~ ~ ~ ~ ~ ~ ~ ~ ~ ~ ~ ~ ~ ~ ~ ~ ~ ~ ~ ~ ~ > ~ * * * * * & = % ; $ r - @ + 1 h v y z z 1 _ } f p } b f p } a ",
"> > > > > > > > > > > > > > > > > > > > > > > > > > > , ~ * * & = % $ #   - . @ + A d u B z C C z # 2 g D E o g D E k ",
") ) ) ) ) ) ) ) ) ) ) ) ) ) ) ) ) ) ) ) ) ) ) ) ) ) ) ) > & = % ; $ #   - . ( + / h v B C F G G G v ~ t H I x D H I x ",
"_ _ _ _ _ _ _ _ _ _ _ _ _ _ _ _ _ _ _ _ _ _ _ _ _ _ _ _ _ ! ~ % ; $ r   . @ ( / 1 d y J K G L L L M v 7 N O f H P O f ",
": : : : : : : : : : : : : : : : : : : : : : : : : : : : : : : _ ~ % $ r - @ + / A u B J K G Q Q Q M R v 3 l 5 S P H T ",
"{ { { { { { { { { { { { { { { { { { { { { { { { { { { { { { { { { : ! ~ $ - @ / h u B C K U L L L V W X Y . 0 m | 4 Z ",
"2 2 2 2 2 2 2 2 2 2 2 2 2 2 2 2 2 2 2 2 2 2 2 2 2 2 2 2 2 2 2 2 2 2 2 2 < ! ; A B C K ` U L Y Y V  ...X +.+.@. .#.( = ",
"6 6 6 6 6 6 6 6 6 6 6 6 6 6 6 6 6 6 6 6 6 6 6 6 6 6 6 6 6 6 6 6 6 6 6 6 6 6 6 6 ^ # y $.M  .W @.%. .W %.+.&.*.=.+.-.-.",
"e e e e e e e e e e e e e e e e e e e e e e e e e e e e e e e e e e e e e e e e e e e 9 ) r B C F ;.U Q >.>.>.>.>.>.>.",
"0 0 0 0 0 0 0 0 0 0 0 0 0 0 0 0 0 0 0 0 0 0 0 0 0 0 0 0 0 0 0 0 0 0 0 0 0 0 0 0 0 0 0 0 0 0 0 0 0 0 0 0 0 0 0 0 0 0 0 ",
"3 3 3 3 3 3 3 3 3 3 3 3 3 3 3 3 3 3 3 3 3 3 3 3 3 3 3 3 3 3 3 3 3 3 3 3 3 3 3 3 3 3 3 3 3 3 3 3 3 3 3 3 3 3 3 3 3 3 3 ",
"m m m m m m m m m m m m m m m m m m m m m m m m m m m m m m m m m m m m m m m m m m m m m m m m m m m m m m m m m m m ",
"g g g g g g g g g g g g g g g g g g g g g g g g g g g g g g g g g g g g g g g g g g g g g g g g g g g g g g g g g g g ",
"D D D D D D D D D D D D D D D D D D D D D D D D D D D D D D D D D D D D D D D D D D D D D D D D D D D D D D D D D D D ",
"4 4 4 4 4 4 4 4 4 4 4 4 4 4 4 4 4 4 4 4 4 4 4 4 4 4 4 4 4 4 4 4 4 4 4 4 4 4 4 4 4 4 4 4 4 4 4 4 4 4 4 4 4 4 4 4 4 4 4 ",
"Z Z Z Z Z Z Z Z Z Z Z Z Z Z Z Z Z Z Z Z Z Z Z Z Z Z Z Z Z Z Z Z Z Z Z Z Z Z Z Z Z Z Z Z Z Z Z Z Z Z Z Z Z Z Z Z Z Z Z "};
