/* XPM */
static char * title_3_inactive_xpm[] = {
"5 32 32 1",
" 	c #4E4E4E",
".	c #474747",
"+	c #464646",
"@	c #444444",
"#	c #525252",
"$	c #191919",
"%	c #262626",
"&	c #4A4A4A",
"*	c #646464",
"=	c #6A6A6A",
"-	c #6F6F6F",
";	c #747474",
">	c #5A5A5A",
",	c #404040",
"'	c #383838",
")	c #2F2F2F",
"!	c #282828",
"~	c #202020",
"{	c #181818",
"]	c #111111",
"^	c #070707",
"/	c #1B1B1B",
"(	c #3E3E3E",
"_	c #767676",
":	c #777777",
"<	c #787878",
"[	c #666666",
"}	c #656565",
"|	c #2C2C2C",
"1	c #272727",
"2	c #232323",
"3	c #1F1F1F",
"     ",
".+@@@",
"#####",
"+++++",
"$$$$$",
"%%%%%",
"&&&&&",
"*****",
"=====",
"-----",
";;;;;",
">>>>>",
".....",
",,,,,",
"'''''",
")))))",
"!!!!!",
"~~~~~",
"{{{{{",
"]]]]]",
"^^^^^",
"${$$/",
"(((((",
"___:<",
"[[}}[",
")))))",
"|||||",
"11111",
"22222",
"33333",
"/////",
"$$$$$"};
