/* XPM */
static char * title_2_inactive_xpm[] = {
"59 32 89 1",
" 	c #4C4C4C",
".	c #4E4E4E",
"+	c #515151",
"@	c #4F4F4F",
"#	c #4A4A4A",
"$	c #494949",
"%	c #474747",
"&	c #454545",
"*	c #444444",
"=	c #464646",
"-	c #4D4D4D",
";	c #484848",
">	c #424242",
",	c #414141",
"'	c #404040",
")	c #3F3F3F",
"!	c #3E3E3E",
"~	c #434343",
"{	c #393939",
"]	c #3C3C3C",
"^	c #3B3B3B",
"/	c #525252",
"(	c #505050",
"_	c #3D3D3D",
":	c #3A3A3A",
"<	c #383838",
"[	c #2C2C2C",
"}	c #1D1D1D",
"|	c #1E1E1E",
"1	c #1A1A1A",
"2	c #535353",
"3	c #373737",
"4	c #272727",
"5	c #202020",
"6	c #262626",
"7	c #252525",
"8	c #363636",
"9	c #353535",
"0	c #565656",
"a	c #5B5B5B",
"b	c #646464",
"c	c #555555",
"d	c #545454",
"e	c #6A6A6A",
"f	c #6F6F6F",
"g	c #6D6D6D",
"h	c #747474",
"i	c #5A5A5A",
"j	c #4B4B4B",
"k	c #575757",
"l	c #585858",
"m	c #2F2F2F",
"n	c #595959",
"o	c #2A2A2A",
"p	c #282828",
"q	c #5E5E5E",
"r	c #606060",
"s	c #292929",
"t	c #181818",
"u	c #5D5D5D",
"v	c #616161",
"w	c #686868",
"x	c #6B6B6B",
"y	c #171717",
"z	c #111111",
"A	c #676767",
"B	c #707070",
"C	c #070707",
"D	c #656565",
"E	c #6C6C6C",
"F	c #717171",
"G	c #737373",
"H	c #636363",
"I	c #6E6E6E",
"J	c #777777",
"K	c #343434",
"L	c #666666",
"M	c #757575",
"N	c #7B7B7B",
"O	c #7C7C7C",
"P	c #7A7A7A",
"Q	c #767676",
"R	c #323232",
"S	c #626262",
"T	c #696969",
"U	c #232323",
"V	c #1F1F1F",
"W	c #1B1B1B",
"X	c #191919",
"                                                           ",
"                                         .++@ #$%&&****&&&=",
"--------------------------------------@-;*>>,,,,,')!!'>~=$ ",
"...................................@-;~,')!!!!!!!!{]!''=^>&",
"@@@@@@@@@@@@@@@@@@@@@@@@@@@@@@@@@/(;~,'')!__]]^^^:<^&%![}|1",
"@@@@@@@@@@@@@@@@@@@@@@@@@@@@@@@2+;*>,'')!]^^:{<<<3{$~456777",
"+++++++++++++++++++++++++++++//%~>,,''))_^::<89998#^~######",
"////////////////////////////0.*>,>>,')!!_]^{38999*8abbbbbbb",
"222222222222222222222222222c$~~~>>>,,')!_^:{3899{:deeeeeeee",
"//////////////////////////+=~~>~~>>,,')!_]:{<333>>fffffffff",
"@@@@@@@@@@@@@@@@@@@@@@@@@@*~~~~~~>>>>,'')!__]^::,ghhhhhhhhh",
"-------------------------&~~~~~~~~~>>>,,,,''''))_iiiiiiiiii",
"#########################*~~~~~~~~~~~~~~~~~~~~>~:%%%%%%%%%%",
";;;;;;;;;;;;;;;;;;;;;;;;;*~~~~~~~~****&=====%%%%:''''''''''",
"%%%%%%%%%%%%%%%%%%%%%%%%%*~~~*~~***&&=%;$#j .(((8<<<<<<<<<<",
"=========================&>~~****&&=%;$j .(/ckll!mmmmmmmmmm",
"~~~~~~~~~~~~~~~~~~~~~~~~~~>~*****&=%;$j-@+2clnaa/oppppppppp",
">>>>>>>>>>>>>>>>>>>>>>>>>>>,~**&=%$# -.@+d0kiaqqa]555555555",
"))))))))))))))))))))))))))))>&=%;$# -.(+/cliqrbbblstttttttt",
"_____________________________!~%;$j .@(/20nuvbwwwxkyzzzzzzz",
":::::::::::::::::::::::::::::::_~%$j-@+/dkiuvbAAAxBc1CCCCCC",
"{{{{{{{{{{{{{{{{{{{{{{{{{{{{{{{{{:!~$-@/ckiqvDwwwEFGe%m4777",
"333333333333333333333333333333333333<!;diqvHDweeEIfGJJGDn.=",
"KKKKKKKKKKKKKKKKKKKKKKKKKKKKKKKKKKKKKKKK^#nLxIFMhIFhJNOPJQQ",
"RRRRRRRRRRRRRRRRRRRRRRRRRRRRRRRRRRRRRRRRRRR9)jiqrSDATTTTTTT",
"mmmmmmmmmmmmmmmmmmmmmmmmmmmmmmmmmmmmmmmmmmmmmmmmmmmmmmmmmmm",
"[[[[[[[[[[[[[[[[[[[[[[[[[[[[[[[[[[[[[[[[[[[[[[[[[[[[[[[[[[[",
"44444444444444444444444444444444444444444444444444444444444",
"UUUUUUUUUUUUUUUUUUUUUUUUUUUUUUUUUUUUUUUUUUUUUUUUUUUUUUUUUUU",
"VVVVVVVVVVVVVVVVVVVVVVVVVVVVVVVVVVVVVVVVVVVVVVVVVVVVVVVVVVV",
"WWWWWWWWWWWWWWWWWWWWWWWWWWWWWWWWWWWWWWWWWWWWWWWWWWWWWWWWWWW",
"XXXXXXXXXXXXXXXXXXXXXXXXXXXXXXXXXXXXXXXXXXXXXXXXXXXXXXXXXXX"};
