/* XPM */
static char * title_4_inactive_xpm[] = {
"74 32 108 2",
"  	c #4E4E4E",
". 	c #4C4C4C",
"+ 	c #4B4B4B",
"@ 	c #434343",
"# 	c #444444",
"$ 	c #464646",
"% 	c #474747",
"& 	c #494949",
"* 	c #4A4A4A",
"= 	c #4D4D4D",
"- 	c #424242",
"; 	c #404040",
"> 	c #3E3E3E",
", 	c #3F3F3F",
"' 	c #414141",
") 	c #505050",
"! 	c #4F4F4F",
"~ 	c #454545",
"{ 	c #3B3B3B",
"] 	c #3C3C3C",
"^ 	c #393939",
"/ 	c #1A1A1A",
"( 	c #1E1E1E",
"_ 	c #1D1D1D",
": 	c #2C2C2C",
"< 	c #3D3D3D",
"[ 	c #383838",
"} 	c #3A3A3A",
"| 	c #484848",
"1 	c #535353",
"2 	c #252525",
"3 	c #262626",
"4 	c #202020",
"5 	c #272727",
"6 	c #373737",
"7 	c #515151",
"8 	c #343434",
"9 	c #353535",
"0 	c #525252",
"a 	c #363636",
"b 	c #191919",
"c 	c #181818",
"d 	c #646464",
"e 	c #5B5B5B",
"f 	c #555555",
"g 	c #101010",
"h 	c #151515",
"i 	c #6A6A6A",
"j 	c #545454",
"k 	c #0E0E0E",
"l 	c #060606",
"m 	c #070707",
"n 	c #080808",
"o 	c #020202",
"p 	c #6F6F6F",
"q 	c #0C0C0C",
"r 	c #0B0B0B",
"s 	c #0D0D0D",
"t 	c #747474",
"u 	c #6D6D6D",
"v 	c #1F1F1F",
"w 	c #121212",
"x 	c #5A5A5A",
"y 	c #232323",
"z 	c #0F0F0F",
"A 	c #242424",
"B 	c #2E2E2E",
"C 	c #161616",
"D 	c #2B2B2B",
"E 	c #292929",
"F 	c #141414",
"G 	c #2F2F2F",
"H 	c #282828",
"I 	c #2A2A2A",
"J 	c #565656",
"K 	c #5F5F5F",
"L 	c #585858",
"M 	c #111111",
"N 	c #171717",
"O 	c #616161",
"P 	c #636363",
"Q 	c #222222",
"R 	c #1B1B1B",
"S 	c #626262",
"T 	c #696969",
"U 	c #333333",
"V 	c #5D5D5D",
"W 	c #303030",
"X 	c #595959",
"Y 	c #666666",
"Z 	c #6E6E6E",
"` 	c #737373",
" .	c #6C6C6C",
"..	c #5E5E5E",
"+.	c #777777",
"@.	c #797979",
"#.	c #7A7A7A",
"$.	c #7B7B7B",
"%.	c #787878",
"&.	c #767676",
"*.	c #717171",
"=.	c #2D2D2D",
"-.	c #1C1C1C",
";.	c #686868",
">.	c #676767",
",.	c #575757",
"'.	c #323232",
").	c #212121",
"  . . . . . . . . . . . . . . . . . . . . . . . . . . . . . . . . . . . . . . . . . . . . . . . . . . . . . . . . . . . . + + + + + + + + + + + + + ",
"@ @ # # $ % & * + . =   . . . . . . . . . . . . . . . . . . . . . . . . . . . . . . . . . . . . . . . . . . . . . . . . . . . + + + + + + + + + + + ",
". & $ @ - ; > > , ; ' - - $ & = ) ! = = = = = = = = = = = = = = = = = = = = = = = = = = = = = = = = = = = = = = = = = = = = = = = = = = = = = = = = ",
"~ - { ~ > , , ] ^ > > > > , ; ' @ $ . )                                                                                                             ",
"/ ( _ : > $ ' < [ } { < < > , ; ; ' @ | ) 1 ! ! ! ! ! ! ! ! ! ! ! ! ! ! ! ! ! ! ! ! ! ! ! ! ! ! ! ! ! ! ! ! ! ! ! ! ! ! ! ! ! ! ! ! ! ! ! ! ! ! ! ! ",
"2 2 2 3 4 5 @ $ ^ 6 [ { { ] > , ; ; ' - # | ) 7 ! ! ! ! ! ! ! ! ! ! ! ! ! ! ! ! ! ! ! ! ! ! ! ! ! ! ! ! ! ! ! ! ! ! ! ! ! ! ! ! ! ! ! ! ! ! ! ! ! ! ",
"* * * * * * @ { % 8 9 } } { < , , ; ; ' ' - @ % 0 0 7 7 7 7 7 7 7 7 7 7 7 7 7 7 7 7 7 7 7 7 7 7 7 7 7 7 7 7 7 7 7 7 7 7 7 7 7 7 7 7 7 7 a ( b c c c ",
"d d d d d d d e a - 9 ^ { ] < > > , ; ' - - ' - #   f 0 0 0 0 0 0 0 0 0 0 0 0 0 0 0 0 0 0 0 0 0 0 0 0 0 0 0 0 0 0 0 0 0 0 0 0 0 0 0 , g h c b b b c ",
"i i i i i i i i j } 6 ^ } { < > , ; ' ' - - - @ @ @ * j 1 1 1 1 1 1 1 1 1 1 1 1 1 1 1 1 1 1 1 1 1 1 1 1 1 1 1 1 1 1 1 1 1 1 1 1 1 ^ k l m n o l m n ",
"p p p p p p p p p - > ^ } ] < > , ; ' ' - - @ @ - @ @ $ 7 0 0 0 0 0 0 0 0 0 0 0 0 0 0 0 0 0 0 0 0 0 0 0 0 0 0 0 0 0 0 0 0 0 0 0   q m r s n m r s n ",
"t t t t t t t t t u ; < < > , ; ; ' - - - - @ @ @ @ @ @ # ! ! ! ! ! ! ! ! ! ! ! ! ! ! ! ! ! ! ! ! ! ! ! ! ! ! ! ! ! ! ! ! ! ! ! 9 m v _ w m v _ w m ",
"x x x x x x x x x x < ; ; ' ' ' ' - - - @ @ @ @ @ @ @ @ @ & = = = = = = = = = = = = = = = = = = = = = = = = = = = = = = = = = @ k v y z k v y z k v ",
"% % % % % % % % % % } @ @ @ @ - @ @ @ @ @ @ @ @ @ @ @ @ @ $ * * * * * * * * * * * * * * * * * * * * * * * * * * * * * * * * * ^ A B r C A B r C A B ",
"; ; ; ; ; ; ; ; ; ; } $ ~ ~ # ~ # # # # # @ @ @ @ @ @ @ @ ~ | | | | | | | | | | | | | | | | | | | | | | | | | | | | | | | | | : 3 C _ D 3 C _ D 3 C ",
"[ [ [ [ [ [ [ [ [ [ a & $ $ $ % $ ~ ~ ~ # # # @ @ # @ @ @ $ % % % % % % % % % % % % % % % % % % % % % % % % % % % % % % % % ~ E / F } E / F } E / F ",
"G G G G G G G G G G ; & | | | | $ $ $ ~ ~ ~ # # # # @ @ @ $ $ $ $ $ $ $ $ $ $ $ $ $ $ $ $ $ $ $ $ $ $ $ $ $ $ $ $ $ $ $ $ $ @ C / } G C / } G C / } ",
"H H H H H H H H H I 7 + * * & | % | % $ ~ ~ # # # # # @ - @ @ @ @ @ @ @ @ @ @ @ @ @ @ @ @ @ @ @ @ @ @ @ @ @ @ @ @ @ @ @ @ @ ' 3 > > r 3 > > r 3 > > ",
"4 4 4 4 4 4 4 4 4 ; J ! = . * * & & | % $ ~ ~ ~ # # @ - - - - - - - - - - - - - - - - - - - - - - - - - - - - - - - - - - - , > B z ^ > B z ^ > B z ",
"c c c c c c c c I K L 0 7   . + * * | | % % $ $ $ ~ ; , , , , , , , , , , , , , , , , , , , , , , , , , , , , , , , , , , , ] v / H % y / H % y / H ",
"M M M M M M M N O P L 0 7 ) !   . + & & & | | % @ > < < < < < < < < < < < < < < < < < < < < < < < < < < < < < < < < < < < < < G A % Q R H % Q R H % ",
"m m m m m m A S T K L 1 0 7 7 !   + * * & % ~ > } } } } } } } } } } } } } } } } } } } } } } } } } } } } } } } } } } } } } } } U , G M G ] U M G ] U ",
"2 2 2 5 U K t u d V L j 0 7 ) !   + * % # ; ^ ^ ^ ^ ^ ^ ^ ^ ^ ^ ^ ^ ^ ^ ^ ^ ^ ^ ^ ^ ^ ^ ^ ^ ^ ^ ^ ^ ^ ^ ^ ^ ^ ^ ^ ^ ^ ^ ^ ^ ^ 9 9 W a ^ y r > ^ y r ",
"$   X Y Z ` t  .d ..X J j 0 )     * % > 6 6 6 6 6 6 6 6 6 6 6 6 6 6 6 6 6 6 6 6 6 6 6 6 6 6 6 6 6 6 6 6 6 6 6 6 6 6 6 6 6 6 6 6 W [ I C h W 9 C h W ",
"+.@.#.$.@.%.&.*.T d K e L j ! . $ { 9 8 8 8 8 8 8 8 8 8 8 8 8 8 8 8 8 8 8 8 8 8 8 8 8 8 8 8 8 8 8 8 8 8 8 8 8 8 8 8 8 8 8 8 8 8 8 =.A N -.8 g R E 8 ",
"T T i T ;.;.>.Y S V ,.j + - } 9 '.'.'.'.'.'.'.'.'.'.'.'.'.'.'.'.'.'.'.'.'.'.'.'.'.'.'.'.'.'.'.'.'.'.'.'.'.'.'.'.'.'.'.'.'.'.'.'.'.'.G =.H / ( ).y ).",
"G G G G G G G G G G G G G G G G G G G G G G G G G G G G G G G G G G G G G G G G G G G G G G G G G G G G G G G G G G G G G G G G G G G G , % % % % % ",
": : : : : : : : : : : : : : : : : : : : : : : : : : : : : : : : : : : : : : : : : : : : : : : : : : : : : : : : : : : : : : : : : : : : : : D D D D ",
"5 5 5 5 5 5 5 5 5 5 5 5 5 5 5 5 5 5 5 5 5 5 5 5 5 5 5 5 5 5 5 5 5 5 5 5 5 5 5 5 5 5 5 5 5 5 5 5 5 5 5 5 5 5 5 5 5 5 5 5 5 5 5 5 5 5 5 5 5 5 5 5 5 5 ",
"y y y y y y y y y y y y y y y y y y y y y y y y y y y y y y y y y y y y y y y y y y y y y y y y y y y y y y y y y y y y y y y y y y y y y y y y y y ",
"v v v v v v v v v v v v v v v v v v v v v v v v v v v v v v v v v v v v v v v v v v v v v v v v v v v v v v v v v v v v v v v v v v v v v v v v v v ",
"R R R R R R R R R R R R R R R R R R R R R R R R R R R R R R R R R R R R R R R R R R R R R R R R R R R R R R R R R R R R R R R R R R R R R R R R R R ",
"b b b b b b b b b b b b b b b b b b b b b b b b b b b b b b b b b b b b b b b b b b b b b b b b b b b b b b b b b b b b b b b b b b b b b b b b b b "};
