/* XPM */
static char * title_1_active_xpm[] = {
"1 32 27 1",
" 	c #4C4C4C",
".	c #4D4D4D",
"+	c #4E4E4E",
"@	c #4F4F4F",
"#	c #515151",
"$	c #525252",
"%	c #535353",
"&	c #4A4A4A",
"*	c #484848",
"=	c #474747",
"-	c #464646",
";	c #434343",
">	c #424242",
",	c #3F3F3F",
"'	c #3D3D3D",
")	c #3A3A3A",
"!	c #393939",
"~	c #373737",
"{	c #343434",
"]	c #323232",
"^	c #2F2F2F",
"/	c #2C2C2C",
"(	c #272727",
"_	c #232323",
":	c #1F1F1F",
"<	c #1B1B1B",
"[	c #191919",
" ",
" ",
".",
"+",
"@",
"@",
"#",
"$",
"%",
"$",
"@",
".",
"&",
"*",
"=",
"-",
";",
">",
",",
"'",
")",
"!",
"~",
"{",
"]",
"^",
"/",
"(",
"_",
":",
"<",
"["};
