/* XPM */
static char * title_4_active_xpm[] = {
"74 32 110 2",
"  	c #4E4E4E",
". 	c #4C4C4C",
"+ 	c #4B4B4B",
"@ 	c #434343",
"# 	c #444444",
"$ 	c #464646",
"% 	c #474747",
"& 	c #494949",
"* 	c #4A4A4A",
"= 	c #4D4D4D",
"- 	c #424242",
"; 	c #404040",
"> 	c #3E3E3E",
", 	c #3F3F3F",
"' 	c #414141",
") 	c #505050",
"! 	c #4F4F4F",
"~ 	c #454545",
"{ 	c #3C3C3C",
"] 	c #3B3B3B",
"^ 	c #393939",
"/ 	c #272727",
"( 	c #313131",
"_ 	c #363636",
": 	c #3D3D3D",
"< 	c #383838",
"[ 	c #3A3A3A",
"} 	c #484848",
"| 	c #535353",
"1 	c #2D2D2D",
"2 	c #1B1B1B",
"3 	c #0D0D0D",
"4 	c #1F1F1F",
"5 	c #373737",
"6 	c #515151",
"7 	c #303030",
"8 	c #151515",
"9 	c #242424",
"0 	c #171717",
"a 	c #343434",
"b 	c #353535",
"c 	c #525252",
"d 	c #1E1E1E",
"e 	c #191919",
"f 	c #181818",
"g 	c #0B0B0B",
"h 	c #232323",
"i 	c #101010",
"j 	c #1D1D1D",
"k 	c #555555",
"l 	c #333333",
"m 	c #2F2F2F",
"n 	c #111111",
"o 	c #2C2C2C",
"p 	c #292929",
"q 	c #545454",
"r 	c #0E0E0E",
"s 	c #060606",
"t 	c #070707",
"u 	c #080808",
"v 	c #020202",
"w 	c #282828",
"x 	c #222222",
"y 	c #1C1C1C",
"z 	c #0C0C0C",
"A 	c #1A1A1A",
"B 	c #121212",
"C 	c #0F0F0F",
"D 	c #2E2E2E",
"E 	c #262626",
"F 	c #161616",
"G 	c #2B2B2B",
"H 	c #141414",
"I 	c #565656",
"J 	c #5A5A5A",
"K 	c #5C5C5C",
"L 	c #090909",
"M 	c #686868",
"N 	c #626262",
"O 	c #585858",
"P 	c #252525",
"Q 	c #696969",
"R 	c #6B6B6B",
"S 	c #636363",
"T 	c #6A6A6A",
"U 	c #6E6E6E",
"V 	c #5F5F5F",
"W 	c #212121",
"X 	c #6F6F6F",
"Y 	c #747474",
"Z 	c #6D6D6D",
"` 	c #646464",
" .	c #5D5D5D",
"..	c #676767",
"+.	c #737373",
"@.	c #6C6C6C",
"#.	c #5E5E5E",
"$.	c #595959",
"%.	c #2A2A2A",
"&.	c #777777",
"*.	c #797979",
"=.	c #7A7A7A",
"-.	c #7B7B7B",
";.	c #787878",
">.	c #767676",
",.	c #717171",
"'.	c #5B5B5B",
").	c #666666",
"!.	c #575757",
"~.	c #323232",
"  . . . . . . . . . . . . . . . . . . . . . . . . . . . . . . . . . . . . . . . . . . . . . . . . . . . . . . . . . . . . + + + + + + + + + + + + + ",
"@ @ # # $ % & * + . =   . . . . . . . . . . . . . . . . . . . . . . . . . . . . . . . . . . . . . . . . . . . . . . . . . . . + + + + + + + + + + + ",
". & $ @ - ; > > , ; ' - - $ & = ) ! = = = = = = = = = = = = = = = = = = = = = = = = = = = = = = = = = = = = = = = = = = = = = = = = = = = = = = = = ",
"~ $ , { ] , , { ^ > > > > , ; ' @ $ . )                                                                                                             ",
"/ ( { $ - _ > : < [ ] : : > , ; ; ' @ } ) | ! ! ! ! ! ! ! ! ! ! ! ! ! ! ! ! ! ! ! ! ! ! ! ! ! ! ! ! ! ! ! ! ! ! ! ! ! ! ! ! ! ! ! ! ! ! ! ! ! ! ! ! ",
"1 2 3 4 > & ^ : ^ 5 < ] ] { > , ; ; ' - # } ) 6 ! ! ! ! ! ! ! ! ! ! ! ! ! ! ! ! ! ! ! ! ! ! ! ! ! ! ! ! ! ! ! ! ! ! ! ! ! ! ! ! ! ! ! ! ! ! ! ! ! ! ",
"7 8 8 9 0 : * < [ a b [ [ ] : , , ; ; ' ' - @ % c c 6 6 6 6 6 6 6 6 6 6 6 6 6 6 6 6 6 6 6 6 6 6 6 6 6 6 6 6 6 6 6 6 6 6 6 6 6 6 6 6 6 6 _ d e f f f ",
"g h ^ > i j > @ 5 a b ^ ] { : > > , ; ' - - ' - #   k c c c c c c c c c c c c c c c c c c c c c c c c c c c c c c c c c c c c c c c , i 8 f e e e f ",
"l { m n l o p ~ < _ b ^ [ ] : > , ; ' ' - - - @ @ @ * q | | | | | | | | | | | | | | | | | | | | | | | | | | | | | | | | | | | | | ^ r s t u v s t u ",
"% w 2 x % / y { { ^ _ ^ [ { : > , ; ' ' - - @ @ - @ @ $ 6 c c c c c c c c c c c c c c c c c c c c c c c c c c c c c c c c c c c   z t g 3 u t g 3 u ",
"w A h % w A 9 m # ] [ : : > , ; ; ' - - - - @ @ @ @ @ @ # ! ! ! ! ! ! ! ! ! ! ! ! ! ! ! ! ! ! ! ! ! ! ! ! ! ! ! ! ! ! ! ! ! ! ! b t 4 j B t 4 j B t ",
"C D > ^ C D [ / } ] ; ; ; ' ' ' ' - - - @ @ @ @ @ @ @ @ @ & = = = = = = = = = = = = = = = = = = = = = = = = = = = = = = = = = @ r 4 h C r 4 h C r 4 ",
"> > E g > > w E * [ @ @ @ @ @ - @ @ @ @ @ @ @ @ @ @ @ @ @ $ * * * * * * * * * * * * * * * * * * * * * * * * * * * * * * * * * ^ 9 D g F 9 D g F 9 D ",
"[ A F m [ A F w } : } $ ~ ~ # ~ # # # # # @ @ @ @ @ @ @ @ ~ } } } } } } } } } } } } } } } } } } } } } } } } } } } } } } } } } o E F j G E F j G E F ",
"H A p [ H A G 1 - ~   } $ $ $ % $ ~ ~ ~ # # # @ @ # @ @ @ $ % % % % % % % % % % % % % % % % % % % % % % % % % % % % % % % % ~ p A H [ p A H [ p A H ",
"F E G j F E o < ' =   & } } } } $ $ $ ~ ~ ~ # # # # @ @ @ $ $ $ $ $ $ $ $ $ $ $ $ $ $ $ $ $ $ $ $ $ $ $ $ $ $ $ $ $ $ $ $ $ @ F A [ m F A [ m F A [ ",
"D 9 F g D 9 h : . I ) + * * & } % } % $ ~ ~ # # # # # @ - @ @ @ @ @ @ @ @ @ @ @ @ @ @ @ @ @ @ @ @ @ @ @ @ @ @ @ @ @ @ @ @ @ ' E > > g E > > g E > > ",
"4 r C h 4 8 ( # J K k ! = . * * & & } % $ ~ ~ ~ # # @ - - - - - - - - - - - - - - - - - - - - - - - - - - - - - - - - - - - , > D C ^ > D C ^ > D C ",
"t B j 4 L h ' ) M N O c 6   . + * * } } % % $ $ $ ~ ; , , , , , , , , , , , , , , , , , , , , , , , , , , , , , , , , , , , { 4 A w % h A w % h A w ",
"u 3 g z j P $ Q R S O c 6 ) !   . + & & & } } % @ > : : : : : : : : : : : : : : : : : : : : : : : : : : : : : : : : : : : : : m 9 % x 2 w % x 2 w % ",
"u 3 f 4 p } T U Q V O | c 6 6 !   + * * & % ~ > [ [ [ [ [ [ [ [ [ [ [ [ [ [ [ [ [ [ [ [ [ [ [ [ [ [ [ [ [ [ [ [ [ [ [ [ [ [ [ l , m n m { l n m { l ",
"W E o : J X Y Z `  .O q c 6 ) !   + * % # ; ^ ^ ^ ^ ^ ^ ^ ^ ^ ^ ^ ^ ^ ^ ^ ^ ^ ^ ^ ^ ^ ^ ^ ^ ^ ^ ^ ^ ^ ^ ^ ^ ^ ^ ^ ^ ^ ^ ^ ^ ^ b b 7 _ ^ h g > ^ h g ",
"~ . O ..U +.Y @.` #.$.I q c )     * % > 5 5 5 5 5 5 5 5 5 5 5 5 5 5 5 5 5 5 5 5 5 5 5 5 5 5 5 5 5 5 5 5 5 5 5 5 5 5 5 5 5 5 5 5 7 < %.F 8 7 b F 8 7 ",
"&.*.=.-.*.;.>.,.Q ` V '.O q ! . $ ] b a a a a a a a a a a a a a a a a a a a a a a a a a a a a a a a a a a a a a a a a a a a a a a 1 9 0 y a i 2 p a ",
"Q Q T Q M M ..).N  .!.q + - [ b ~.~.~.~.~.~.~.~.~.~.~.~.~.~.~.~.~.~.~.~.~.~.~.~.~.~.~.~.~.~.~.~.~.~.~.~.~.~.~.~.~.~.~.~.~.~.~.~.~.~.m 1 w A d W h W ",
"m m m m m m m m m m m m m m m m m m m m m m m m m m m m m m m m m m m m m m m m m m m m m m m m m m m m m m m m m m m m m m m m m m m m , % % % % % ",
"o o o o o o o o o o o o o o o o o o o o o o o o o o o o o o o o o o o o o o o o o o o o o o o o o o o o o o o o o o o o o o o o o o o o o o G G G G ",
"/ / / / / / / / / / / / / / / / / / / / / / / / / / / / / / / / / / / / / / / / / / / / / / / / / / / / / / / / / / / / / / / / / / / / / / / / / / ",
"h h h h h h h h h h h h h h h h h h h h h h h h h h h h h h h h h h h h h h h h h h h h h h h h h h h h h h h h h h h h h h h h h h h h h h h h h h ",
"4 4 4 4 4 4 4 4 4 4 4 4 4 4 4 4 4 4 4 4 4 4 4 4 4 4 4 4 4 4 4 4 4 4 4 4 4 4 4 4 4 4 4 4 4 4 4 4 4 4 4 4 4 4 4 4 4 4 4 4 4 4 4 4 4 4 4 4 4 4 4 4 4 4 ",
"2 2 2 2 2 2 2 2 2 2 2 2 2 2 2 2 2 2 2 2 2 2 2 2 2 2 2 2 2 2 2 2 2 2 2 2 2 2 2 2 2 2 2 2 2 2 2 2 2 2 2 2 2 2 2 2 2 2 2 2 2 2 2 2 2 2 2 2 2 2 2 2 2 2 ",
"e e e e e e e e e e e e e e e e e e e e e e e e e e e e e e e e e e e e e e e e e e e e e e e e e e e e e e e e e e e e e e e e e e e e e e e e e e "};
