/* XPM */
static char * top_right_inactive_xpm[] = {
"12 106 101 2",
"  	c None",
". 	c #464646",
"+ 	c #3D3D3D",
"@ 	c #323232",
"# 	c #262626",
"$ 	c #1C1C1C",
"% 	c #141414",
"& 	c #4D4D4D",
"* 	c #4F4F4F",
"= 	c #484848",
"- 	c #393939",
"; 	c #292929",
"> 	c #1B1B1B",
", 	c #101010",
"' 	c #4E4E4E",
") 	c #515151",
"! 	c #565656",
"~ 	c #5A5A5A",
"{ 	c #333333",
"] 	c #1E1E1E",
"^ 	c #161616",
"/ 	c #505050",
"( 	c #545454",
"_ 	c #5E5E5E",
": 	c #686868",
"< 	c #353535",
"[ 	c #202020",
"} 	c #181818",
"| 	c #525252",
"1 	c #6B6B6B",
"2 	c #6D6D6D",
"3 	c #535353",
"4 	c #1F1F1F",
"5 	c #4B4B4B",
"6 	c #2D2D2D",
"7 	c #191919",
"8 	c #363636",
"9 	c #606060",
"0 	c #3F3F3F",
"a 	c #252525",
"b 	c #070707",
"c 	c #080808",
"d 	c #020202",
"e 	c #0F0F0F",
"f 	c #666666",
"g 	c #2E2E2E",
"h 	c #0D0D0D",
"i 	c #0B0B0B",
"j 	c #111111",
"k 	c #585858",
"l 	c #373737",
"m 	c #1A1A1A",
"n 	c #121212",
"o 	c #1D1D1D",
"p 	c #646464",
"q 	c #0E0E0E",
"r 	c #232323",
"s 	c #636363",
"t 	c #5C5C5C",
"u 	c #434343",
"v 	c #212121",
"w 	c #242424",
"x 	c #616161",
"y 	c #222222",
"z 	c #2B2B2B",
"A 	c #3A3A3A",
"B 	c #5D5D5D",
"C 	c #2F2F2F",
"D 	c #494949",
"E 	c #272727",
"F 	c #575757",
"G 	c #4A4A4A",
"H 	c #2A2A2A",
"I 	c #3E3E3E",
"J 	c #2C2C2C",
"K 	c #474747",
"L 	c #282828",
"M 	c #454545",
"N 	c #3C3C3C",
"O 	c #4C4C4C",
"P 	c #404040",
"Q 	c #151515",
"R 	c #303030",
"S 	c #3B3B3B",
"T 	c #343434",
"U 	c #383838",
"V 	c #444444",
"W 	c #0C0C0C",
"X 	c #171717",
"Y 	c #414141",
"Z 	c #424242",
"` 	c #000000",
" .	c #808080",
"..	c #626262",
"+.	c #5F5F5F",
"@.	c #5B5B5B",
"#.	c #7F7F7F",
"$.	c #717171",
"%.	c #676767",
"&.	c #656565",
"*.	c #555555",
". + @ # $ %             ",
"& * & = - ; > ,         ",
"' * ) ! ~ ' { ] ^       ",
"* * / ( _ : ( < [ }     ",
"* / / | ~ 1 2 3 { 4     ",
"* * * * * * * * 5 6 >   ",
"7 ] 8 ) ) ) ) ) 9 0 a   ",
"b c d e 0 | | | f / g ^ ",
"h c b i j - 3 3 f k l m ",
"n b 4 o n h ' | p ~ + ] ",
"q 4 r e q 4 < * s t u v ",
"w g i ^ w g i u x t . y ",
"# ^ o z # ^ o A B ~ = w ",
"m % A ; m % A C ~ k D E ",
"m A C ^ m A C ^ ! F G H ",
"I I i # I I i # 3 ( D J ",
"g e - I g e - I / | K 6 ",
"m L K r m L K r & / M J ",
"L K y > L K y > G ' u H ",
"N { j C N { j C = O P L ",
"r i 0 - r i 0 { . G + L ",
"Q R < ^ Q R < < M K S L ",
"H T , > H U R l V M - H ",
"o } W X w 6 T T Y u l H ",
"m 7 L 6 C @ @ @ 0 Y l H ",
"K K 0 C C C C C + P l L ",
"z z H H ; E E < + P 8 # ",
"E # # E # a E N I 0 < w ",
"y r w a w r z Z 0 0 < w ",
"4 [ v v r a @ . 0 0 < w ",
"o ] 4 [ r ; S G 0 0 < w ",
"> m m $ ] z u B 0 0 < w ",
"      a O u G B 0 0 < w ",
"      a G G B V 0 0 < w ",
"      r G B M V 0 0 < w ",
"      r G B M V 0 0 < w ",
"      L G ~ K V 0 I < # ",
"      r G ` l ` 0 0 < w ",
"      r G ` ` ` 0 0 < w ",
"      r G ` C ` 0 0 < w ",
"      r G ` l ` 0 0 < w ",
"      r G S M ` 0 0 < w ",
"      r G @ M ` 0 0 < w ",
"      r G B _ ` 0 0 < w ",
"      r G B  .` 0 0 < w ",
"      r G B t ` 0 0 < w ",
"      r ` ` M ` 0 0 < w ",
"      ` ` S S ` 0 0 < w ",
"      ` A B ` ` ` ` ` ` ",
"      ` G B ` ` ` ` ` ` ",
"      ` G _ ` ` ` ` ` ` ",
"      ` G t ` Z 0 0 < ` ",
"      ` A B ` V B ` ..` ",
"      ` < B ` V B ` +.` ",
"      ` G B ` V B ` _ ` ",
"      ` G B ` V @.` _ ` ",
"      ` G _ ` V ` ` ` ` ",
"      ` G #.` V B ` _ ` ",
"      ` G B ` V B ` 9 ` ",
"      ` A B ` V B ` +.` ",
"      ` ` S ` V @.` +.` ",
"      ` ` ` ` V 0 0 +.` ",
"      ; ` ` u V 0 0 B ` ",
"      r G B M V 0 0 < w ",
"      r G B M V 0 0 < w ",
"      r t ` ` ` ` ` < w ",
"      r  .` M _ $./ < w ",
"      r _ ` M ~ %.0 < w ",
"      J G ` M k : 0 < w ",
"      J G ` M ~ &.0 < w ",
"      ` A ` M ( &.0 < w ",
"      ` R ` M ( %.0 < w ",
"      ` ` ` M k f 0 < w ",
"      ` A ` M ( &.0 < w ",
"      J G ` M ~ f 0 < w ",
"      r t ` M ~ p 0 < w ",
"      r G B M V 0 0 < w ",
"      r G B M V 0 0 < w ",
"      f *.B ` l ` @.< w ",
"      f *.B ` ` ` B < w ",
"      f *.B ` C ` B < w ",
"      f *.B ` l ` B < w ",
"      f k B ` V @ B < w ",
"      %.*.B ` V g _ < w ",
"      &.*.B ` _ 0 _ < w ",
"      &.~ B `  .0 B < w ",
"      : k B ` t 0 Z < w ",
"      %.~ B ` V ` ` < w ",
"      $._ B ` A @ ` ` B ",
"      ` ` ` ` ` 0 < ` t ",
"      ` ` ` ` ` B 0 ` @.",
"      ` ` ` ` ` _ 0 ` @.",
"      r G B u ` t 0 ` ~ ",
"      ..` B M ` 0 < ` @.",
"      +.` B M ` 0 @ ` @.",
"      _ ` B M ` B 0 ` @.",
"      _ ` @.M ` B 0 ` @.",
"      ` ` ` M ` _ 0 ` @.",
"      _ ` B M ` #.0 ` B ",
"      9 ` B M ` B 0 ` B ",
"      +.` B M ` 0 < ` B ",
"      +.` @.M ` @ ` ` B ",
"      +.G B M ` ` ` ` t ",
"      B G B M Z ` ` { w ",
"      L G ~ K V 0 I < # ",
"      L G ~ K V 0 I < # "};
