/* XPM */
static char * top_left_active_xpm[] = {
"12 105 97 2",
"  	c None",
". 	c #141414",
"+ 	c #1C1C1C",
"@ 	c #272727",
"# 	c #363636",
"$ 	c #434343",
"% 	c #4A4A4A",
"& 	c #101010",
"* 	c #1B1B1B",
"= 	c #292929",
"- 	c #393939",
"; 	c #515151",
"> 	c #525252",
", 	c #161616",
"' 	c #1E1E1E",
") 	c #333333",
"! 	c #555555",
"~ 	c #707070",
"{ 	c #717171",
"] 	c #666666",
"^ 	c #181818",
"/ 	c #202020",
"( 	c #353535",
"_ 	c #858585",
": 	c #7F7F7F",
"< 	c #575757",
"[ 	c #565656",
"} 	c #1F1F1F",
"| 	c #3C3C3C",
"1 	c #8A8A8A",
"2 	c #838383",
"3 	c #636363",
"4 	c #5A5A5A",
"5 	c #585858",
"6 	c #2D2D2D",
"7 	c #5D5D5D",
"8 	c #888888",
"9 	c #696969",
"0 	c #5C5C5C",
"a 	c #252525",
"b 	c #3F3F3F",
"c 	c #8C8C8C",
"d 	c #7A7A7A",
"e 	c #626262",
"f 	c #2E2E2E",
"g 	c #505050",
"h 	c #676767",
"i 	c #808080",
"j 	c #5F5F5F",
"k 	c #595959",
"l 	c #545454",
"m 	c #1A1A1A",
"n 	c #373737",
"o 	c #646464",
"p 	c #616161",
"q 	c #3E3E3E",
"r 	c #5B5B5B",
"s 	c #535353",
"t 	c #212121",
"u 	c #606060",
"v 	c #5E5E5E",
"w 	c #222222",
"x 	c #464646",
"y 	c #4F4F4F",
"z 	c #242424",
"A 	c #484848",
"B 	c #4D4D4D",
"C 	c #4C4C4C",
"D 	c #4B4B4B",
"E 	c #4E4E4E",
"F 	c #2A2A2A",
"G 	c #474747",
"H 	c #494949",
"I 	c #2C2C2C",
"J 	c #454545",
"K 	c #444444",
"L 	c #424242",
"M 	c #414141",
"N 	c #282828",
"O 	c #404040",
"P 	c #3D3D3D",
"Q 	c #3B3B3B",
"R 	c #3A3A3A",
"S 	c #2B2B2B",
"T 	c #383838",
"U 	c #323232",
"V 	c #343434",
"W 	c #303030",
"X 	c #313131",
"Y 	c #262626",
"Z 	c #232323",
"` 	c #1D1D1D",
" .	c #00DEDE",
"..	c #2F2F2F",
"+.	c #00DFDF",
"@.	c #686868",
"#.	c #656565",
"            . + @ # $ % ",
"        & * = - % ; > ; ",
"      , ' ) ! ~ { ] ! ! ",
"    ^ / ( ] _ : ] < < [ ",
"    } | { 1 2 3 4 5 < < ",
"  * 6 7 8 1 9 0 4 5 < < ",
"  a b 9 c d e 5 [ [ ! ! ",
", f g h i ] j k < [ ! l ",
"m n 5 o ] p j 4 < [ ! l ",
"' q 4 e e j 7 r k [ l s ",
"t $ 4 j u v 0 k [ s ; ; ",
"w x 5 v j 7 4 < s ; y y ",
"z A < v j 0 < > y B C D ",
"@ A ! 7 v 4 ! E C D % % ",
"F G ! r 7 5 g C D % % H ",
"I J l r 0 l B H A A A G ",
"6 x s 4 k > H G x x J J ",
"I K ; 5 < E G K K K $ $ ",
"F K ; [ ! D K L L M M M ",
"N $ g [ l % L O b b q q ",
"N L y l s H M q P P P | ",
"N M y l ; G O | Q Q Q R ",
"S M E s g x q R - T T T ",
"I q B > E $ Q # U U U U ",
"I q C ; D O - V W W W W ",
"S q D B G | ( X 6 6 f f ",
"= Q G H M n X 6 F F S S ",
"Y R K K Q W I = @ Y Y @ ",
"a n O b - I @ a a z Z w ",
"z # b b b f a Z t t / } ",
"z ( b b G T = Z / } ' ` ",
"z ( b b 0 L S ' + m m * ",
"z ( b b 7 % $ C a       ",
"z ( b b K 7 % % a       ",
"z ( b b K J 7 % Z       ",
"z ( b b K J 7 % Z       ",
"Y ( q b K G 4 % N       ",
"z ( b b  .n  .% Z       ",
"z ( b b  . . .% Z       ",
"z ( b b  ... .% Z       ",
"z ( b b  .n  .% Z       ",
"z ( b b  .J Q % Z       ",
"z ( b b  .J U % Z       ",
"z ( b b  .v 7 % Z       ",
"z ( b b  .i 7 % Z       ",
"z ( b b  .0 7 % Z       ",
"z ( b b  .J  . .Z       ",
"z ( b b  .Q Q  . .      ",
" .+. . . . .7 R  .      ",
" .+. . . . .7 %  .      ",
" .+.+. . . .v %  .      ",
" .( b b L  .0 %  .      ",
" .e  .7 K  .7 R  .      ",
" .j  .7 K  .7 (  .      ",
" .v  .7 K  .7 %  .      ",
" .v  .r K  .7 %  .      ",
" . . . .K  .v %  .      ",
" .v  .7 K  .: %  .      ",
" .u  .7 K  .7 %  .      ",
" .j  .7 K  .7 R  .      ",
" .j  .r K  .Q  . .      ",
" .j b b K  . . . .      ",
" .7 b b K $  . .=       ",
"z ( b b K J 7 % Z       ",
"z ( b b K J 7 % Z       ",
"z (  .+. . . .0 Z       ",
"z ( g { v J  .i Z       ",
"z ( b h 4 J  .v Z       ",
"z ( b @.5 J  .% I       ",
"z ( b #.4 J  .% I       ",
"z ( b #.l J  .R  .      ",
"z ( b h l J  .W  .      ",
"z ( b ] 5 J  . . .      ",
"z ( b #.l J  .R  .      ",
"z ( b ] 4 J  .% I       ",
"z ( b o 4 J  .0 Z       ",
"z ( b b K J 7 % Z       ",
"z ( b b K J 7 % Z       ",
"z ( r  .n  .7 ! ]       ",
"z ( 7  . . .7 ! ]       ",
"z ( 7  ... .7 ! ]       ",
"z ( 7  .n  .7 ! ]       ",
"z ( 7 U K  .7 5 ]       ",
"z ( v f K  .7 ! h       ",
"z ( v b v  .7 ! #.      ",
"z ( 7 b i  .7 4 #.      ",
"z ( L b 0  .7 5 @.      ",
"z (  . .K  .7 4 h       ",
"7  . .U R  .7 v {       ",
"0  .( b  . . . .+.      ",
"r  .b 7  . . . .+.      ",
"r  .b v  . . .+.+.      ",
"4  .b 0  .$ 7 % Z       ",
"r  .( b  .J 7  .e       ",
"r  .U b  .J 7  .j       ",
"r  .b 7  .J 7  .v       ",
"r  .b 7  .J r  .v       ",
"r  .b v  .J  . . .      ",
"7  .b :  .J 7  .v       ",
"7  .b 7  .J 7  .u       ",
"7  .( b  .J 7  .j       ",
"7  . .U  .J r  .j       ",
"0  . . . .J 7 % j       ",
"z )  . .L J 7 % 7       ",
"Y ( q b K G 4 % N       "};
